<svg xmlns="http://www.w3.org/2000/svg" width="27" height="26" viewBox="0 0 27 26" xmlns:xlink="http://www.w3.org/1999/xlink"><defs><path id="a" d="M18.299 12.55c0-1.898-.65-3.497-1.951-4.798-1.301-1.3-2.9-1.951-4.8-1.951-1.862 0-3.444.65-4.745 1.951-1.336 1.336-2.004 2.935-2.004 4.799 0 1.828.668 3.41 2.004 4.746C8.139 18.633 9.72 19.3 11.549 19.3c1.863 0 3.463-.668 4.799-2.004 1.3-1.3 1.95-2.883 1.95-4.746zm7.751 12.5c0 .527-.194.984-.58 1.37a1.871 1.871 0 01-1.371.581c-.528 0-.985-.193-1.371-.58l-5.168-5.168c-1.793 1.266-3.797 1.898-6.012 1.898-1.477 0-2.848-.28-4.113-.843-1.336-.563-2.461-1.319-3.375-2.268-.95-.914-1.706-2.039-2.268-3.375-.563-1.406-.844-2.777-.844-4.113a10.5 10.5 0 01.844-4.114c.598-1.37 1.353-2.513 2.268-3.427a10.744 10.744 0 013.375-2.268c1.3-.527 2.671-.79 4.113-.79 1.441 0 2.83.263 4.166.79 1.37.633 2.496 1.389 3.375 2.268.914.914 1.67 2.056 2.267 3.428.563 1.335.844 2.707.844 4.113 0 2.215-.633 4.219-1.898 6.011l5.168 5.168c.386.387.58.827.58 1.319z"/></defs><g fill="#000" fill-rule="evenodd" transform="translate(0 -1)"><use xlink:href="#a"/><use xlink:href="#a"/></g></svg>