<svg id="unity-logo" class="svg-unity-logo" aria-labelledby="unity-logo-title" role="img" xmlns="http://www.w3.org/2000/svg" width="116" height="26" viewBox="0 0 116 26"><path fill="#fff" d="M0 0h57v26H0V0zm4.236 11.86c0 1.152.735 1.924 2.206 2.315l1.484.394c.482.129.822.283 1.021.462.199.18.299.422.299.728 0 .391-.17.7-.507.928-.338.228-.794.342-1.37.342-.576 0-1.034-.117-1.374-.35-.34-.233-.548-.57-.62-1.009H4c.068.75.403 1.358 1.005 1.821.602.464 1.359.695 2.27.695.978 0 1.78-.235 2.406-.707.626-.471.939-1.077.939-1.817 0-.632-.173-1.121-.519-1.467-.345-.345-.947-.628-1.806-.848l-1.287-.33c-.487-.123-.847-.285-1.08-.486a.944.944 0 01-.35-.743c0-.38.16-.686.48-.917.319-.23.74-.345 1.264-.345.518 0 .94.118 1.264.353.324.236.508.558.55.965h1.311c-.026-.713-.331-1.304-.915-1.772-.584-.47-1.305-.704-2.163-.704-.916 0-1.668.232-2.254.696-.586.463-.88 1.062-.88 1.796zm8.135 6.246h1.366V9.441h-1.366v8.665zm.683-10.064c.24 0 .445-.087.613-.261a.868.868 0 00.25-.623.864.864 0 00-.25-.627.824.824 0 00-.613-.258.828.828 0 00-.609.258.857.857 0 00-.255.627.86.86 0 00.255.623.82.82 0 00.609.26zm2.803 10.064h1.367v-5.378c0-.605.186-1.11.557-1.515.372-.405.84-.607 1.406-.607.529 0 .954.158 1.276.474.322.317.483.737.483 1.262v5.764h1.366v-5.45c0-.595.182-1.085.546-1.471.364-.386.828-.579 1.394-.579.565 0 1.004.168 1.315.503.312.334.467.802.467 1.402v5.595h1.367V12.19c0-.863-.25-1.55-.75-2.062-.5-.512-1.169-.768-2.007-.768-.591 0-1.123.145-1.594.434-.47.29-.827.692-1.068 1.206h-.031c-.183-.525-.48-.93-.891-1.214-.411-.284-.905-.426-1.48-.426a2.72 2.72 0 00-1.465.398c-.427.265-.74.628-.938 1.09h-.032V9.44h-1.288v8.665zM33.471 9.36c-.587 0-1.128.135-1.626.406-.497.27-.869.631-1.115 1.081h-.03V9.441h-1.296V21h1.366v-4.3h.032c.267.471.633.837 1.1 1.097.465.26 1 .39 1.601.39 1.068 0 1.934-.405 2.6-1.214.664-.81.997-1.876.997-3.2 0-1.323-.335-2.39-1.006-3.199-.67-.81-1.544-1.214-2.622-1.214zm-.252 7.58c-.727 0-1.319-.292-1.774-.876-.456-.584-.683-1.347-.683-2.29 0-.944.227-1.708.683-2.292.455-.584 1.047-.876 1.774-.876.749 0 1.35.288 1.803.864.452.576.679 1.344.679 2.303 0 .96-.227 1.727-.68 2.303-.452.576-1.053.865-1.802.865zm5.584 1.166h1.366V6h-1.366v12.106zm6.863-7.516c.67 0 1.213.225 1.63.675.415.45.631 1.043.647 1.777h-4.657c.047-.734.29-1.327.727-1.777.437-.45.988-.675 1.653-.675zm2.246 5.04a1.67 1.67 0 01-.758.969c-.385.238-.842.358-1.37.358-.754 0-1.359-.247-1.814-.74-.456-.493-.684-1.152-.684-1.977v-.08h6.078v-.547c0-1.313-.33-2.35-.99-3.111-.659-.761-1.554-1.142-2.685-1.142-1.151 0-2.075.405-2.772 1.214-.696.81-1.044 1.886-1.044 3.231 0 1.34.35 2.405 1.048 3.196.7.79 1.643 1.185 2.831 1.185.906 0 1.688-.24 2.348-.719.66-.48 1.047-1.092 1.162-1.837h-1.35zm4.193 2.556a.85.85 0 00.64-.265.903.903 0 00.255-.65.9.9 0 00-.255-.656.858.858 0 00-.64-.261.892.892 0 00-.895.916c0 .257.086.474.259.651a.855.855 0 00.636.265zm12.987.174c-1.292 0-2.352-.813-2.7-2.1l-.265 1.964H61L63.088 6h1.126l-1.126 6.552c.58-.93 1.474-1.49 2.502-1.49 1.74 0 2.916 1.372 2.916 3.37 0 2.302-1.541 3.928-3.414 3.928zm-.265-1c1.525 0 2.519-1.252 2.519-2.928 0-1.389-.779-2.354-2.038-2.354-1.475 0-2.585 1.202-2.585 2.862 0 1.388.812 2.42 2.104 2.42zm24.294-2.177l-.277 1.614c-.066.352 0 .537.315.537h.679l-.166.924h-.795c-.688 0-1.054-.226-1.159-.705-.695.531-1.589.764-2.64.764-2.334 0-4.123-1.546-3.643-4.367l1.242-7.19h1.193l-1.242 7.206c-.381 2.218.728 3.293 2.5 3.293 1.59 0 2.617-.756 2.949-2.705l1.341-7.794h1.193l-1.392 7.945a7.287 7.287 0 01-.098.478zM72.283 22c-1.375 0-2.419-.643-2.916-1.676l.895-.593c.43.78.994 1.253 2.021 1.253 1.21 0 2.022-.762 2.287-2.252l.298-1.676c-.497.745-1.243 1.32-2.336 1.32-1.508 0-2.502-1.184-2.17-3.115l.695-4.046h1.127l-.68 3.945c-.231 1.337.25 2.184 1.426 2.184 1.242 0 2.02-.762 2.27-2.184l.695-3.945h1.127l-1.326 7.67C75.332 21 74.09 22 72.283 22zm18.924-3.818l1.209-6.954h1.126l-.282 1.395c.497-.924 1.325-1.546 2.435-1.546 1.507 0 2.5 1.176 2.17 3.09l-.447 2.554c-.067.353 0 .538.33.538h.63l-.165.923h-.762c-.994 0-1.325-.487-1.143-1.545l.414-2.368c.232-1.327-.249-2.167-1.424-2.167-1.243 0-2.038.756-2.286 2.167l-.679 3.913h-1.126zm10.666-8.986a.79.79 0 01-.795-.806c0-.487.364-.823.795-.823.414 0 .795.336.795.823a.78.78 0 01-.795.806zm-.771 9.062c-1.01 0-1.325-.487-1.143-1.545l.928-5.409h1.126l-.944 5.493c-.067.352 0 .537.314.537h.68l-.166.924h-.795zm3.702-6.055h-1.027l.166-.975h1.027l.646-3.628h1.11l-.63 3.628h1.855l-.166.975h-1.855l-.679 3.88c-.149.873.1 1.243.646 1.243.414 0 .663-.168.895-.37l.53.773c-.348.319-.795.588-1.557.588-1.093 0-1.921-.639-1.623-2.285l.662-3.83zm6.46 9.725c-1.375 0-2.419-.638-2.916-1.663l.895-.588c.43.773.993 1.243 2.02 1.243 1.21 0 2.02-.756 2.286-2.234l.298-1.663c-.497.74-1.242 1.31-2.335 1.31-1.507 0-2.501-1.175-2.17-3.09l.696-4.015h1.126l-.68 3.914c-.231 1.327.25 2.167 1.425 2.167 1.242 0 2.02-.756 2.27-2.167l.695-3.914H116l-1.325 7.61c-.364 2.099-1.606 3.09-3.412 3.09z" fill-rule="evenodd"/></svg>