<svg xmlns="http://www.w3.org/2000/svg" xmlns:xlink="http://www.w3.org/1999/xlink" width="377.328" height="236.569" viewBox="0 0 377.328 236.569"><defs><style>.a{fill:none;}.b{clip-path:url(#a);}.c{opacity:0.8;}.d{clip-path:url(#b);}.e{opacity:0.6;}.f{clip-path:url(#c);}.g{clip-path:url(#d);}.h{fill:#fff;}.i{clip-path:url(#e);}.j{clip-path:url(#f);}.k{clip-path:url(#g);}.l{clip-path:url(#h);}</style><clipPath id="a"><path class="a" d="M0,138.348H377.328V-98.221H0Z" transform="translate(0 98.221)"/></clipPath><clipPath id="b"><rect class="a" width="497.755" height="284.739"/></clipPath><clipPath id="c"><rect class="a" width="459.218" height="270.288"/></clipPath><clipPath id="d"><rect class="a" width="204.725" height="251.416"/></clipPath><clipPath id="e"><rect class="a" width="204.724" height="251.417"/></clipPath><clipPath id="f"><rect class="a" width="74.521" height="105.444"/></clipPath><clipPath id="g"><rect class="a" width="111.696" height="147.221"/></clipPath><clipPath id="h"><rect class="a" width="127.036" height="164.457"/></clipPath></defs><g transform="translate(0 98.221)"><g class="b" transform="translate(0 -98.221)"><g class="c" transform="translate(-60.213 -45.762)"><g class="d"><g class="e" transform="translate(19.268 14.451)"><g class="f"><g class="c" transform="translate(38.537 9.634)"><g transform="translate(0)"><g class="g"><g transform="translate(2.408 21.676)"><path class="h" d="M108.457,60.839-77-43.193V164.871Z" transform="translate(77 43.193)"/></g></g></g></g><g class="c" transform="translate(215.957 21.193)"><g class="i"><g transform="translate(16.86 21.677)"><path class="h" d="M0,60.839,185.457-43.193V164.871Z" transform="translate(0 43.193)"/></g></g></g><g transform="translate(97.375 205.788)"><path class="h" d="M0,18.156,55.252-12.89V49.2Z" transform="translate(0 12.89)"/></g><g class="c" transform="translate(182.459 36.145)"><g class="j"><g transform="translate(16.86 21.676)"><path class="h" d="M0,18.156,55.252-12.89V49.2Z" transform="translate(0 12.89)"/></g></g></g></g></g><g class="c" transform="translate(182.235 128.28)"><g class="k"><g transform="translate(2.409 21.678)"><path class="h" d="M54.052,30.371-38.375-21.562V82.3Z" transform="translate(38.375 21.562)"/></g></g></g><g class="c" transform="translate(283.993 26.52)"><g class="l"><g transform="translate(2.408 21.675)"><path class="h" d="M63.023,35.412-44.744-25.141V95.965Z" transform="translate(44.744 25.141)"/></g></g></g></g></g></g></g></svg>