<svg version="1.1" id="Capa_1" xmlns="http://www.w3.org/2000/svg" x="0" y="0" width="97.75" height="97.75" viewBox="0 0 97.75 97.75" xml:space="preserve" fill="#fff"><path d="M48.875 0C21.883 0 0 21.882 0 48.875S21.883 97.75 48.875 97.75 97.75 75.868 97.75 48.875 75.867 0 48.875 0zM19.086 62.536c-.573-4.572-.228-11.017.343-13.539.63-2.793 2.18-3.49 4.83-2.428a2194.946 2194.946 0 0115.673 6.365c1.648.676 2.373 1.846 2.301 3.545-.07 1.612-.868 2.631-2.58 3.176-5.497 1.752-10.992 3.509-16.504 5.213-2.192.677-3.573-.069-4.063-2.332zm29.65 22.778c-.024 2.209-1.158 3.387-3.349 3.17-4.886-.483-9.396-2.148-13.441-4.922-1.833-1.258-1.98-2.873-.563-4.582 3.749-4.514 7.537-8.996 11.336-13.469 1.063-1.252 2.487-1.531 4.018-.924 1.432.569 2.093 1.561 2.101 3.25.015 2.913.004 5.825.004 8.738h-.097c-.001 2.914.025 5.827-.009 8.739zm-.007-40.562c-.672 2.43-3.088 3.142-5.004 1.484-.773-.669-1.434-1.52-1.985-2.388A7726.115 7726.115 0 0125.921 18.86c-1.52-2.407-1.217-3.859 1.333-5.153 5.047-2.562 10.414-4.109 16.075-4.45 2.699-.162 3.648.744 3.835 3.416.663 9.53 1.291 19.062 1.957 28.939-.096.832-.086 2.031-.392 3.14zm6.453 3.533c3.45-4.679 6.879-9.376 10.355-14.037 1.488-1.996 3.107-2.189 4.949-.479a29.357 29.357 0 017.606 11.361c.884 2.366.103 3.749-2.336 4.376-5.544 1.426-11.104 2.792-16.659 4.176-.334.082-.685.102-.963.141-1.51-.042-2.541-.76-3.203-1.992-.65-1.213-.587-2.412.251-3.546zm22.966 23.253c-1.887 3.721-4.442 6.931-7.575 9.677a7.18 7.18 0 01-1.624 1.067c-1.365.651-2.633.381-3.43-.88a1262.372 1262.372 0 01-9.768-15.691c-.824-1.354-.406-2.697.557-3.852.922-1.104 2.119-1.52 3.504-1.061 5.683 1.879 11.354 3.786 17.03 5.686 1.296.433 2.033 1.279 2.115 2.746-.264.771-.443 1.586-.809 2.308z"/></svg>