<svg xmlns="http://www.w3.org/2000/svg" width="377.328" height="236.569" viewBox="0 0 377.328 236.569"><defs><clipPath id="a"><path class="a" d="M0 138.348h377.328V-98.221H0z" transform="translate(0 98.221)"/></clipPath><clipPath id="b"><path class="a" d="M0 0h497.755v284.739H0z"/></clipPath><clipPath id="c"><path class="a" d="M0 0h459.218v270.288H0z"/></clipPath><clipPath id="d"><path class="a" d="M0 0h204.725v251.416H0z"/></clipPath><clipPath id="e"><path class="a" d="M0 0h204.724v251.417H0z"/></clipPath><clipPath id="f"><path class="a" d="M0 0h74.521v105.444H0z"/></clipPath><clipPath id="g"><path class="a" d="M0 0h111.696v147.221H0z"/></clipPath><clipPath id="h"><path class="a" d="M0 0h127.036v164.457H0z"/></clipPath><style>.a{fill:none}.h{fill:#fff}</style></defs><g clip-path="url(#a)"><g clip-path="url(#b)" transform="translate(-60.213 -45.762)"><g clip-path="url(#c)" transform="translate(19.268 14.451)" opacity=".6"><g clip-path="url(#d)" transform="translate(38.537 9.634)"><path class="h" d="M187.865 125.708L2.408 21.676V229.74z"/></g><g clip-path="url(#e)" transform="translate(215.957 21.193)"><path class="h" d="M16.86 125.709L202.317 21.677v208.064z"/></g><path class="h" d="M97.375 236.834l55.252-31.046v62.09z"/><g clip-path="url(#f)" transform="translate(182.459 36.145)"><path class="h" d="M16.86 52.722l55.252-31.046v62.09z"/></g></g><g clip-path="url(#g)" transform="translate(182.235 128.28)"><path class="h" d="M94.836 73.611L2.409 21.678V125.54z"/></g><g clip-path="url(#h)" transform="translate(283.993 26.52)"><path class="h" d="M110.175 82.228L2.408 21.675v121.106z"/></g></g></g></svg>