<svg xmlns="http://www.w3.org/2000/svg" width="352.328" height="220.895" viewBox="0 0 352.328 220.895"><defs><clipPath id="clip-path"><path id="Path_632" data-name="Path 632" d="M0 122.674h352.328V-98.221H0z" transform="translate(0 98.221)" fill="#c4ded5"/></clipPath><clipPath id="clip-path-2"><path id="Rectangle_1179" data-name="Rectangle 1179" fill="#dddedd" d="M0 0h464.776v265.874H0z"/></clipPath><clipPath id="clip-path-3"><path id="Rectangle_1176" data-name="Rectangle 1176" fill="#dddedd" d="M0 0h428.793v252.38H0z"/></clipPath><clipPath id="clip-path-4"><path id="Rectangle_1173" data-name="Rectangle 1173" fill="#dddedd" d="M0 0h191.161v234.758H0z"/></clipPath><clipPath id="clip-path-5"><path id="Rectangle_1174" data-name="Rectangle 1174" fill="#dddedd" d="M0 0h191.16v234.759H0z"/></clipPath><clipPath id="clip-path-6"><path id="Rectangle_1175" data-name="Rectangle 1175" fill="#dddedd" d="M0 0h69.583v98.458H0z"/></clipPath><clipPath id="clip-path-7"><path id="Rectangle_1177" data-name="Rectangle 1177" fill="#dddedd" d="M0 0h104.296v137.467H0z"/></clipPath><clipPath id="clip-path-8"><path id="Rectangle_1178" data-name="Rectangle 1178" fill="#dddedd" d="M0 0h118.619v153.561H0z"/></clipPath></defs><g id="Triangles_-_gray" data-name="Triangles - gray" transform="translate(0 -102.442)"><g id="Group_663" data-name="Group 663" transform="translate(0 102.442)" clip-path="url(#clip-path)"><g id="Group_662" data-name="Group 662" transform="translate(-56.224 -42.73)" opacity=".8"><g id="Group_661" data-name="Group 661"><g id="Group_660" data-name="Group 660" clip-path="url(#clip-path-2)"><g id="Group_651" data-name="Group 651" transform="translate(17.992 13.494)" opacity=".6"><g id="Group_650" data-name="Group 650"><g id="Group_649" data-name="Group 649" clip-path="url(#clip-path-3)"><g id="Group_639" data-name="Group 639" transform="translate(35.983 8.996)" opacity=".8"><g id="Group_638" data-name="Group 638"><g id="Group_637" data-name="Group 637" clip-path="url(#clip-path-4)"><g id="Group_636" data-name="Group 636" transform="translate(2.249 20.24)"><path id="Path_626" data-name="Path 626" d="M96.17 53.946L-77-43.193v194.278z" transform="translate(77 43.193)" fill="#dddedd"/></g></g></g></g><g id="Group_643" data-name="Group 643" transform="translate(201.649 19.789)" opacity=".8"><g id="Group_642" data-name="Group 642"><g id="Group_641" data-name="Group 641" clip-path="url(#clip-path-5)"><g id="Group_640" data-name="Group 640" transform="translate(15.743 20.241)"><path id="Path_627" data-name="Path 627" d="M0 53.946l173.17-97.139v194.278z" transform="translate(0 43.193)" fill="#dddedd"/></g></g></g></g><g id="Group_644" data-name="Group 644" transform="translate(90.923 192.154)"><path id="Path_628" data-name="Path 628" d="M0 16.1l51.591-28.99v57.978z" transform="translate(0 12.89)" fill="#dddedd"/></g><g id="Group_648" data-name="Group 648" transform="translate(170.37 33.75)" opacity=".8"><g id="Group_647" data-name="Group 647"><g id="Group_646" data-name="Group 646" clip-path="url(#clip-path-6)"><g id="Group_645" data-name="Group 645" transform="translate(15.743 20.24)"><path id="Path_629" data-name="Path 629" d="M0 16.1l51.591-28.99v57.978z" transform="translate(0 12.89)" fill="#dddedd"/></g></g></g></g></g></g></g><g id="Group_655" data-name="Group 655" transform="translate(170.161 119.781)" opacity=".8"><g id="Group_654" data-name="Group 654"><g id="Group_653" data-name="Group 653" clip-path="url(#clip-path-7)"><g id="Group_652" data-name="Group 652" transform="translate(2.25 20.242)"><path id="Path_630" data-name="Path 630" d="M47.929 26.93l-86.3-48.492v96.984z" transform="translate(38.375 21.562)" fill="#dddedd"/></g></g></g></g><g id="Group_659" data-name="Group 659" transform="translate(265.177 24.763)" opacity=".8"><g id="Group_658" data-name="Group 658"><g id="Group_657" data-name="Group 657" clip-path="url(#clip-path-8)"><g id="Group_656" data-name="Group 656" transform="translate(2.248 20.239)"><path id="Path_631" data-name="Path 631" d="M55.883 31.4L-44.744-25.141V87.941z" transform="translate(44.744 25.141)" fill="#dddedd"/></g></g></g></g></g></g></g></g></g></svg>