<svg xmlns="http://www.w3.org/2000/svg" xmlns:xlink="http://www.w3.org/1999/xlink" width="140" height="143.754" viewBox="0 0 140 143.754"><defs><style>.a,.c{fill:none;}.b{clip-path:url(#a);}.c{stroke:#fff;stroke-linecap:round;stroke-width:0.956px;}</style><clipPath id="a"><path class="a" d="M0,62.04H140V-81.714H0Z" transform="translate(0 81.714)"/></clipPath></defs><g transform="translate(-17.482)"><g class="b" transform="translate(17.482)"><g transform="translate(0.841 0.842)"><path class="c" d="M.273,30.423C15.04,23.778,34.367,19.264,55.9,17.962m32.213.486c18.952,1.743,35.931,5.994,49.215,11.975M53.19,77.639H91.653a4.732,4.732,0,1,0,0-9.459H82.39a4.733,4.733,0,1,1,0-9.463H112M90.864,13.08c-3.589-1.74-14.253-3.851-19.126,5.647M85.824,22.9c-3.589-1.74-14.253-3.851-19.126,5.649m14.086,4.168c-3.589-1.736-14.25-3.846-19.126,5.651M41.5,77.639,74.157,14.1C84.07-5.274,88.577-14.3,95.838-21.149M48.029,64.939c5.913-11.546-3.265-25.224,7.29-45.854L70.332-10.142c21.371-41.645,46.66-27.676,46.66-27.676L73.918,46.1a14.722,14.722,0,0,0-19.476,6.328m53.641-72.89a66.581,66.581,0,0,1,29.875,55.293c0,37.1-30.963,67.168-69.156,67.168S-.359,71.928-.359,34.833,30.6-32.34,68.8-32.34a71.366,71.366,0,0,1,16.116,1.835" transform="translate(0.359 40.07)"/></g></g></g></svg>