<svg xmlns="http://www.w3.org/2000/svg" xmlns:xlink="http://www.w3.org/1999/xlink" width="140" height="146.003" viewBox="0 0 140 146.003"><defs><style>.a,.c{fill:none;}.b{clip-path:url(#a);}.c{stroke:#fff;stroke-linecap:round;stroke-width:1.278px;}</style><clipPath id="a"><path class="a" d="M0,63.011H140v-146H0Z" transform="translate(0 82.992)"/></clipPath></defs><g class="b"><g transform="translate(1.124 1.645)"><path class="c" d="M33.63,4.126A68.8,68.8,0,0,1,85.36,39.119c17.879,32.715,5.162,73.364-28.408,90.791s-75.272,5.026-93.15-27.692S-41.356,28.855-7.79,11.427A70.009,70.009,0,0,1,15.784,4.082M5.17,54.748H19.181v-15.9a6.919,6.919,0,0,0-7-6.829A6.92,6.92,0,0,0,5.17,38.851Zm25.025,0H44.206v-15.9a7.008,7.008,0,0,0-14.011,0ZM24.58,90.516s2.1,32.62-12.255,46.2M31.587,90.645s8.867,22.049,2.285,46.546m-16.3-46.546s-.874,26.132-29.254,37.09m-25.261-26.918a187.4,187.4,0,0,1,61.519-10.3,187.361,187.361,0,0,1,61.528,10.3M17.571,89.113V65.488H31.577V89.113m24.67-60.168V92.054M-7.1,28.945V92.054m-8.321-54.2L24.573-5.434,64.568,36.784" transform="translate(44.294 5.434)"/></g></g></svg>