<svg xmlns="http://www.w3.org/2000/svg" xmlns:xlink="http://www.w3.org/1999/xlink" width="140" height="166.104" viewBox="0 0 140 166.104"><defs><style>.a,.c{fill:none;}.b{clip-path:url(#a);}.c{stroke:#fff;stroke-linecap:round;stroke-width:1.278px;}</style><clipPath id="a"><path class="a" d="M0,71.686H140v-166.1H0Z" transform="translate(0 94.418)"/></clipPath></defs><g transform="translate(-2)"><g class="b" transform="translate(2)"><g transform="translate(1.124 1.133)"><path class="c" d="M40.848,56.916a133.727,133.727,0,0,1,27.17,7.375m-79.576-7.317a134.081,134.081,0,0,0-26.772,7.3M77,51.3C60.37,84.46,19.163,98.269-15.04,82.144S-63.484,26.071-46.852-7.085,10.986-54.051,45.188-37.93,93.632,18.144,77,51.3ZM11.915-74.965l7.22.049L20.8-53.754,9.95-53.824ZM-13.467,52.122c13.354.255,27.854,8.3,27.778,19.14M15.376-53.791l-1.068,126.5M11.414-69.571l-4.643-.053m3.992,7.479L5.6-62.181M-13.815,41c13.47.088,28.283,8.187,28.206,19.146m9.787-125.93-4.326-.039m5.387,7.5-4.8-.03M41.393,33.963A16.821,16.821,0,0,1,28.359,17.641,16.685,16.685,0,0,1,38.181,2.674a22.282,22.282,0,0,0,.392-3.992C38.664-14.034,28.1-24.408,14.992-24.5S-8.824-14.347-8.914-1.631a22.029,22.029,0,0,0,.34,4,16.687,16.687,0,0,1,9.611,15.1A16.848,16.848,0,0,1-12.228,33.61a27.165,27.165,0,0,0-2.3,10.763c-.111,15.545,12.8,28.232,28.832,28.34S43.429,60.3,43.536,44.758A27.225,27.225,0,0,0,41.393,33.963Z" transform="translate(53.801 74.965)"/></g></g></g></svg>