<svg xmlns="http://www.w3.org/2000/svg" xmlns:xlink="http://www.w3.org/1999/xlink" width="140" height="158.838" viewBox="0 0 140 158.838"><defs><style>.a,.c{fill:none;}.b{clip-path:url(#a);}.c{stroke:#fff;stroke-linecap:round;stroke-width:1.298px;}</style><clipPath id="a"><path class="a" d="M0,68.55H140V-90.288H0Z" transform="translate(0 90.288)"/></clipPath></defs><g transform="translate(-7 13)"><g class="b" transform="translate(7 -13)"><g transform="translate(1.141 3.61)"><path class="c" d="M7.176,56.306c15.128-6.036,33.037-9.528,52.23-9.528s37.109,3.492,52.237,9.528M65.664-55.4c35.1,3.114,62.6,32.155,62.6,67.521,0,37.445-30.829,67.8-68.858,67.8S-9.452,49.57-9.452,12.125c0-35.366,27.506-64.407,62.6-67.521m6.258,67.273S67.24,22.795,91.739,22.795M59.406-.937S67.733,9.98,87.464,9.98M59.406-15.433S65.1-3.576,82.945-3.576M59.406-24.615V60.033M93.725,28.753S80.114,35.3,59.406,35.3s-34.316-6.551-34.316-6.551L59.406-74.162Z" transform="translate(9.452 74.162)"/></g></g></g></svg>