<svg xmlns="http://www.w3.org/2000/svg" width="141.487" height="150.736" viewBox="0 0 141.487 150.736"><defs><style>.a{fill:none;stroke:#fff;stroke-miterlimit:10;stroke-width:1.28px;}</style></defs><g transform="translate(0.07 -0.241)"><path class="a" d="M66.85,31S45.568,64.444,1.7,55.54" transform="translate(1.152 34.411)"/><path class="a" d="M64.244,27.8S33.623,59.506,1.7,38.224" transform="translate(1.152 30.648)"/><path class="a" d="M10.1,66.91A102.406,102.406,0,0,1,58.094,55.4a105.083,105.083,0,0,1,47.994,11.51" transform="translate(10.994 63.075)"/><path class="a" d="M117.639,23.669A70.5,70.5,0,0,1,35.464,137.156C1.768,118.241-8.015,76.282,8.724,41.062,24.594,7.363,67.2-3.724,100.465,12.146" transform="translate(0 3.894)"/><g transform="translate(50.994 1.7)"><path class="a" d="M23.8,44.265,101.328,1.7,68.1,78.577,50.511,60.769,101.328,1.7,37.7,52.734Z" transform="translate(-23.8 -1.7)"/><g transform="translate(13.899 51.034)"><line class="a" x1="6.081" y1="21.934"/></g></g><path class="a" d="M72.49,29.5S68.8,37.1,65.541,43.181c0,0-15.636,33.661-61.241,35.4" transform="translate(4.199 32.668)"/></g></svg>