<svg xmlns="http://www.w3.org/2000/svg" width="140" height="158.838" viewBox="0 0 140 158.838"><defs><clipPath id="a"><path d="M0 68.55h140V-90.288H0z" transform="translate(0 90.288)" fill="none"/></clipPath></defs><g clip-path="url(#a)"><path d="M17.769 134.078c15.128-6.036 33.037-9.528 52.23-9.528s37.109 3.492 52.237 9.528M76.257 22.372c35.1 3.114 62.6 32.155 62.6 67.521 0 37.445-30.829 67.8-68.858 67.8S1.141 127.342 1.141 89.897c0-35.366 27.506-64.407 62.6-67.521m6.258 67.273s7.834 10.918 32.333 10.918M69.999 76.835s8.327 10.917 28.058 10.917M69.999 62.339s5.694 11.857 23.539 11.857M69.999 53.157v84.648m34.319-31.28s-13.611 6.547-34.319 6.547-34.316-6.551-34.316-6.551L69.999 3.61z" stroke="#fff" stroke-linecap="round" stroke-width="1.298" fill="none"/></g></svg>