<svg xmlns="http://www.w3.org/2000/svg" width="140" height="143.754" viewBox="0 0 140 143.754"><defs><clipPath id="a"><path d="M0 62.04h140V-81.714H0z" transform="translate(0 81.714)" fill="none"/></clipPath></defs><g clip-path="url(#a)"><path d="M1.473 71.335C16.24 64.69 35.567 60.176 57.1 58.874m32.213.486c18.952 1.743 35.931 5.994 49.215 11.975M54.39 118.551h38.463a4.732 4.732 0 100-9.459H83.59a4.733 4.733 0 110-9.463h29.61M92.064 53.992c-3.589-1.74-14.253-3.851-19.126 5.647m14.086 4.173c-3.589-1.74-14.253-3.851-19.126 5.649m14.086 4.168c-3.589-1.736-14.25-3.846-19.126 5.651M42.7 118.551l32.657-63.539c9.913-19.374 14.42-28.4 21.681-35.249m-47.809 86.088c5.913-11.546-3.265-25.224 7.29-45.854L71.532 30.77c21.371-41.645 46.66-27.676 46.66-27.676L75.118 87.012a14.722 14.722 0 00-19.476 6.328m53.641-72.89a66.581 66.581 0 0129.875 55.293c0 37.1-30.963 67.168-69.156 67.168S.841 112.84.841 75.745 31.8 8.572 70 8.572a71.366 71.366 0 0116.116 1.835" stroke="#fff" stroke-linecap="round" stroke-width=".956" fill="none"/></g></svg>