<svg xmlns="http://www.w3.org/2000/svg" width="141.487" height="150.736" viewBox="0 0 141.487 150.736"><defs><style>.a{fill:none;stroke:#fff;stroke-miterlimit:10;stroke-width:1.28px}</style></defs><path class="a" d="M68.072 65.17S46.79 98.614 2.922 89.71m62.544-31.503S34.845 89.913 2.922 68.631m18.242 61.113a102.406 102.406 0 0147.994-11.51 105.083 105.083 0 0147.994 11.51"/><path class="a" d="M117.709 27.322a70.5 70.5 0 01-82.175 113.487C1.838 121.894-7.945 79.935 8.794 44.715 24.664 11.016 67.27-.071 100.535 15.799"/><path class="a" d="M51.064 44.024l77.528-42.565-33.228 76.877-17.589-17.808 50.817-59.069-63.628 51.034zm19.98 30.403l-6.081-21.934"/><path class="a" d="M76.759 61.927s-3.69 7.6-6.949 13.681c0 0-15.636 33.661-61.241 35.4"/></svg>