<svg xmlns="http://www.w3.org/2000/svg" width="140" height="166.104" viewBox="0 0 140 166.104"><defs><clipPath id="a"><path d="M0 71.686h140v-166.1H0z" transform="translate(0 94.418)" fill="none"/></clipPath></defs><g clip-path="url(#a)"><path d="M95.773 133.014a133.727 133.727 0 0127.17 7.375m-79.576-7.317a134.081 134.081 0 00-26.772 7.3m115.33-12.974c-16.63 33.16-57.837 46.969-92.04 30.844S-8.559 102.169 8.073 69.013s57.838-46.966 92.04-30.845 48.444 56.074 31.812 89.23zM66.84 1.133l7.22.049 1.665 21.162-10.85-.07zM41.458 128.22c13.354.255 27.854 8.3 27.778 19.14m1.065-125.053l-1.068 126.5M66.339 6.527l-4.643-.053m3.992 7.479l-5.163-.036M41.11 117.098c13.47.088 28.283 8.187 28.206 19.146m9.787-125.93l-4.326-.039m5.387 7.5l-4.8-.03m20.954 92.316a16.821 16.821 0 01-13.034-16.322 16.685 16.685 0 019.822-14.967 22.282 22.282 0 00.392-3.992c.091-12.716-10.473-23.09-23.581-23.182S46.101 61.751 46.011 74.467a22.029 22.029 0 00.34 4 16.687 16.687 0 019.611 15.1 16.848 16.848 0 01-13.265 16.141 27.165 27.165 0 00-2.3 10.763c-.111 15.545 12.8 28.232 28.832 28.34s29.125-12.413 29.232-27.955a27.225 27.225 0 00-2.143-10.795z" stroke="#fff" stroke-linecap="round" stroke-width="1.278" fill="none"/></g></svg>