<svg xmlns="http://www.w3.org/2000/svg" width="140" height="146.003" viewBox="0 0 140 146.003"><defs><clipPath id="a"><path d="M0 63.011h140v-146H0z" transform="translate(0 82.992)" fill="none"/></clipPath></defs><g clip-path="url(#a)"><path d="M79.048 11.205a68.8 68.8 0 0151.73 34.993c17.879 32.715 5.162 73.364-28.408 90.791s-75.272 5.026-93.15-27.692-5.158-73.363 28.408-90.791a70.009 70.009 0 0123.574-7.345M50.588 61.827h14.011v-15.9a6.919 6.919 0 00-7-6.829 6.92 6.92 0 00-7.011 6.832zm25.025 0h14.011v-15.9a7.008 7.008 0 00-14.011 0zm-5.615 35.768s2.1 32.62-12.255 46.2m19.262-46.071s8.867 22.049 2.285 46.546m-16.3-46.546s-.874 26.132-29.254 37.09M8.475 107.896a187.4 187.4 0 0161.519-10.3 187.361 187.361 0 0161.528 10.3M62.989 96.192V72.567h14.006v23.625m24.67-60.168v63.109M38.318 36.024v63.109m-8.321-54.2L69.991 1.645l39.995 42.218" stroke="#fff" stroke-linecap="round" stroke-width="1.278" fill="none"/></g></svg>