<svg xmlns="http://www.w3.org/2000/svg" viewBox="0 0 1248.962 460.822">
  <g class="counties" transform="translate(-151.476 -222.608)">
    <g class="counties__inactive" transform="translate(151.737 222.869)">
      <path class="a" d="M340.861,259.293c-1.436-.3-2.261-1.688-3.9-1.688-1.615,0-2.9,1.425-4.43,1.712-3.824.725-8.444-1.936-12.155-.219-3.467,1.6-7.281,4.693-10.905,5.577-3.384,0-2.164,15.178-1.555,17.786,1.223,5.244-1.785,10.107.73,15.511a160.649,160.649,0,0,0,19.041-3.511c8.433-2.3,6.927,2.18,11.1,7.408l.087.076c5.69-7.157,9.125-11.687,11.827-20.277q2.26-7.177,4.519-14.354c.76-2.421-2.477-7.835-3.335-10.248C348.122,257.424,344.926,260.137,340.861,259.293Z" transform="translate(113.263 -164.574)" />
      <path class="a" d="M304.106,289.246c4,1,5.937,3.283,9.331,5.25,1.515.879,3.749.441,4.676,2.291.9,1.807.343,2.726,2.556,3.778,3.643,1.731,4.36,4.154,7.275,6.494,3.624-.884,7.438-3.973,10.905-5.577,3.711-1.717,8.33.944,12.155.219,1.528-.287,2.816-1.712,4.43-1.712,1.636,0,2.461,1.39,3.9,1.688,4.065.844,7.262-1.869,11.027-2.226,6.307-4.471,12.514-3.037,20.2-2.945.3-10.218.276-20.447.357-30.671-1.571-4.99,2.44-11.854-.033-16.533-2.807-5.315-9.18-6.7-11.465-12.236-3.127,1.117-3.933,9.761-9.217,5.036-1.742-1.558-1.406-4.49-3.013-6.24-.93-1.014-6.075-3.981-7.446-3.63-1,.254-1.653,1.309-2.445,1.566-1.474.479-1.406-1.569-2.878.135-.676.779-3.135-.565-4.979.241-3.97,1.731-5.869,7.286-9.888,9.374-5.139,3.884-8.311-.976-13.639.549-6.15,1.761-3.575,4.849-2.634,10.015.17.936-1.463,4.476-2.788,4.422-1.509-.06-2.918-2.188-4.509-1.512-.587.249-.508,2.042-.649,2.545-.322,1.163-1.966.849-2.745,1.607-2.134,2.069-2.6,3.992-5.869,4.474,2.78,6.724,3.513,6.859-.774,12.666-2.872,3.887-5.428,5.515-9.585,8.092,1.168.495,2.334,1.923,3.37,2.3C301.15,289.232,302.578,288.867,304.106,289.246Z" transform="translate(94.792 -206.957)" />
      <path class="a" d="M376.37,316.535c1.16-3.719,4.76-7.5,5-11.473.17-2.813-6.691-10.559-8.814-12.347-2.729-2.3-8.263-1.669-10.169-3.887-1.6-1.863-1.044-4.336-2.467-6.426-.855-1.258-3.292-2.832-4.6-3.635l-.013.019-.073-.095c-4.173-5.228-2.667-9.712-11.1-7.408a160.651,160.651,0,0,1-19.041,3.511c-3.221.906-3.905,5.125-6.786,6.67-2.607,5.474-4.6,9.8-9.069,14.389-4.941,5.074-8.733,11.652-11.689,18.024l40.129,1.4C350.381,315.718,363.712,317.317,376.37,316.535Z" transform="translate(96.819 -141.397)" />
      <path class="a" d="M453.111,288.992c-.936-2.291-4.774-4.914-6.986-5.637-6.05-1.974-6.3,1.872-9.75,5.182-.876.841-8.049,9.277-7.127,4.246-3.64-.779-3.419,4.614-7.175,5.185-2.288.346-.855-1.644-2.134-2.091-1.139-.4-3.284.828-4.26,1.271,3.835,2.386-2.991,2.05-3.63,4.549l.033.122h-.016c2.3,3.87-4.471,5.4-.93,8.7,1.049.979,3.145,1.636,3.413,3.1.441,2.418-.257,4.046,2.3,4.92,4.974,1.7,4.728,6.553,6.551,10.608,1.417,3.159,8.755,6.269,11.852,7.595,9.745-12.011,19.465-24.039,29.332-35.947-1.939-2.131-4.665-2.875-7.054-4.333C454.357,294.523,454.422,292.205,453.111,288.992Z" transform="translate(288.656 -120.68)" />
      <path class="a" d="M287.392,284.847c6.177.389,6.375,5.8,10.727,9.55,5.05,4.352,12.087,5.834,16.463,11.116,3.375,4.073,3.108,4.712,8.76,4.528,2.718-.084,5.655-.446,8.371-.63,2.034-.141,4.33,2.047,5.458,3.586,1.087,1.485,4.7.979,6.25.511,2.88-1.544,3.565-5.764,6.786-6.67-2.515-5.4.492-10.267-.73-15.511-.609-2.607-1.828-17.783,1.555-17.786-2.916-2.339-3.632-4.763-7.276-6.494-2.212-1.052-1.652-1.972-2.556-3.778-.928-1.85-3.162-1.412-4.676-2.291-3.394-1.966-5.331-4.252-9.331-5.25-1.528-.379-2.956-.014-4.376-.536-1.036-.381-2.2-1.809-3.37-2.3-5.158-.124-11.416-1.417-16.409-.9l-20.222,2.082c2.2,1.623,11.294,6.4,9.82,8.858q-4.673,7.773-9.35,15.546C285.813,279.7,288.558,281.775,287.392,284.847Z" transform="translate(71.704 -173.441)" />
      <path class="a" d="M301.867,289.554c-2.732-2.215-.957-3.922,1.834-5.158,3.732-1.65,5.177-.552,7.143-4.26,3.321-6.259-2.077-12.268-4.373-18.108-7.3,3.213,5,8.9-6.607,8.306.26,1.59.947,3,.222,4.741-.968,2.323-4.5,1.15-5.826,3.148-2.77,4.16-12.079-.641-12.815,6.789-3.738,3.159-4.33,2.769-5.623,7.313-.82,2.872-2.31,4.736-4.376,6.91-2.691,2.832-8.384,6.956-12.544,6.242-1.634,3.3-1.057,5.609-.755,9.18.344,4.092,4.706,3.932.652,7.732-4.879,4.571,12.985,9.02,15.349,11.749,3.381,2.986,9.266,1.239,13.258.59,2.488-.4,5.715-.022,7.787-1.709,1.58-1.288,3.045-2.691,4.146-.26,2.066,4.565,11.871,1.761,15.76,1.271.966-.122,5.49-.013,5.647-1.766.219-2.453.684-5.066,3.313-5.842-2.015-7.067-3.87-14.2-6.1-21.2C315.753,298.331,307.471,294.1,301.867,289.554Z" transform="translate(29.055 -156.116)" />
      <path class="a" d="M359.153,300.365c-1.55.468-5.163.974-6.25-.511-1.128-1.539-3.424-3.727-5.458-3.586-2.715.184-5.653.546-8.371.63-5.653.184-5.385-.454-8.76-4.528-4.376-5.282-11.414-6.764-16.463-11.116-4.352-3.751-4.549-9.161-10.727-9.55,1.166-3.072-1.579-5.144-4.106-6.375-4.457-1.6-7.016-.9-10.359-4.341-4.062-4.179-7.595,1.926-9.106,5.223,2.3,5.839,7.695,11.849,4.373,18.108-1.966,3.708-3.411,2.61-7.143,4.26-2.791,1.236-4.566,2.943-1.834,5.158,5.6,4.544,13.886,8.777,16.087,15.671,2.234,7,4.089,14.132,6.1,21.2a22.428,22.428,0,0,0,6.3-1.377c1.717-.641,2.056-3.53,3.762-3.164,1.258.268,6.042.325,6.348,1.247.692,2.077-.078,3.543,2.166,4.768,3.965,2.486,6.359,1.739,10.783,1.342,3.8-.344,8.073,1.282,11.9-.644,2.956-6.372,6.748-12.95,11.689-18.024C354.552,310.164,356.545,305.839,359.153,300.365Z" transform="translate(55.973 -160.298)" />
      <path class="a" d="M311.508,307.708c4.054-3.8-.308-3.64-.652-7.733-.3-3.57-.879-5.88.755-9.18,2.018-5.512-7.473-6.237-8.863-11.089-.725-2.534,1.263-4.947-.514-7.127-1.617-1.988-6.31-2.437-8.436-1.393-5.542,2.039-11.643,2.169-17.02,4.625-6.77,3.086-13.369,6.562-20.025,9.875-1.977.984-4.571,1.3-6.775,2.323-2.342,1.09-4.409,1.966-6.735,3.221-3.256,1.758-6.075,1.58-9.528.692-2.542-.652-4.831,1.634-6.84,2.889.8,1.62,3.676,12.366,6.621,10,1.977-1.59,3.8-.682,4.552,1.818.806,2.672,3.943,3.562,4.241,6.348.633,5.907-2.94,10-3.227,15.535s4.73,5.877,7.146,9.618c1.818-3.183,6.3-4.923,9.585-6.039,3.511-1.2,7.3,2.745,11.105,2.932,1.2.06,3.74-.633,4.6-.427,1.26.3.833,1.931,2.253,2.007,4.609.254,2.093-3.016,7.07-2.832,3.905.143,7.254-1.6,10.556-3.535,3.1-1.815,5.764,2.515,8.111.154,1.1-1.112-2.288-2.726.928-3.548,1.6-.411,3.048-1.539,4.63-1.809,3.116-.533,6.908,3.9,9.488,5.385,3.208-.124,5.3-3.949,4.812-6.9-.576-3.465,5.106-3.329,7.511-4.057C324.493,316.729,306.629,312.279,311.508,307.708Z" transform="translate(-23.654 -141.433)" />
      <path class="a" d="M400.765,313c14.11.027,28.607,1.039,42.657,0-1.049-1.514-.976-3.413-1.228-5.225-.768-2.023-2.837-4.484-3.348-6.213-.652-2.21.425-6.126.582-8.4.354-5.158.809-10.353.936-15.525.265-10.559.5-21.372.114-31.955l-38.216-1.8-.046,1.688q-.454,29.161-1.049,58.315C401.114,306.93,400.941,309.956,400.765,313Z" transform="translate(272.764 -187.044)" />
      <path class="a" d="M471.225,292.513c1.4,1.974,1.6,4.779,3.305,6.145,2.245,1.8,4.9,2.107,6.908,4.368,1.588,1.785.952,1.55,3.192,2.837,3.786,2.18,8.587,6.451,9.152,12.109l.033.135c10.416-21.843,21.11-43.929,34.792-63.956-3.613-6.442-15.27.771-17.3-6.372-.7-2.456-8.663-1.6-10.713-1.755-4.749-.354-9.791-2.069-14.467-3-1.544,2.537-3.63,5.228-6.5,6.134-4.214,1.333-3.686-1.076-5.434,4.252-2.461,7.505-7.191,7.66-13.964,4.162-1.406,4.054-3.394,8.046-5.05,12.041-2.266,5.461-2.542,9.093-2.718,15.062,3.908,1.9,8.152,3.381,12.19,4.982C466.5,290.39,470.105,290.931,471.225,292.513Z" transform="translate(360.89 -188.512)" />
      <path class="a" d="M376.37,289.3c-12.658.782-25.989-.817-38.693-1.258l-40.129-1.4c1.809,1.106,2.959,2.829,2.018,4.806-1.374,2.883.419,4.346,1.955,7.1,2.415,4.322,4.7,8.723,7.029,13.088q19.745.767,39.493,1.528c9.68.373,19.617,1.728,29.261,1.206.23-2.845.227-5.666.6-8.493.519-3.919-2.131-6.716-1.523-10.286C376.286,293.4,375.386,291.444,376.37,289.3Z" transform="translate(96.819 -114.161)" />
      <path class="a" d="M359.609,257.192c.087,3.053-.438,5.412-.379,8.39.06,3.127-5.666,2.323-7.535,4.279-2.315,2.429-1.953,6.624-.135,9.4.011,0,.013,0,.011.019,1.607,3.749,2.77-.6,4.544-.173,1.588.373,1.758,2.567,3.037,3.989,1.29,1.439,3.665,1.872,4.487,3.765,1,2.3.346,4.108,3.07,5.718a88.608,88.608,0,0,0,9.25-2.786l-.622-1.874q6.008.175,12.017.352c1.612.046,3.224.022,4.836.022,1.531,0-.081-4.438.779-5.25,1.312-1.233,10.435-.254,12.433-.054a72.9,72.9,0,0,1,11.722,2.626c.611-13.758,1.258-27.514,1.717-41.278l-60.159-1.152a5.3,5.3,0,0,1-1,3.511C361.137,248.767,359.5,253.527,359.609,257.192Z" transform="translate(186.359 -188.243)" />
      <path class="a" d="M374.635,300.048c23.7,1.4,47.388,2.761,71.072,4.311q.617-29.157,1.049-58.315l-69.78-2.437c-.46,13.764-1.106,27.52-1.717,41.278Z" transform="translate(228.222 -187.517)" />
      <path class="a" d="M357.662,280.73l26.094.289c-1.818-2.775-2.18-6.97.135-9.4,1.869-1.956,7.595-1.152,7.535-4.279-.06-2.978.465-5.336.379-8.39-.105-3.665,1.528-8.425-1.931-10.5-2.6-3.4-6.445-1.579-10.088-2.531-3.895-1.02-.885-3.938-5.561-3.765-1.285.049-1.98,1.382-3.416,1.206a21.07,21.07,0,0,0-2.41-.671c-1.658.073-1.8-.441-3.638.776-1.615,1.071-1.89,4.092-4.338,3.362-3.194-.949-3.513-2.775-7.327-1.885-2.277.53-4.776-1.747-6.973-.671-2.231,1.09-3.124,2.337-6.118,3.081-2.486.617-5.918,1.915-8.422,2.02l-.038-.495c-.081,10.224-.06,20.453-.357,30.671C340.022,279.816,348.837,280.273,357.662,280.73Z" transform="translate(154.163 -190.003)" />
      <path class="a" d="M449.908,277.856l20.314.373c1.9-17.372,1.014-35.382,1.5-52.857-16.325-.124-32.645-.222-48.97-.149h-.062l-2.069,52.632Z" transform="translate(306.613 -218.898)" />
      <path class="a" d="M541.632,257.494c-1.366-.078-2.653-3.473-4.143-2.372-2.248,1.658-3.822.051-5.812.549-.1.024-1.047-.587-1.409-.562-1.258.087.557,1.95-.446,2.009-1.993.119-4.46-1.163-6.8-1.133a9.953,9.953,0,0,1-5.7-1.785c-3.348-2.074-3.029-4.338-6.832-6.51-.319,3.933-1.639-.479-2.7.322-1.136.855-.149,1.85-1.093,2.556-.965.725-3.559-2.726-4.151-3.429-13.683,20.028-24.377,42.114-34.792,63.956.749,3.281.168,8.89,2.9,11.008.874.679,2.694-.206,2.342,1.607-.319,1.639,3.037,2.591,4.211,2.68l.1.057c2.572-2.713,7.01-3.8,10.321-5.242q10.272-4.471,20.542-8.947c3.727-1.623,7.457-3.232,11.162-4.9,1.707-.765,2-.525,3.5-.765,3.294-.53,1.874,2.145,4.644-1.9,2.65-9.18,6.3-18.145,9.472-27.16,1.271-3.619,3.757-6.962,5.185-10.578,1.5-3.805,2.2-7.833,3.689-11.57C543.144,254.844,543.3,257.586,541.632,257.494Z" transform="translate(386.952 -181.499)" />
      <path class="a" d="M370.459,332.694c-.717-3.548-3.5-11.056-2.58-14.353,2.623-9.444,5.593-18.811,8.4-28.215l2.321-32.786c-8.825-.457-17.64-.914-26.473-1.179-7.687-.092-13.894-1.526-20.2,2.945.857,2.413,4.095,7.827,3.335,10.248q-2.26,7.173-4.519,14.353c-2.7,8.59-6.137,13.12-11.827,20.277,1.3.8,3.74,2.377,4.6,3.635,1.423,2.091.863,4.563,2.467,6.426,1.907,2.218,7.44,1.588,10.169,3.887,2.123,1.788,8.985,9.534,8.814,12.347-.235,3.973-3.835,7.754-5,11.473-.984,2.145-.084,4.1.013,6.288,8.6-.644,17.472.295,26.189.295l7.143-.054C372.369,343.085,371.5,337.871,370.459,332.694Z" transform="translate(133.23 -166.613)" />
      <path class="a" d="M517.608,286.08c-1.174-.089-4.53-1.041-4.211-2.68.352-1.812-1.469-.928-2.342-1.607-2.737-2.118-2.155-7.727-2.9-11.008l-.078.16q-8.593,5.749-17.188,11.495c-4.146,2.772-10.948,5.6-14.448,8.871q-15.8,14.767-31.6,29.537a1.546,1.546,0,0,0-.782.939c4.552.035,13.656,11.746,14.194,15.957.863,6.708,10.889,10.608,9.758,17.659q3.12,4.592,6.237,9.185c.925,1.363,7.357,1.431,9,1.707,5.3.893,11.973-3.132,16.977-4.866,1.439-1.939,3.373-5.485,5.912-6.294,3.026-.96,4.108,1.655,6.591-1.839,1.877-2.642,3.029-1.114,5.877-1.937,3.713-1.074,3.081-3.281,4.041-6.415.752-2.459-.227-5.442.595-8.3a70.333,70.333,0,0,1,3.343-7.943c2.613-6.1,4.9-12.577,8.195-18.356-2.037-.63-6.945-1.117-8.392-2.6-1.79-1.836-2.607-6.97-3.5-9.355-1.571-4.2-.706-10.2-5.171-12.257l-.122.1Z" transform="translate(346.554 -141.19)" />
      <path class="a" d="M438.78,297.983c.008,6.615,1.536,8.7,8.639,8.6,6.075.062,8.447-.165,14.172,2.264q7.132,3.018,14.2,6.172c.176-5.969.452-9.6,2.718-15.062,1.655-3.995,3.643-7.987,5.05-12.041a2.831,2.831,0,0,0-3.189-.246q.053-19.538.108-39.082c.011-3.5-1.7-9.877.438-13.031,1.536-2.269,1.5-3.559,3.865-5.482,1.858-1.509,3.97-1.517,3.429-4.8-15.817-.146-31.625.06-47.437.051-.487,17.475.4,35.485-1.5,52.857C439.624,284.706,438.772,291.424,438.78,297.983Z" transform="translate(337.566 -218.854)" />
            <path class="a" d="M458.9,230.269c-2.364,1.923-2.329,3.213-3.865,5.482-2.134,3.154-.427,9.534-.438,13.031q-.053,19.542-.108,39.082a2.831,2.831,0,0,1,3.189.246c6.772,3.5,11.5,3.343,13.964-4.162,1.747-5.328,1.22-2.918,5.434-4.252,2.867-.906,4.952-3.6,6.5-6.134,2.28-3.773,3.741-4.66,3.2-9.082s-1.128-8.871-1.728-13.285c-1.152-8.493-1.163-17.87-3.465-26.086-6.418.043-12.836.338-19.252.365C462.87,228.752,460.758,228.76,458.9,230.269Z" transform="translate(363.444 -219.051)" />
      <path class="a" d="M469.366,264.632c.538,4.422-.922,5.309-3.2,9.082,4.676.93,9.718,2.645,14.467,3,2.05.154,10.015-.7,10.713,1.755,2.031,7.143,13.688-.07,17.3,6.372,4.706-8.823,7.933-16.036,10.545-25.61,1.393-5.1,1.369-10.819,1.937-16.068.354-3.275-1.49-9.972,1.912-11.295l-.019,0,.492-.314a53.609,53.609,0,0,0,.373-6.532c-19.9.095-39.812,0-59.713.241,2.3,8.217,2.312,17.594,3.465,26.086C468.238,255.761,468.825,260.2,469.366,264.632Z" transform="translate(380.852 -219.202)" />
      <path class="a" d="M486.411,231.693l-.473.316c6.494.16,12.282,2.6,18.286,4.452,5.591,1.723,11.043-.714,16.439.709,3.962,1.047,1.712,4.13,4.5,6.3,1.807,1.4,3.175,1.039,4.525,3.091.906,1.379,2.669.076,3.824.884,5.634,3.957-1.612,9.715-1.885,14.145-.592,9.572,11.781,3.064,15.254,2.6,5.088-.684,6.948,4.4,7.76,8.49.682,3.443,5.677,2.269,5.994,5.3.26,2.5-3.473,3.705-.8,6.039,2.166,1.9,5.033,1.658,6.986,2.88,1.882,1.179,2.653,4.628,5.239,3.768-.292-1.807-2.615-8.685.576-9.085,5.88-.738,7,1.531,10.01-4.352,2.61-7.105,5.528-14.086,7.749-21.3.974-3.159,2.4-6.134,3.189-9.363.847-3.435-.2-4.974,1.542-8.449,2.659,2.11,4.763.876,7.021-.227,1.62-.8-.205-4.319-1.339-5.68-.982-1.177-6.031-1.666-7.624-2.372a7.7,7.7,0,0,1-3.992-4.906c-34.133.4-68.265.1-102.4.225A53.621,53.621,0,0,1,486.411,231.693Z" transform="translate(417.953 -219.344)" />
      <path class="a" d="M487.835,313.013c-.822,2.853.157,5.837-.6,8.3-.96,3.135-.327,5.342-4.041,6.415-2.848.822-4-.706-5.877,1.937-2.483,3.494-3.565.879-6.591,1.839-2.54.809-4.473,4.355-5.912,6.294,2.031,2.71,5.028,9.109,8.217,10.25,2.959,1.058,12.636,2.556,12.477,6.25,4.422.836,8.874,2.6,13.19,1.147,4.157-1.4,6.829-1.934,10.827.087,3.224,1.631,2.913,1.074,6.04,1.285,3.913.268,4.692,2.239,7.746,4.273,1.017-4.249,5.617-2.548,8.2-4.968q.32-9.514.641-19.024c.2-6-.4-9.128,3.778-13.6.171-4.674.665-5.728-2.621-8.939-1.7-1.655-.8-5.585-.763-7.9.1-6.145.684-12.5.392-18.6l-.022-1.5c-6.3.17-12.585.595-18.875.955-5.7.325-8.514-.722-13.937-2.856l-.738,2.064c-3.3,5.78-5.582,12.257-8.2,18.356A70.351,70.351,0,0,0,487.835,313.013Z" transform="translate(381.953 -117.555)" />
      <path class="a" d="M407.712,333.119c-.749-6.167,3.373-13.4,5.547-18.927,1.166-2.956-.076-1.5-1.393-3.362-2.188-3.091-2.883-7.743-5.32-10.132-2.372-2.329-3.438-6.237-7.716-4.814-2.372.787-3.137-3.973-3.124-5.693h-.013l-16.039,1.65c-4.07,7.879-9.631,14.919-13.518,22.868-4.785,9.791-8.8,20.442-15.322,29.2-1.39,2.826,3.508,1.1,4.119,3.213.9,3.132,6.01,1.671,7.8.481a5.535,5.535,0,0,0,4.833-.576c2.331-1.606,2.234.46,4.363.63,4.465.357,6.851-4.014,10.921-4.671l.062-.149-.016.135c4.092-6.594,3.44,6.451,7.738,6.856,1.6.151,2.415-2.442,3.484-1.983,1.049.449,1.02,3.54,3.17,3.294,2.623-.3.314-2.115,1.239-3.576.809-1.274,3.549-.63,4.79-1.085,1-.368,1.836-4.379,3.478-.295,1.022,2.532,2.651,2.229,3.8,4.419l.646-.7C417.679,347.029,408.14,336.64,407.712,333.119Z" transform="translate(187.196 -108.11)" />
      <path class="a" d="M441.039,343.373c-.582-3.281-.993-6.169-3.4-8.674-3.048-3.164-4.882-3.3-4.051-8.276a11.871,11.871,0,0,0-.436-6.134c-2.864-9.307-6.678-20.152-6.875-30.108-14.026.284-28.071-.006-42.1-.054-5.634.046-11.292-.073-16.917.173-.013,1.72.752,6.48,3.124,5.693,4.279-1.423,5.344,2.486,7.716,4.814,2.437,2.388,3.132,7.04,5.32,10.132,1.317,1.863,2.559.406,1.393,3.362-2.175,5.528-6.3,12.76-5.547,18.927.427,3.521,9.967,13.91,3.527,16.793.619,6.791,12.1.176,15.227-.046,3.451-.243,7.167-.235,10.5-1.279,2.321-.728,3.776-2.329,6.345-2.315,6.391.032,12.133,1.076,18.5.07,5.087-.8,9.869,4.7,14.291,2.843l-.04-.086C446.573,346.486,441.394,345.388,441.039,343.373Z" transform="translate(215.645 -108.219)" />
      <path class="a" d="M403.984,292.1l-60.316-2.064-7.143.054c-1.471,5.415,4.62,10.2,4.108,15.563-.241,2.523-3.854,1.149-.078,4.711l7.668,7.232c3.259,3.075,1.9,11.96,5.85,13.886,5.7,2.78,10.6,6.11,15.957,9.5,1.62,1.182,3.175,2.775,5.114,3.189,6.526-8.763,10.537-19.414,15.322-29.2C394.353,307.02,399.913,299.98,403.984,292.1Z" transform="translate(162.867 -108.371)" />
      <path class="a" d="M473.328,305.944c-1.861.53-6.521.446-8.657.246-3.532-.33-4.776.395-7.53,2.172-8.409,5.425-21.318,5.923-32.277,9.052l-.157,2.3c-2.694,6.521-.56,13.677-.043,20.379.452,5.834,6.1,12.079,8.9,17.285,4.452,2.591,9.9,6.064,13.242,10.075,1.893,2.269,2.061,13.172,6.158,10.6,9.3-2.285,18.113-2.724,27.7-2.691,4.933.019,9.845.038,14.773.224,3.819.143,10.245,1.872,13.369-1.125-1.16-1.125-1.542-2.686-2.38-3.751-.96-1.22-2.423-1.928-3.394-3.1-.844-1.025-.1-2.5-1.3-3.413a77.352,77.352,0,0,1-6.11-4.906c-5.928-5.52-9.853-12.739-9.953-20.907-.024-2.069-.665-1.855.257-3.989.508-1.179,3.029-3.129,1.939-3.751-.595-.341,1.185-5.182,1.453-6.175a17.037,17.037,0,0,0,.546-4c-.087-1.136-1.377-2.139-1.382-3.43,0-.395,1.268-.111,1.293-.268.481-3.337,1.88-5.1,3.059-8.411C487.1,307.448,479.026,304.319,473.328,305.944Z" transform="translate(311.302 -82.041)" />
      <path class="a" d="M456.793,313.167c-4.138,1.882-6.261.487-9.485-1.055-3.822-1.826-7.984-3.724-11.787-2.266a46.991,46.991,0,0,0-16.333,11.627c-1.972,2.3-4.127,4.3-6.018,6.683-2.072,2.61-5.041,8.36-8.62,9.128,1.842,2.675,5.623,3.773,7.925,6.148a49.84,49.84,0,0,1,6.334,7.873c1.628,2.588.882,6.681,1.552,9.6.763,3.308,2.851,6.28.99,9.683l12.5.449c2.042.073,9.753,1.6,11.276.092q10.264-10.147,20.523-20.3c-2.8-5.206-8.452-11.451-8.9-17.285C456.233,326.844,454.1,319.687,456.793,313.167Z" transform="translate(279.216 -75.489)" />
      <path class="a" d="M439.544,361.629c1.891-2.38,4.046-4.384,6.018-6.683a46.99,46.99,0,0,1,16.333-11.627c3.8-1.458,7.965.441,11.787,2.266,3.224,1.542,5.347,2.937,9.485,1.055l.157-2.3c-2.145-2.41-4.866-2.183-7.21-3.884-2.683-1.945-3.957-4.617-7.167-6.353-5.9-3.186,2.748-5.455,2.12-9.074-3.1-1.325-10.434-4.436-11.852-7.595-1.823-4.054-1.577-8.906-6.551-10.608-2.559-.874-1.861-2.5-2.3-4.92-.268-1.466-2.364-2.123-3.413-3.1-3.54-3.3,3.227-4.828.93-8.7l-29.291-.411-29.51,1.233c.2,9.956,4.011,20.8,6.875,30.108a11.87,11.87,0,0,1,.435,6.134c-.83,4.977,1,5.112,4.051,8.276,2.41,2.5,2.821,5.393,3.4,8.674.354,2.015,5.534,3.113,6.578,5.834l.108.065-.068.022c1.3,1.98,4.19,3.9,4.868,6.221.8,2.745-2.356,6.594.143,8.744,2.342,2.015,6.589,1.176,9.539,1.479,2.6.265,4.273,2.361,5.9,4.26l.013.016C434.5,369.989,437.472,364.239,439.544,361.629Z" transform="translate(252.842 -108.962)" />
      <path class="a" d="M502.927,312.488c-.538-4.211-9.642-15.922-14.194-15.957a1.546,1.546,0,0,1,.782-.938q-15.266-5.083-30.581-9.991l-7.568,10.448C441.5,307.957,431.779,319.985,422.034,332c.627,3.619-8.022,5.888-2.12,9.074,3.211,1.736,4.484,4.409,7.167,6.353,2.345,1.7,5.066,1.474,7.211,3.884,10.959-3.129,23.868-3.627,32.277-9.052,2.753-1.777,4-2.5,7.53-2.172,2.137.2,6.8.284,8.658-.246,5.7-1.625,13.772,1.5,19.506,2.418a35.572,35.572,0,0,1,10.424-12.109C513.816,323.1,503.789,319.2,502.927,312.488Z" transform="translate(301.875 -115.934)" />
      <path class="a" d="M575.887,282.442c-1.953-1.222-4.819-.984-6.986-2.88-2.669-2.334,1.063-3.538.8-6.039-.316-3.035-5.312-1.861-5.994-5.3-.811-4.089-2.672-9.174-7.76-8.49-3.473.465-15.846,6.973-15.254-2.6.273-4.43,7.519-10.188,1.885-14.145-1.155-.809-2.918.495-3.824-.884-1.35-2.053-2.718-1.688-4.525-3.091-2.786-2.166-.536-5.25-4.5-6.3-5.4-1.423-10.848,1.014-16.439-.709-6-1.85-11.792-4.292-18.286-4.452-3.4,1.322-1.558,8.019-1.912,11.294-.568,5.25-.544,10.965-1.936,16.068-2.613,9.574-5.839,16.788-10.545,25.61.592.7,3.186,4.154,4.151,3.43.944-.706-.043-1.7,1.093-2.556,1.06-.8,2.38,3.611,2.7-.322,3.8,2.172,3.483,4.436,6.832,6.51a9.953,9.953,0,0,0,5.7,1.785c2.342-.03,4.809,1.252,6.8,1.133,1-.06-.811-1.923.446-2.009.362-.024,1.312.587,1.409.562,1.991-.5,3.565,1.109,5.812-.549,1.49-1.1,2.777,2.294,4.143,2.372,1.663.092,1.512-2.65,4.192-2.11,6.845.289,8.977,6.856,15.049,8.912,2.11.717,6.153-.1,7.622,1.942,1.079,1.5-.33,2.88-.122,3.924.306,1.539,1.415,2.491,1.5,4.019,3.489.235,7.714.141,10.781,2.169,2.564,1.7,3.013,5.355,6.651,4.633,3.386-4.117,6.589-8.893,10.443-12.506.79-2.851,5.082-4.555,7.908-4.555.949,0,4.049.162,4.709-.671,1.206-1.525-.987-1.006-.9-2.264a9.822,9.822,0,0,0-1.864-3.738c-1.631-.809-.173-2.564-1.328-3.319a10.361,10.361,0,0,0-3.21-1.109C578.54,287.07,577.769,283.622,575.887,282.442Z" transform="translate(408.881 -214.886)" />
      <path class="a" d="M592.891,230.521c.238.484-.684,4.014-.8,4.217-1.506,2.588,4.879,8.95,1.293,8.279a10.892,10.892,0,0,0,.649,3.616c1.49-1.387.684.111,1.249.8l1.382-.373a3.411,3.411,0,0,0,.514,3.267c-1.009.233-2.521,1.228-.479,1.3,1.5.051.587,3.221,1.1,4.206,1.666,3.232,2.283,7.484,2.724,11.116.343,2.845.3,2.4,1.974,5.1a30.6,30.6,0,0,1,2.142,5.2c.165,2.3-2.556,2.229,1.231,3.494a13.473,13.473,0,0,1,1.5-.5,187.091,187.091,0,0,1-8.2-27.252c-1.945-8.676-5.939-19.508-4.568-28.461l-3.227.032C590,227.192,591.831,228.365,592.891,230.521Z" transform="translate(596.838 -220.032)" />
      <path class="a" d="M601.254,265.225a8.765,8.765,0,0,1-1.3-2.813c-1.663,1.891,2.12,7.432,2.12,10.388,0,1.039-.138,3.527,1.539,2.564-.43.246,3.075-.281,2.321-.441,4.411.93,2.67,5.48,3.684,8.866.99,3.3,3.283,4.417,5.626,6.48,4.692,4.133,5.9,10.77,6.989,16.233.719,3.621,1.871,3.911,3.413,6.564.8,1.374-1.385,2.242,1.1,3.186a1.631,1.631,0,0,0,.825,1.983c.192-.579.387-1.16.582-1.739.346.655,3.808,4.652,2.907,1.044-.892-3.567-2.6-6.748-3.924-10.161-2.807-7.221-6.64-13.832-9.831-20.877-3.137-6.921-7.889-12.961-11.051-19.83a204.691,204.691,0,0,1-8.368-21.54l-1.447.59C598.4,249.706,602.174,261.216,601.254,265.225Z" transform="translate(606.313 -184.919)" />
      <path class="a" d="M491.3,382.375c-.043-4.468-4.725.909-4.452,4.473.149,1.958.63,5.371.146,7.219-.3,1.144-4.776,3.949-.335,3.308-.208,2.7-2.745,3.827-3.127,6.51l.224.8A22.184,22.184,0,0,0,489.52,393.3c.4-2.1.233-4.349.849-6.4.646-2.148,2.943-3.716,1.874-6.08A6.4,6.4,0,0,0,491.3,382.375Z" transform="translate(413.86 46.139)" />
      <path class="a" d="M499.879,371.119c3.54-1.555,6.3-5.171,9-7.846a56.932,56.932,0,0,1,7.844-6l-.985-.844C512.247,357.642,500.39,367.871,499.879,371.119Z" transform="translate(441.717 4.803)" />
      <path class="a" d="M489.569,379.322a6.253,6.253,0,0,0,1.138.7,4.473,4.473,0,0,0-1.406.7c1.55,1.874-1.079,6.5-1.877,8.974l.514.641c3.162-5.455,3.4-11.925,7.568-17.009C493.574,372.736,491.646,378.3,489.569,379.322Z" transform="translate(420.486 33.522)" />
      <path class="a" d="M592.684,329.947c-2.788,2.9-5.439,6.129-8.39,8.836-1.785,1.634-2.559,3.835-5.112,5.812-1.809-2.08-1.244,7.108-5.918,4.741.5.757,1.5,1.834.749,2.545-1.141,1.085-1.009,1.915-2.31,3.429a22.876,22.876,0,0,0-3.527,4.5c-2.318.187-2.266,4.538-4.441,3.321-.016.3-.222.925-.582,1.044.876.308-2.986,11.046-6.072,9.564a1.62,1.62,0,0,1-.982,1.206c3.089,2.759.508,5.883,2.945,1.5a131.815,131.815,0,0,1,6.648-11.492c4.782-6.87,10.04-13.7,15.3-20.19,2.407-2.97,4.833-5.966,7.492-8.7,1.044-1.071,4.579-3.662,5.112-5.05C593.974,330.041,594.131,328.443,592.684,329.947Z" transform="translate(537.555 -41.392)" />
      <path class="a" d="M578.963,341.276c.2-1.25-1.769-.847-2.437-.571-3,1.244-3.913-.471-6.713-.511-2.3-.032-4.884,1.3-7.186,1.742-6.229,1.2-12.3,2.169-18.529,3.535-4.757,1.041-14.148.657-16.5,5.653,2.153.787,8.815-2.77,11.435-3.53a101.015,101.015,0,0,1,17.072-3.181c5.617-.606,11.292-.7,16.9-1.128,4.33-.33,8.893.192,13.123-.868-1.615-.955-3.194-.819-4.933-1.179C580.808,341.157,578.779,342.442,578.963,341.276Z" transform="translate(488.975 -22.873)" />
      <path class="a" d="M568.169,348.612c-2.294-1.217-14.3-9.583-16.9-6.429,3.467,1.663,7,2.3,10.288,4.422C563.5,347.852,567.785,353.342,568.169,348.612Z" transform="translate(529.325 -20.686)" />
      <path class="a" d="M528.576,347.374c-4.528,2.77-8.53,7.062-13.082,9.991C518,358.228,528.971,349.881,528.576,347.374Z" transform="translate(468.335 -10.634)" />
      <path class="a" d="M518.437,357.686a25.4,25.4,0,0,0-4.731,2.329,10.843,10.843,0,0,1-2.548,1.23,5.473,5.473,0,0,1,.871.646c-1.918,1.753-4.3,2.2-6.288,3.711l.985.844c7.132-5.828,19.119-7.995,24.769-15.351C529.05,350.462,521.4,356.553,518.437,357.686Z" transform="translate(451.71 -4.369)" />
      <path class="a" d="M357.956,295.12c3.224,1.2,4.833,5.163,8.482,6.323,3.535,1.122,7.005.279,8.219,5.1,1.882-3.145-1.655-4.546-2.594-7.027-.554-1.471.089-2.864-.968-4.9-.422-.811-.933-2.074.073-2.651,1.477-.849,1.928.947,2.591,1.9,1.277,1.839,1.623-1.028,3.091-.792,1.931.314,2.791-3.511,4.119-2.088,2.1,2.245,4.314-.522,2.721-2.524-4.509-5.669-1.8-3.1,1.9-4.99,4.538-2.318,1.928-10.919-1.907-13.447-2.724-1.609-2.074-3.419-3.07-5.718-.822-1.893-3.2-2.326-4.487-3.765-1.279-1.423-1.45-3.616-3.037-3.989-1.774-.422-2.937,3.922-4.544.173,0-.016,0-.022-.011-.019l-26.094-.289L340.119,289.2c2.545.514,5.123.435,7.546,1.314C351.324,291.837,354.243,293.741,357.956,295.12Z" transform="translate(169.385 -165.687)" />
      <path class="a" d="M447.622,268.787c-23.685-1.55-47.377-2.913-71.072-4.311.738,10.9-.909,22.451-1.4,33.364q-.819,18-1.634,36.012c14.029.049,28.074.338,42.1.054l29.51-1.233c.8-18.256,1.447-36.513,2.1-54.777C447.4,274.856,447.57,271.83,447.622,268.787Z" transform="translate(226.308 -151.944)" />
      <path class="a" d="M414.271,276.039l.625-15.162a72.9,72.9,0,0,0-11.722-2.626c-2-.2-11.121-1.179-12.433.054-.86.811.752,5.25-.779,5.25-1.612,0-3.224.024-4.836-.022q-6.012-.178-12.017-.352l.622,1.874a88.6,88.6,0,0,1-9.25,2.786c3.835,2.529,6.445,11.13,1.907,13.447-3.695,1.885-6.407-.679-1.9,4.99,1.593,2-.625,4.768-2.721,2.523-1.328-1.423-2.188,2.4-4.119,2.088-1.469-.235-1.815,2.632-3.091.792-.663-.955-1.114-2.751-2.591-1.9-1.006.576-.5,1.839-.073,2.65,1.058,2.039.414,3.432.968,4.9.939,2.48,4.476,3.881,2.594,7.027-2.064,4.519,10.313,7.059,13.534,6.018,4.079-1.323,5.369.3,5.369,4.1,0,2.264,2.283,4.744,3.416,6.61,1.277,2.11,3.508,3.275,5.766,4.133,2.542.963,1.69,4.822,3.027,6.583.657.865,1.985.828,2.613,1.607,1.425,1.769.552,3.075,1.7,4.66a19.979,19.979,0,0,1,3.432,7.416l.008.1c5.626-.246,11.284-.127,16.917-.173q.816-18,1.634-36.012C413.362,298.49,415.009,286.941,414.271,276.039Z" transform="translate(188.586 -163.507)" />
      <path class="a" d="M415.484,319.591c-1.144-1.585-.27-2.891-1.7-4.66-.627-.779-1.955-.741-2.613-1.606-1.336-1.761-.484-5.62-3.026-6.583-2.258-.857-4.49-2.023-5.766-4.133-1.133-1.866-3.416-4.346-3.416-6.61,0-3.805-1.29-5.425-5.369-4.1-3.221,1.041-15.6-1.5-13.534-6.018-1.214-4.82-4.684-3.976-8.219-5.1-3.649-1.16-5.258-5.125-8.482-6.323-3.713-1.379-6.632-3.283-10.291-4.606-2.423-.879-5-.8-7.546-1.314-2.8,9.4-5.772,18.77-8.4,28.215-.917,3.3,1.864,10.805,2.58,14.353,1.044,5.177,1.909,10.391,2.845,15.587l60.316,2.064,16.039-1.65.005-.1A19.978,19.978,0,0,0,415.484,319.591Z" transform="translate(163.978 -145.024)" />
      <path class="a" d="M597.079,312.965c4.043.16,3.3,1.915,5.131,5.439,4.227-.162.617,6.48,4.555,8.144,1.8.76,5-1.742,5.6-.027.7,2-1.553,2.072-2.724,3.535,1.742.105,6.4.246,7.857-1.366,1.058-1.171-1.525-4.877,2.5-4.877,1.412,0,4.154-1.652,4.238-3.548.043-.939-.949-1.709-1-2.88-.119-2.594-1.829-.022-2.813-1.5-1.185-1.777-.086-3.137-1.82-4.863-.692-.687,1.455-3.311,2.534-3.308,2.786.005.665,2.407,1.739,2.732,7.686,2.323.755-11.6.579-13.821-.273-3.546,5.12-8.614.27-11.96-2.559-1.769-2.215-3.822-1.531-6.962.238-1.076-2.445-4.449-3.092-5.642a33.41,33.41,0,0,0-3.481-4.687c-.273-.33-3.443.216-2.345-1.661.319-.544,1.731-.947.046-1.555-1.877-.676-3.256-2.767-5.393-3.145-2.061-.368,1.233,2.637.338,3.508-.83.8-1.977,2.526-2.734,3.281,2.088-.379,8.09.243,7.119,3.189a8.331,8.331,0,0,1-3.129-.441c-1.9-.784-3.137.571-4.07-.054-1.347-.906-5.966-4.025-5.994-.2-.013,1.75,3.186,1.853,2.734,4.06-.422,2.069,4.579,1.209,5.526,1.244-1.466.717-1.658,2.4-1.65,3.832-1.076-1.16-1.836-1.525-2.97-2.867-.222.373-.771.53-.938,1.125-.441-.13-.506-.411-.693-.83-.541.522-.557.974-1.339.936.062-2.145,1.109-7.167-2.656-4.793,1.726-5.187-5.642-.649-7.145.668-3.584,3.14-.628,6.559-1.247,10.635-.346,2.264-2.326,3.21-2.058,5.783.308,2.951.768,5.339.249,8.306-.763,4.368-1.077,9.918-3.275,13.864C587.972,313.222,592.9,312.8,597.079,312.965Z" transform="translate(585.111 -157.898)" />
      <path class="a" d="M586.324,229.6c.606,1.022,1.709,1.071,2.8,1.312,2.023.444-.525,1.277-.492,1.818.052.86-2.091,4.955.96,5.063.4.016,1.4-2.54,2.321-3.027.208,2.488,1.723,1.818,3.64,2.277,1.5.36.7,1.139,2.212.99.465-.043,1.755-.736,2.185-.83-2.837-1.723.089-9.677-1.942-10.608a5.129,5.129,0,0,0-.268-2.037l-5.861.06c3.846,3.486-.6,4.181-3.067.03l-4.465.046C585.823,226.023,585.3,227.883,586.324,229.6Z" transform="translate(585.712 -219.983)" />
      <path class="a" d="M568.043,225.055q8.5,8.15,16.985,16.3c3.075,2.956,8.479,6,6.5,10.992,4.909.8,6.1,6.981,11.332,8.252,2.045.495,7.37-3.392,6.194,2.275,2.918-1.955,2.553.657,3.481,2.2,2.526-.179,3.34,2.84,5.782-.292.019,2.2,2.818,8.433,3.749,3.8,1.16,1.874-.346,3.208-.993,4.514-1.542,3.121.316,1.231,1.3,3.294.427.9,1.439,1.558,2.22.59,1.493-1.855,1.369,1.442,1.136.9.108.254-.852,1.22-.8,1.552a12.586,12.586,0,0,0,1.274,2.894c.476,1.15,1.79,2.394,2,3.4.2.963,2.845,1.945,3.662,3.146,1.712,2.513.83,3.281.928,6.121.116,3.327.957,4.914,3.319,7.17,2.072,1.982,7.751,7.462,6.213,1.16-.52-2.131.4-4.66-1.831-4.579.452-2.61-2.034-3.419-2.51-5.839-.3-1.544-1.547-2.68-1.877-4.344-.319-1.623.176-3.576-.5-5.139-.473-1.1-1.936-1.653-2.564-2.678-.643-1.049-.246-2.667-.514-3.927a19.3,19.3,0,0,0-1.58-4.947c-1.958-3.2-7.424-12.065-5.509-15.476,1.055-1.88-1.8-13.28-3.916-9.672,2.78.384-.544,1.249-.111,2.545.544,1.642,2.177,2.367,2.275,4.555-2.672-2.864-1.644.671-1.717.776-.335.484,1.055,2.545-.479,2.358-1.29-.16-1.374-2.18-2.109-3.053-.663-.787-5.961-4.528-5.315-6.134.773-1.92,3.543.928,4.733.268-.554-.833-.765-2.659-1.393-3.3-1.041-1.047-1.136.7-2.156.765-2.91.195-5.737-7.4-7.073-9.607-1.366-2.245-6.621,1.131-6.791-2.353-.162-3.348,5.474.8,5.6-2.894,1.141,1.2,1.39.611,2.545,1.017-.728-1.642-1.174-5.361-.2-6.937C595.619,224.265,581.75,224.852,568.043,225.055Z" transform="translate(557.912 -219.992)" />
      <path class="a" d="M629.926,262.682c1.177-5.666-4.149-1.78-6.194-2.275-5.234-1.271-6.424-7.454-11.332-8.252,1.982-4.993-3.421-8.035-6.5-10.992q-8.5-8.15-16.985-16.3c-10.978,0-21.951.049-32.926-.187l-.195,0c2.78,3.1,6.018,5.758,9.036,8.628,5.923,4.162,11.706,7.919,17.7,11.679.879.552.492,1.593,1.382,2.169,1.152.744,3.219.454,4.422,1.179,2.1,1.263,2.669,3.605,4.8,4.768,2.307,1.258,5.325-.476,4.966,3.735-.287,3.389,2.577-.227,3.359.176,1.533.79,1.533,5.471,2.77,6.267,2.145,1.385,4.322-.9,5.377,1.717l.138-.057v.4l-.062-.151c-.533,1.853-4.238,1.382-2.8,3.968.665,1.193,5.636-.1,7.075.468,2.4.949,6.426,4.03,7.219,6.532.527,1.663.963,2.467,2.851,2.724,2.88.395,2.908,2.7,4.241,4.809,2.388,3.784,5.742,5.561,9.931,6.586,1.022.249,10.418,3.689,8.371.03-.208-.371-3.535-1.642-3.838-1.82.671.395-2-1.809-1.474-1.233-1.8-1.955-3.868-4.192-6.607-1.579.284-1.317,1.358-2.3,1.1-3.992,1.174,1.712,4.362,3.273,5.58,1.4,1.739-2.683-1.977-4.114-2.588-5.869,2.058-.343.241-1.444-.1-2.972-.27-1.217,1.747-1.945,2.491-2.732-2.659.216-4.171-1.363-6.562-1.742,5.837-1.233-.692-1.563-1.163-4.876C632.479,263.339,632.844,260.726,629.926,262.682Z" transform="translate(537.037 -219.797)" />
      <path class="a" d="M439.535,277.518c4.62.143,9.409.644,13.994.322l2.069-52.632c-17.191.081-34.37.508-51.556.663h-.03c-.825,16.623-1.674,33.24-2.694,49.852Z" transform="translate(273.707 -218.882)" />
      <path class="a" d="M559.587,245.081c.325-1.834-.993-3.989-.46-5.52-.124.357,1.393-.882,1.7-1.512,1.076-2.218,3.973-4.019,4.176-6.039.049-.5-1.185-2.8-1.317-3.565-.17-.968.766-2.256-.135-3.8-11.768.273-23.538.69-35.309.8a7.7,7.7,0,0,0,3.992,4.906c1.593.706,6.643,1.2,7.624,2.372,1.133,1.36,2.959,4.885,1.339,5.68-2.258,1.1-4.362,2.337-7.021.227-1.739,3.475-.7,5.014-1.542,8.449-.792,3.229-2.215,6.2-3.189,9.363-2.221,7.211-5.139,14.191-7.749,21.3a75.45,75.45,0,0,0,16.433,1.128c5.807-.068,11.592.322,17.028.665,10.778.682,22.056-.955,32.991-.4.281-.611.571-.728.835-.089l1.123-.243c.435-3.538,5.363-4.893,2.6-8.763a46.9,46.9,0,0,0-7.613-8.236c-3.584-2.983-8.125-3.008-12.352-5.106-2.856-1.417-5.972-3.232-9.212-3.732C559.54,252.505,559.027,248.226,559.587,245.081Z" transform="translate(478.9 -219.847)" />
      <path class="a" d="M565.173,246.065c-5.436-.343-11.222-.733-17.028-.665a75.45,75.45,0,0,1-16.433-1.128c-3.01,5.883-4.13,3.613-10.01,4.352-3.192.4-.868,7.278-.576,9.085a10.36,10.36,0,0,1,3.21,1.109c1.155.755-.3,2.51,1.328,3.319a9.82,9.82,0,0,1,1.864,3.738c-.084,1.258,2.11.738.9,2.264-.66.833-3.759.671-4.709.671-2.826,0-7.118,1.7-7.908,4.555.7,3.992,8.812,7.384,12.173,8.785.663.276,3.438.844,3.792,1.285.176.216.492,1.974-.068,1.609.371.241.362,1.617,3.037.641-.5,2.967-1.68,9.252,1.117,10.5,1.076.481,3.089-.614,4.287-.457,1.515.2,2.764,1.68,3.592,1.8a29.382,29.382,0,0,0,5.615-.322c2.072-.365,3.246-3.654,6.461-1.607,2.745,1.745,1.885,6.524,1.25,9.266-.292,1.271-3.14,4.179-.268,4.7a9.106,9.106,0,0,0,4.465-.79c1.317-.646.473-1.274,1.36-1.874,2.913-1.966,7.952-5.985,10.737-2.945,2.342,2.553,2.437,3.63,2.477,6.775.022,1.547-1.617,4.095.289,5.239,4.43,2.653,8.863-5.669,8.382-9.123-.779-5.637,7.586,1.3,8.568,1.728,4.628-.019,4.831-4.7,6.846-7.54,1.731-2.434,4.273-2.821,5.047-6.185-1.961-.8-9.337,3.659-4.355-3.056,1.109-1.49,5.282-3.676,4.879-5.931-.287-1.609-2.234.127-2.6-.684-.509-1.122.127-3.108-.154-4.419-.547-2.55-2.291-4.319-3.162-6.791-1.166-3.31-1.839-7.5-2.948-11.121-1.78-5.81.352-11.557,1.531-17.177C587.23,245.11,575.951,246.747,565.173,246.065Z" transform="translate(468.88 -186.385)" />
      <path class="a" d="M556.254,272.973c-2.015,2.837-2.218,7.522-6.846,7.541-3.484,8.85-5.25,17.283-7.973,26.265l28.883.376c10.64-.133,21.077.233,31.7.722q-.02-6.877-.041-13.753c-.008-3.227,2.7-6.134,4.317-8.841,2.8-4.7,2.937-4.452.314-9.3-1.709-3.156-1.166-4.492.571-7.557l-.07.046c-1.139.2-1.866.392-2.813-.292,3-1.3,2.277-7.449-1.988-7.449-3.822,0-10.15,2.361-13.885,3.508-5.382,1.658-9.169,2.729-15.105,2.91-4.084.124-8.295,2.456-12.014-.362C560.527,270.152,557.985,270.539,556.254,272.973Z" transform="translate(512.555 -158.327)" />
      <path class="a" d="M587.224,263.761c1.509-1.02,1.268-2.44,3.216-2.813a63.2,63.2,0,0,0,14.418-5.68c-1.474-3.419-2.464-6.691-4.152-9.937-2.337-4.5-1.085-7.108-1.249-11.973-3.018-2.87-6.256-5.526-9.036-8.628q-25.194-.142-50.387-.078c.9,1.547-.035,2.834.135,3.8.133.763,1.366,3.062,1.317,3.565-.2,2.02-3.1,3.822-4.176,6.039-.3.63-1.82,1.869-1.7,1.512-.533,1.531.784,3.686.46,5.52-.56,3.146-.046,7.424,3.938,7.876-1.2-3.356,6.494,1.009,7.7,1.485,3.6,1.42,6.913,3,10.878,3.31,2.523.2,5.166,3.037,6.826,4.971,1.293,1.506,3.465,6.269,3.432,2.2.841,1.109,1.847,3.17,3.77,3.716a22.076,22.076,0,0,1,8.576-3.635C583.859,264.618,584.563,265.557,587.224,263.761Z" transform="translate(502.413 -219.856)" />
      <path class="a" d="M598.656,257.834c-1.236-.8-1.236-5.477-2.769-6.267-.782-.4-3.646,3.213-3.359-.176.36-4.211-2.659-2.477-4.966-3.735-2.129-1.163-2.7-3.505-4.8-4.768-1.2-.725-3.27-.435-4.422-1.179-.89-.576-.5-1.617-1.382-2.169-6-3.759-11.779-7.516-17.7-11.679.165,4.866-1.087,7.478,1.25,11.973,1.688,3.246,2.678,6.518,4.152,9.937,2.927,5.7,6.08,11.892,10.223,16.817,1.82,2.161,2.483,5.388,5.707,5.829,3.3.452,4.068,2.945,6.862,4.276,2.253-.387,1.993,3.362,3.281,4.8a7.63,7.63,0,0,0,3.17,1.928c-.362-.092,2.345.665,2.383.062a1.769,1.769,0,0,0-.484-.679c.36.319.495.536.484.679.357.86-.078,1.831.544,3.313.682,1.626,3.595,4.482,5.087,5.382,1.363.822,8.969,1.942,9.91-.268a21.155,21.155,0,0,0-3.391-2.661c-1.9-.822-1.977-2.5-1.352-1.863,1.171,1.182,3.676,1.488,4.568,1.847,2.377.957,7.943,1.772,8.961-2.009,1.263-4.693-3.87-2.545-5.255-4.555,5.58.241,1.052-1.982-.549-3.9-1.872-2.239-2.193-.5-2.688-.576-1.612-.238-3.557-1.052-5.447.484-.433-2.667,3.029-1.828,4.887-1.983-2.128-2.1-.649-4.533-3.078-6.561-2.266-1.893-4.6-2.1-6.854-4.368-4.114-4.122-1.636-3.9,2.407-6.213C602.978,256.939,600.8,259.219,598.656,257.834Z" transform="translate(542.612 -214.359)" />
      <path class="a" d="M566.508,266.71c-.214-2.653-.39-5.312-.711-7.954-.408-3.327.476-3.329,1.718-6.015,1.739-3.759,3.532-10.618,2.591-14.678-1.947.373-1.707,1.793-3.216,2.813-2.661,1.8-3.365.857-6.026,1.258a22.074,22.074,0,0,0-8.576,3.635c5.012,3.638-3.608,11.749-4.3,15.925-.99,6.015-.876,10.648,1.688,16.014.958,2,2.742-2.11,1.36,2.959a10.324,10.324,0,0,0,1.485,7.005c1.085,1.331,6.118,4.13,7.646,1.579,1.058-1.761-2.115-3.113-2.656-4.8a25.434,25.434,0,0,0,4.722,2.253c.684.265,2.288,5.4,3.059,6.486,1.582,2.25,10.389,1.214,12.777.6,2.8-.722,9.845-4.584,11.205-7.381.965-1.98.438-2.458-2.745-1.98-1.385.208-3.251-1.947-4.8-2.277-4.43.251-7.806-2.794-11.743-3.14C567.1,278.759,566.73,269.406,566.508,266.71Z" transform="translate(522.748 -196.971)" />
      <path class="a" d="M568.449,277.92c2.623,4.847,2.486,4.6-.314,9.3-1.615,2.707-4.325,5.615-4.317,8.842q.024,6.877.041,13.753l18.995,1.58c-.725,2.185-4.644,14.537-2.7,14.708,3.2.276,6.159,2.9,9.81,1.158,2.87-1.371,2.718-5.39,3.373-7.949.262-1.025,1.958-.928,2.312-1.62.479-.947.151-1.8.514-2.732a11.793,11.793,0,0,0,1.16-4.768c.433-4.284,5.277.341,6.964-.484-.86,2.35,1.6,2.856,3.481,3.108.544.076,6.367.8,6.329.817,2.567-.89,2.091-4.782-1.16-4.108-2.15.446.627-4.8.725-6.056.387-4.95-1.074-2.291-3.862-3.457-.638-.268-6.139-3.24-6.383-3.857-1.417-3.608,3.113-1.03,3.995-.563,2.323,1.228,1.769,3.327,4.42.7.314,4.092,1.017.841,1.239-1.26.314-2.991-.3-3.075-1.079-6.134-.354-1.374,1.266-2.753-.041-3.678-1.02-.719-1.847-1.677-2.864-2.31-1.907-1.185-3.024-2.67-2.97-4.86,1.717,1.336,4.425,6.067,7.6,3.751.087-.068,5.05-9.883,5.112-10.543.33-3.565-7.046,3.578-7.468,3.551-2.65-.176-4.335-6.613-7.946-6.94,1.4-2.642,5.672,3.113,7.522,3.43,4.441.76-1.3-2.724.96-4.26-.132.092,10.581,1.774,4.408-2.945-2.726-2.085-6.653-3.868-10.2-3.535-1.309.122-3.662,1.39-4.7.051a3.916,3.916,0,0,0-3.984-.776c-3.5,1.525-7.067,2.088-10.821,2.8-1.517.289-9.969,2.161-9.637,4.86.2,1.615,6.38,2.872,7.389,4.66-1.02.376-6.369-.068-7.346-.427-1.553-.573-1.563-2.81-4.887-2.494a6.421,6.421,0,0,0-3.1,1.133C567.284,273.428,566.74,274.764,568.449,277.92Z" transform="translate(550.711 -160.264)" />
      <path class="a" d="M583.225,252.779c-4.143-4.925-7.3-11.121-10.223-16.817a63.2,63.2,0,0,1-14.418,5.68c.941,4.06-.852,10.919-2.591,14.678-1.241,2.686-2.126,2.688-1.717,6.015.322,2.642.5,5.3.711,7.954.222,2.7.6,12.049,3.484,12.3,3.938.346,7.313,3.392,11.743,3.14a2.016,2.016,0,0,1-.784-.83c2.867-.435,5.374,1.723,8.195,1.982.874.078-1-5.366-.671-6.832,1.707.576,1.458,2.578,2.345,3.751,1.99,2.634,2.261,2.172,6.175,1.671,2.643-.341,6.286.371,8.5-1.4,2.267-1.815-3.473-1.306-4.406-1.715-.671-.292-.514-1.617-1.209-2.01-1.415-.8-2.813-.262-4.173-.99-1.6-.852-3.118-3.132-4.354-4.419a57.457,57.457,0,0,0-5.039-4.3c-.96-.8-3.048-2.056-2.726-3.659.4-2.015.346-.281,1.582-.16,2.813.27,4.249,3.762,6.621,4.444,1.934.56.736-2.407,2.31-.909,1.222,1.163.13,4.557,1.874,5.7,1.036.684,3,.092,4.062.349,1.777.427,3.346,2.107,5.18,2.291.876.087,1.369.874,2.21,1.217.554.227,1.344-1.331,2.412-.936.238.089-.168,1.766,1.079,2.164,1.287.408,2.764,1.736,3.9,2.015,2.553.625,4.438.2,6.964-1.071-5.947-1.588-6.737-6.391-10.148-11.011-1.712-2.323-4.016.43-4.874-1.471.127.284,2.594-.346,2.134-1.728-.552-1.658-1.16-3.3-1.577-5-2.794-1.331-3.562-3.824-6.862-4.276C585.708,258.167,585.045,254.94,583.225,252.779Z" transform="translate(534.27 -200.55)" />
      <path class="a" d="M579.445,314.355c-.484-.641-.165-1.871-1.1-2.867-1.209.857-.993-.617-2.075-1.715-2.477-2.507-1.585.73-1.585-2.623,0-1.855-1.953-3.062-3.44-3.6-.92-.335-.549-2.507-.879-3.5-.533-1.612.241-3.8.368-3.048-.154-.914.46-2.883-1.439-3.281-2.442-.511-1.547-5.288,1.55-3.738a5.6,5.6,0,0,0-1.049-3.186c1.966-4.16-9.125-3.784-10.692-4.555-2.475-1.22-.322-4.089-1.847-4.725l-12.439-5.185c-1.534-.7-3.67-2.177-5.4-2.3-1.287-.095-.192,2.367-2.166,1.488-1.934-.863-.782,1.241-2.1,2-4.511,2.586-6.97.836-10.2,5.753-2.34,3.557-7.305,5.791-10.729,8.168l-13.469,9.355a41.954,41.954,0,0,1-4.238,3.151c3.887,3.1,6.331,7.248,9.528,10.778,1.934,2.137,4.939,3.162,6.68,5.6,1.363,1.9,2.688,4.43,5.2,4.958,1.233.26,4.241-2.35,3.481.189-.549,1.842,1.866,1.431,2.388,2.651.9,2.088,1,5.593,2.02,8.079.93,2.28,1.452,4.76,2.513,6.948,1.817,3.881,2.434,9.133,6.34,11.357,2,1.139,4.968.817,5.847,3.778.982.049,4.157,1.336,4.933,1.125,1.628-.444,4.135-4.133,5.32-5.315,4.2-4.189,3.37-2.937,6.881.438,3.365,3.24,3.673-4.206,4.452-5.25.955-1.282,3.04-1.352,3.827-2.759.706-1.255,1.282-2.575,1.909-3.884,1.6-4.368,1.607-9.45,2.277-14.116.92-6.375,5.739-7.073,10.767-7.359-2.337-1.039-6.756-1.966-7.64-3.973,2.88.576,5.728,3,8.568,2.867C581.222,314.288,580.413,315.637,579.445,314.355Z" transform="translate(435.993 -142.492)" />
      <path class="a" d="M640.534,320.235c.546-1.774-1.812-3.465.289-3.589,2.445-.146,5.015-3.819,4.866-4.582-.284-1.461-4.355-.5-1.36-3.749,1.72,2.561,2.721-.346,4.8-1.447,1.058-.56,3.862.1,4.265-1.634.352-1.531-.565-1.144-1.674-.671.338-2.128,4.366-3.035,4.777-5.49.192-1.152-1.06-2.542-1-3.657.1-2.072,1.623-3.489,1.071-5.826-1.831-3.524-1.087-5.279-5.131-5.439-4.179-.165-9.106.257-13.08-.709-.771,2.818-2.256,2.391-4.338,2.183-1.3-.13-.757-1.8-2.432-1.3a23.53,23.53,0,0,1-5.044.2c-4.052-.993-3.919-7.5-9.263-5.518a11.794,11.794,0,0,1-1.16,4.768c-.362.93-.035,1.785-.514,2.732-.354.692-2.05.6-2.312,1.62-.655,2.559-.5,6.578-3.373,7.949-3.651,1.744-6.61-.882-9.81-1.158-1.942-.17,1.977-12.522,2.7-14.708l-18.995-1.58c-10.621-.49-21.058-.855-31.7-.722.284,2.521,3.613,4.336,3.381,6.764-.325,3.4-.784,5.333,1.888,7.941a36.436,36.436,0,0,0,4.711,3.456c.906.614,1.485-.435,2.21.133,1.282,1.009-1.3,1.742,1.3,2.25,2.272.787,5.931-.127,7.643,2.115,1.731,2.264,1.644,2.44,4.008,1.179-.427,1.1.081,1.717,1.249,1.823-3.43,1.041-3,3.535-3.594,5.972,1.352,1.277,3.219,2.064,4.106,3.4-1.75.057-8.639-4.8-6.294,1.339-3.521-3.486-8.244-3.375-13.572-2.491,3.143,2.169,2.613,3.987,3.438,7.205,1.136-1.766,3.919-1.6,2.745-3.454a28.268,28.268,0,0,0,3.059.081c-1.287,3.056,3.121,2.664,3.192,5.169-1.363-.573-5.093-3.056-5.78-2.732-2.523,1.182.4,3.976-4.219,3.054.874,3.484,3.119,2.821,5.2,2.678-.276-.765-.679-1.085-.292-1.82.622.349,4.419,3.489,4.4,3.884-.095,2.018-2.859-.47-3.8-.187-3.778,1.133-.733,4.219,1.674,5.25-.381-2,1.858-2.031,1.953-1.139.165,1.528-.99,1.452.435,2.826.838.8,2.064,2.158,3.551,2.477,2.58.552-1.607-4.933-1.607-4.541.008-2.256,4.671-2.131,1.293-4.019,1.818.168,1.942-1.439,2.591-2.356l.065,1.366c2.288.519-.406,2.437-.065,4.016.23,1.076.438,1.039,2.074,1.555-.422-2.41,1.893-3.029,2.567-4.955-3.413.465-.977-1.769,1.341-1.287-.755-1.469-1.9-2.326-3.418-1.685.882-1.682,4.011-5.385,5.606-2.521-.041-.07-3.167,1.033-.392,3.538,1.414,1.274,3.335,2.775,2.488,4.768-.779-.546-1.344-1-2.234-.857.76.952.847,2.5,1.431,3.375.625.933,1.379-.69,1.828.99.682,2.529,1.417,2.229-1.182,2.545-1.331.162-4.111-2.448-5.423-.857-1.022,1.239,2.337,1.377,2.342,2.918,2.824-2.066,5.731,1.528,8.214.644,2.718-.968-.533-.838-1.517-1.942a21.5,21.5,0,0,1,.96-4.941c-.013-.855-3.87-3.954-1.36-3.67,3.023.343,2.889,5.837,6.293,3.751-1.617,2.18-.446,3.851,2.145,2.437.471.663.814.984,1.25,1.552-.668.349-1.536,1.612-2.188,2.169,1.823-.1,6.478,3.908,6.4-.173-.035-1.626-1.341-10.4,1.882-5.317.522.819-1.068,1.847-.49,2.759.8,1.268,2.391.811,3.305,1.5.441.333-.23,1.547.668,2.3a8.35,8.35,0,0,1,1.834-.322c.252.1-.154,1.75.465,1.769,1.076.03,2.461-1.547,3.84-1.447,2.223.16,3.065,3.229,2.121,3.24,1.9-.024,3.47-3.013,2.824-4.206-1.315-2.429,2.926-.882,3.748-1,1.682-.249,6.659-3.14,7.335-4.6-2.34.541-3.067-.646-2.231-3.24.133-.417,3.021-4.936,1.561-3.992,1.13-.73.411-.939,2.472-.492.406.087,1.888-.446,2.037-.338.487.352.043,1.388-.087,1.314.187.105-.114,3.624,1.406,1.658a11.052,11.052,0,0,0,1.293-2.329c.216-.414-.384-1.355,0-2.01C638.376,321.845,640.648,319.87,640.534,320.235Z" transform="translate(530.759 -129.085)" />
      <path class="a" d="M614.083,299.566c-.725-.568-1.3.481-2.21-.133a36.422,36.422,0,0,1-4.711-3.456c-2.672-2.607-2.212-4.544-1.888-7.941.233-2.429-3.1-4.244-3.381-6.764l-28.883-.376c-6.348,2.886-16.744,11.17-22.895,7.608-3.957-2.291-21.448-16.068-25.3-11.76a5.6,5.6,0,0,1,1.049,3.186c-3.1-1.55-3.992,3.227-1.55,3.738,1.9.4,1.285,2.367,1.439,3.281-.127-.749-.9,1.436-.368,3.048.33,1-.041,3.167.879,3.5,1.487.541,3.44,1.747,3.44,3.6,0,3.354-.892.116,1.585,2.623,1.082,1.1.865,2.572,2.075,1.715.93,1,.611,2.226,1.1,2.867.968,1.282,1.777-.068,2.364,1.688.114-.005.224.014.338,0,3.979,3.2,8.53,5.4,12.071,9.591,3.7,4.384,5.19,4.149,4.982-.966,1.755,1.141,1.233,4.841,2.145,5.358,1.874,1.066,3.519-.993,5.358.373a14.153,14.153,0,0,0-1.988.884c1.041,1.017,4.793,1.893,5.626,1.877a9.543,9.543,0,0,0,4.173-1.206,3.668,3.668,0,0,1-1.52,1.634c8.63,3.4,3.467-6.2,9.377-8.947-.279,1.06-2.215,3.375-2.031,4.26.541,2.591,2.356.49,4.173,2.01-2.742.371-5.739,2.38-3.235,5.223,1.228,1.4,3.962.83,5.49,1.379,1.791.646-.708,3.192,1.95,1.918a7.206,7.206,0,0,1,2.734-1.033c1.114-.07,2.921-1.769,3.2-1.755,1.423.073.362,1.347,1.382,2.023,3.267,2.164,7.925-.384,3.616-2.772,3.727-.141,2.9,4.076,4.69-1.366-.365,2.613,1.607,3.237,3.124,4.473-1.274-.179-5.9-.565-4.844,2.074.687,1.715,5.977,1.956,7.568,2.721,6.007,2.886,4.757-3.667.446-1.958a5.739,5.739,0,0,1,2.12-1.82l-3.416-1.125c1.085-1.033,2.11-1.344,3.127-.078.287-1.874-3.275-5.812-5.179-6.215,5.991,1.663,1.436-9.282-4.016-7.046-1.461.6-2.286.479-3.048,1.928-.963,1.826-1.839-.327-3.54-.549-2.293-.3-3.546-2.372-3.792-4.406.8.53,6.218,6.042,7.04,3.389.114-.36,4.976-2.307,5.772-2.962.508-.422,1.785.784,2.12-.481.325-1.225-2.3-3.035-3.237-3.375-1.106-.4-.811.219-1.585.684-1.266.76-4.536-1.4-5.536-2.131,1.315-.744,2.339.86,4.008.444,1.209-.3.333-2.886,1.461-4.006.611,4.1,3.759,2.943,5.225,6.107,1,2.156,4.666-2.951,6.9-2.653-.376.243-.692,1.309-1.764,1.5a14.172,14.172,0,0,1,3.059,1.488c1.182.879,1.861-.306,3.145.349,1,.508,1.125-2.618,2.01-3.229-1.285,4.565,5.139,4.373,6.139,1.634,1.509-4.135-5.656-5.047-7.275-7.419C612.785,301.308,615.365,300.575,614.083,299.566Z" transform="translate(480.979 -132.444)" />
      <path class="a" d="M525.166,294.805c-.671,4.665-.682,9.748-2.277,14.116,12.979,10.978,28.582,18.462,41.876,28.929,1.758,1.588,5.006,6.107,7.448,5.815q6.585-.787,13.161-1.571l14.692-1.753c2.188-.262,3.416-4.341,4.611-6.053-2.375-1.736-8.217,1.68-8.728-2.545,1.187.874,4.592,1.577,6.029.993,3.584-1.461-2.548-.849-2.748-2.25.16,1.114,3.676-1.682,3.919-2.678.3-1.236-2.913-.709-3.827-1.02,4.868-3.735.517-3.592-3.416-3.562-.809.005-1.471-1.106-2.3-.857-1.176.354.673,1.942,0,2.572-.944.882-2.047.1-3.059,2.678-1-1.672.4-3.567,1.563-4.687-2.512-.919-5.891,1.444-8.125,2.491-.4.187-.081,1.636-.582,1.928-.608.354-1.566-.49-2.12-.295a14.9,14.9,0,0,0-1.785.938c1.744-4.268,10.034-6.945,13.885-7.768-3.013-2.285-5.469-2.2-9.109-2.975-.936-.2-1.831-1.112-2.756-1.474-.711-.276-1.809.527-2.02.457a5.6,5.6,0,0,1-2.97-2.037c-.938,3.081-.649,2.429-2.859,3.053-.711.2-3.773,1.093-3.481-.319.214-1.028,3.93-.36,4.262-2.559a4.938,4.938,0,0,0-.936-3.738c-1.831-2.367-4.03-1.122-6.545-1.972-6.41-2.166-1.609,1.928-6.559,2.829,1.16-2.859,1.934-7.208-3.286-5.626-5.122,1.553.974,6.756-3.814,8.517,2.323-3.673-.914-3.362-.914-6.158,0-1.266,1.761-1.5.725-3.759-1.225-2.678-1.639-3.026-4.36-4.138-.917-.376-8.871-6.383-8.866-6.326-.206-1.671,6.115,2.678,7.235,2.088a28.515,28.515,0,0,0-11.2-8.644C530.906,287.733,526.086,288.43,525.166,294.805Z" transform="translate(480.941 -112.789)" />
      <path class="a" d="M593.611,321.544c-2.864,2.983-5.655-2.2-5.937,3.067-.16,2.989-1.447,4.1-3.47,6.053,1.523,1.314,13.421-9.272,16.225-10.854,5.036-2.845,16.882-4.857,19.647-10.012-3.984,0-8.317,3.673-12.436,4.406C604.675,314.734,595.68,319.386,593.611,321.544Z" transform="translate(585.46 -74.687)" />
      <path class="a" d="M581.618,316.58l-14.692,1.753q-6.576.787-13.161,1.571c-2.442.292-5.691-4.227-7.449-5.815-1.88,1.487-6.3,4.219-7.354,6.094-1.293,2.3-1.945,5.115-3.135,7.275-.324.59.127,1.615-.157,2.3-.333.806-1.782-.122-1.785-.108-.287,1.271-.433,1.864,1.3,3.738,3.584,3.865,4.2,5.087,4.344,10.434h.243c.322,1.285-1.98,5.152-1.4,5.6.947.733,3.8-2.112,4.352-2.413-.265,2.115-2.553,2.469-2.545,4.931,2.18.622,4.276.035,5.869,2.342,2.7,3.906,3.31,2.421,3.662-1.085,2.058,2.751-.66,3.5,3.113,5.5,2.77,1.469,4.041,3.851,7.489,3.154,1.807-.365,5.023-2.315,4.555-4.5-.208-.976-3.643-1.479-3.771-4.043.82.492,1.634,1.623,2.678,2.25.852.511.992-1.5,1.65-.752.257.292.484,1.406.671,1.5,1.452.722,1.068,1.344.814,1.577A16.328,16.328,0,0,1,568.8,357a6.247,6.247,0,0,0,3.619-2.948,27.222,27.222,0,0,1-3.773-.295c2.118-.187,2.3-1.444,1.2-3.135.725.552,1.745,1.39,2.413,1.982a4.368,4.368,0,0,1-.181-2.972c.576.438.7.035,1.252.054-1.171,3.429,1.4,2.694,2.5,2.864,1.85-.833,1.853-2.394.939-3.857,2.034,2.829,5.425.811,4.108-2.009,3.232,2.513,9.729-4.4,5.78-4.365v.749a10.155,10.155,0,0,0-2.342-.373c.195,2.845-1.955.668-3.729.563,1.582-1.028,1.079-2.71.984-4.26,1.049,2.964,3.87,3.037,4.977.563.246.078,4.165.99,3.148,1.579,2.164-1.258,1.552-2.434-.314-3.321a3.108,3.108,0,0,1,3.148,1.607c-.595-3.154,2.047-5.658,3.281-8.035-2.84,1.2-2.951-3.265-4.53-3.321-3.275-.114-2.78,4.214.646,2.813-.922,1.133-1.06,2.091.046,2.948-1.241.276-2.266-1.731-2.48-1.474-1.136,1.36-2.983,1.888-3.773,3.643-1.152-2.028,1.333-3,2.391-4.179-2.464.319-2.875-.338-1.3-1.982-1.907.105-2.951.776-4.622,1.661.587-3.164-5.788-3.094-3.949.454-1.634-.3-3.635,1.222-4.8,1.634-2.055.728-4.525-.56-3.705,2.975-1.544-1.688,1.631-4.114-1.339-3.911.852-2.064,3.576.906,3.081-2.2.154-.081.314-.162.471-.243.93,3.876,5.553-1.577,5.131-2.518,2.155-.709,3.048-3.367.938-4.606,2.175.343,5.039,1.655,2.145,3.294,2.872,1.663,4.893.449,7.276-1.071a21.364,21.364,0,0,1-3.081-1.8,20.35,20.35,0,0,0,4.755-.749c-.5-.4-1.4-2.037-2.031-2.678,2.464-.271,2.7,3.508,4.855,3.508,1.031,0,1.442-.295,2.02-.132.544.151-.725,1.731,1.3.776,1.033-.487,2.486,2.972,3.046,1.366.346-.985.038-2.023.638-3.081-2.485-.2-3.716-3.27-6.61-1.634.268-2.112-1.431-3.467-3.592-3.481,1.72-1.333,3.63.576,5.112-.965,1.3,2.55,3.743.6,5.563,2.082,2.042,1.658,3.324,2.78,3.7-.181-1.466-.016-4.568-.706-5.423-2.142-1.669-2.8,1.837-.584,2.342-.562.157.005,4.1.03,3.973.241.89-1.439-.83-2.469-2.031-2.678,1.344-1.166,3.237-.665,4.53.7-.111-.238-.6-4.076-.111-3.481-2.74-3.3-1.669,1.355-5.155.668-.068-1.947-.441-4.833.825-6.321A12.7,12.7,0,0,0,604,305.7c-.257-1.1-4.809-3.338-5.826-2.3-1.366,1.39,1.907,2.212,1.117,4.176-1.677-2.883-2.469,1.147-2.9,2.626-1.2-1-.181-2.626.222-3.989-.833.368-2.112,0-2.521.079,3.925-2.4-.021-2.007-2.188-2.891.719-.173,1.774-.76,2.5-.993-1.106-.184-5.5-1.355-6.453-.936a27.044,27.044,0,0,0-2.431,3.749c.333,2.637.606,1.609,3.191,1.782,2.9.195-.917,1.68-1.9,1.7.828,1.447,1.455,3.738-.581,1.823C585.034,312.239,583.806,316.318,581.618,316.58Z" transform="translate(499.389 -89.029)" />
      <path class="a" d="M608.424,278.556c1.306,5.225,2.853,3.611,6.919,4.874-.763-1.377-.425-2.859-1.139-4.233-.771-1.488-2.821-2.288-3.148-4.07,1.106,1.055,2.61,2.591,4.219,2.678-.157-2.461-3.118-7.73-4.733-9.3-2.369,5.344-2.426-2.112-2.853-2.532-1.452-1.42-7.4-4.736-8.373-1.512,2.334,2.145,2.956,4.325,4.7,6.832a18.239,18.239,0,0,0,3.357,3.016C609.019,275.713,607.962,276.7,608.424,278.556Z" transform="translate(611.219 -154.289)" />
      <path class="a" d="M633.2,278.5c-.582-1.2-1.85-6.194-3.881-4.917-1.325.833.63,4.065,1.2,4.717a27.383,27.383,0,0,0,1.276,3.914c-.092,1.955,1.13,2.315,1.233,4.068.049.849-.652,1.625-.536,2.707,2.175-2.5,2.212,1.041,2.364,2.981.238,3.053,1.5,5.639,1.988,8.59.852,5.106.708,12.106-1.815,16.152-1.239,1.983.224,4.276.119,7.1-.108,2.967-.868,5.756-1.171,8.666-.468,4.533-1.718,8.641-2.58,12.631-.817,3.789,1.285,8.373-1.169,12.241-1.3,2.037-4.857,1.739-7,2.142-2.648.5-2.194.874-4.152,2.115a33.987,33.987,0,0,1-7.457,3.992c-1.068.362-2.029,1.366-3.216,1.42-.741.032-.7-2.545-1.718-2.356-1.336.246-2.215,4.17-3.346,4.982-1.485,1.063-4.092,1.271-5.4,2.2,3.3,2.875,13.637-4,17.783-4.733,3.654-.644,6.575-1.458,10.207-1.32,5.206.192,4.384-1.236,5.736-6.375a140.4,140.4,0,0,0,4.033-21.775c.719-7.178.525-14.857,2.477-21.761C641.471,304.25,638.409,289.215,633.2,278.5Z" transform="translate(608.884 -136.779)" />
      <path class="a" d="M563.087,380.013c-1.431-3.878-2.832-7.771-4.3-11.635q-5.335-14.086-10.675-28.171l-18.213.863q-6.008.284-12.019.571c-1.88.089-2.826-.9-3.562-.979a33.55,33.55,0,0,0-6.875.357c-2.553.276-3.075-.847-5.393-1.685-3.051-1.1-11.2-.706-13.629.82.806,4.576-2.107,5.006-5.647,7.159-1.891,1.152-3.013,4.244-4.152,6.018-3.454,5.377-7.568,10.418-10.8,15.9-2.87,7.211,7.216,13.794,13.458,15.387-4.979,3.378-9.25,7.419-14.1,10.878,2.962.8,5.6,4.1,7.96,5.785,3.34,2.391,3.375,1.828,6.918.189,2.743-2.388,3.284-1,5.28.333,1.926,1.282,4.5,1.2,6.4,1.861.438.151-.614,1.39.536,1.434.663.027.876-.849,1.56-.376,1.855,1.287,2.5,1.082,4.555,1.945l5.293-1.877c-.338-1.626-.8-3.548.222-4.928,1.366-1.85,3.489-2.126,3.592.346,1.75-1,2.512.211,2.815,1.9.684-.652.3-1.314,1.506-1.314,1.231,0,.649-1.406,1.439-1.525.838-.13,1.517.5,2.3.4.655-.081.606,1.531,1.5,1.366.625-.119.836-.971,1.385-1.071,1.882-.346,3.846-1.555,6.01-1.807,2.215-.26,1.661-1.677,3.611-.257,1.022.744.571,2.5,1.45,3.494,2.672,3.018,5.217,6.3,8.165,9.039,3.446-.884,4.893-6.7,8.152-7.792,2-.671.049-3.229,1.831-4.473.471,4.249,4.049-.49,5.7-2.174,1.531-1.566,7.489-3.957,3.676-5.193a3.135,3.135,0,0,0,.425-2.331c1.864,3.232,2.356,2.342,4.276.406.514-.519,2.339.224,3.37-.738,1.244-1.166.584-2.367,2.28-3.316l.046-.027C566.443,383.3,564.382,383.529,563.087,380.013Z" transform="translate(385.982 -25.409)" />
      <path class="a" d="M577.1,339.877c0-.014,1.452.914,1.785.108.284-.687-.167-1.712.157-2.3,1.19-2.161,1.842-4.979,3.135-7.275,1.058-1.874,5.474-4.606,7.354-6.094-13.293-10.467-28.9-17.951-41.876-28.929-.628,1.309-1.2,2.629-1.91,3.884-.787,1.406-2.872,1.477-3.827,2.759-.779,1.044-1.087,8.49-4.452,5.25-3.511-3.375-2.685-4.628-6.88-.438-1.185,1.182-3.692,4.871-5.32,5.315-.776.211-3.951-1.076-4.933-1.125-4.465-.93-9.366,2.924-8.438,7.527.465,2.3,3.5,2.832,2.28,5.572-.744,1.671-4.62,2.155-5.807,4.365,3.6,1.247,6.039,4.576,9.242,6.564,4.346,2.7,8.782,5.22,13.228,7.746,4.6,2.615,9.1,5.334,13.61,8.111,3.343,2.064,3.2,4.822,5.528,7.232,3.2-2.356,5.479,1.209,6.556-3.465.947-2.139,3.443.262,5.5.333,2.786.092,5.3-2.2,6.9-4.26,4.609-5.983-9.144-7.933-6.764-12.028a9.554,9.554,0,0,0,1.45,2.383c.062-.535.308-1.423.314-1.82.806,2,2.028,1.488,3.218,2.926,1.355,1.636,2.832,3.219,4.046,4.96.69.984,0,1.936.438,2.853a49.219,49.219,0,0,0,2.688,4.152,8.177,8.177,0,0,0,3.294,2.975,17.566,17.566,0,0,0-.92-2.813c3.256,3.746,2.588,3.256,6.053-.295-.146-5.347-.76-6.569-4.344-10.434C576.663,341.741,576.809,341.148,577.1,339.877Z" transform="translate(456.179 -99.254)" />
      <path class="a" d="M540.363,381.666c1.049-2.174-1-1.98-1.566-3.643-.235-.7,1.639-1.16,1.409-1.607-.444-.86-1.415-.23-1.653-.993-.124-.4-1.028-.649-1.25-1.149-.457-1.039.46-3.037.246-3.616-.549-1.493-1.961-.449-2.434-2.732-2.05-.863-2.7-.657-4.555-1.945-.684-.473-.9.4-1.56.376-1.15-.043-.1-1.282-.536-1.433-1.9-.657-4.471-.579-6.4-1.861-2-1.333-2.537-2.721-5.279-.333q-5.834,9.781-11.67,19.568c-2.275,3.814-2.031,4.463-6.3,5.047l-12.257,1.688c2.491,2.377-.765,4.955-2.97,6.561-3.286,2.4-2.862,5.669-7.57,2.91-3.035-1.78-13.5-4.752-13.412,1.617-1.068,2.951-.679,6.048-1.831,8.785-1.647,3.9-2.4,6.2-4.8,9.618-1.474,2.091-5.975,1.279-6.218,4.687-.119,1.612.684,3.781-.292,5.158s-2.366,1.539-2.667,3.44l10.716,11.468a3.612,3.612,0,0,1,4.644-1.179c-1.934,1-3.508,1.477-3.219,2.545l2.115,2.234c.032-.024.057.024.076.081l.022.014c-.571-6.25,23.26-5.269,22.678-9.188,2.675,1.155,2.421-1.734,2.613-3.348.63-5.363,1.853.062,3.706.617-2.058-.054-2.956,1.536-2.388,3.294-4.068,1.69,4.138.692,5.558.59,1.331-.1,10.746-.893,10.77-1.047.284-1.777,2.734-1.347,3.116-3.04.17-.76-.879-3.511-.717-3.735.846-1.179,2.329.976,2.545,1.715.617,2.093-.154,3.849,3.127,3.294-1.466,1.49-4.111.222-5.626,1.688,3.519,1.179,7.665-.032,11.389.592,4.844.811,8.763,1.214,13.615,2.726,5.783,1.8,2.77-.3,4.3-3.213,1.723-3.273,5.2-3.513,6.012-7.879.69-3.684,3.154-4.387,3.281-8.771.087-3.045,1.612-5.777,1.169-8.793-.609-4.114-.43-8.6-1.385-12.647-.706-2.983-3.508-5.674-.771-8.438C544.352,388.746,544.15,379.864,540.363,381.666Z" transform="translate(351.254 13.33)" />
      <path class="a" d="M567.343,354.52c-1.709-2.407,1.863-3.248,1.371-5.1-.573-2.177-1.98.579-2.821-.8a20.4,20.4,0,0,1-2.421-6.872c-.728-6.037-19.9-16.788-21.142-6.843-6.107-3.9-14.21-8.119-21.407-9.271-4.268-.684-8.5-1.574-12.747-2.386-4.438-.852-5.9.233-10.088,2.256.974,2.042,4.13,6.229,3.811,8.444q-.7,4.852-1.4,9.707-1.7,11.713-3.389,23.422,5.339,14.086,10.675,28.171c1.466,3.865,2.867,7.757,4.3,11.635,1.3,3.516,3.356,3.283,6.337,4.784,1.325-1.133,2.94-1.506,4.584-2.091,1.255-.446-.338-1.571.847-2.348.817-.535,2.669-.649,3.64-.993.035-.011.168-1.32.243-1.5.441-1.055,1.209.684,1.742.43,2.145-1.017,4.757-2.713,6.864-3.508,2.042-.771,4.768.622,5.415-2.494-.709.081-1.628-.314-2.388-.292-.638-2.778,1.288-2.031,3.792-2.118-.628-.517-2.234-2.964-3.046-3.04-1.025-.095-.906-1.642-1.909-1.861-.573-.124-2.678.782-2.075,1.017-1.249-.489-1.628-1.2-3.335-2.645-2.056-1.747,1.177-4.8-3.051-3.594,1.479-3.308,4.96-1.331,7.289-.82,1.78.392,5.1-3.613,4.687-5.087-.449-1.617-2.358-3.513-3.191-5.063-1.066-1.98-2.063-3.489-3.07-5.453-.2.308-1.793,3.373-2.256,3.348-2.131-.1.644-3.732.536-4.3-.365-1.923-1.839-6.245.092-6.924,0,1.823.8,2.964,1.314,4.687,2.1-2.383,4.141-1.412,7.189-1.769-.438,1.369-1.012.806-1.985,1.688-2.3,2.085-2.153-.606-.714,2.467.749,1.6,1.953.325,2.286,3.121.133,1.125,1.9.506,2.734.038a3.243,3.243,0,0,1-3.795,1.874c2.385.671,2.891,2.65,4.733,4.26,2.585,2.256,6.056,1.69,1.163,3.294-2.215.725-2.012,2.091-3.7,3.751-1.609,1.588-4.4,1.012-5.7,2.369-2.053,2.139,2.31,2.055,2.9,3.389,1.8-3.062,1.16-.122,2.856.617-.143-.062,2.675.668,2.188.295-.121-.092,1.585,1.6.714,1.125,1.5.822,2.553,3.408,5.015,1.171,2.767-2.513,5.947-4.292,8.557-7.092a24.529,24.529,0,0,0,2.724-4.073c.441-.644,1.936-.241,2.342-1.282s-1.517-1.52-1.406-2.507c.1-.912,3.048.63,4.135.111,1.885-.9,7.221-3.976,2.718-4.252.649-1.78-3.649-5.471-1.293-5.1,1.328.211,5.071,6.453,5.48,4.019.444-2.651,6.434-3.527,2.553-7.7-2.434-2.621-.982-5.477-3.613-7.422q-.982-.491-1.939-1.022A24.921,24.921,0,0,1,567.343,354.52Z" transform="translate(436.99 -52.272)" />
      <path class="a" d="M510.577,364.481c-.879-.99-.427-2.751-1.45-3.494-1.95-1.42-1.4,0-3.611.257-2.164.252-4.127,1.461-6.01,1.807-.549.1-.76.952-1.385,1.071-.89.165-.841-1.447-1.5-1.366-.782.095-1.461-.533-2.3-.4-.79.119-.208,1.525-1.439,1.525-1.206,0-.822.663-1.506,1.315-.3-1.693-1.066-2.9-2.816-1.9-.1-2.472-2.226-2.2-3.592-.346-1.02,1.379-.56,3.3-.222,4.928l-5.293,1.877c.473,2.283,1.885,1.239,2.434,2.732.214.579-.7,2.578-.246,3.616.222.5,1.125.749,1.249,1.15.238.763,1.209.132,1.653.993.23.446-1.645.906-1.409,1.607.568,1.663,2.615,1.469,1.566,3.643,3.786-1.8,3.989,7.081,3.795,9.723,2.4.054,5.1,13.577,5.112,16.263.011,2.231-.922,4.963,1.5,5.407,3.838.706,3.954-5.753,4.722-8.1.335-1.036,3.478-7.7,2.71-8.079-.565-.279,2.169-2.394,2.3-3.908.068-.8-2.477-1.347-2.166-2.331.346-1.087,2.648.76,2.945.511,2.175-1.823,2.221-3.681.492-5.572,3.108,2.453,11.489-9.252,12.59-12.966-.468-.016-1.658-.216-1.877-.189.552-.719,1.063-.511,1.915-.725C515.794,370.785,513.249,367.5,510.577,364.481Z" transform="translate(406.91 11.509)" />
      <path class="a" d="M600.267,348.092c-18.6,9.528-39.163,8.944-59.6,9.967.022,1.6-.752,2.851-2.377,2.745-2.294-.149-3.1,2.185-4.9,2.959-2.732,1.176-10-.487-8.768,4.23q.957.531,1.939,1.022c2.256.111,3.108,2.713,5.355,3.024-2.691,3.067,3.013,5.512,4.219,6.832-1.753.187-4.344,4.555-2.632,5.731,3.849,2.651,5.736-4.917,8.325-2.183.96,1.017,2.91-.387,3.059-1.363.3-1.988,1.577.176,3.081-.311,2.037-.66,7.47-1.982,7.208-4.26,2.156,1.847,8.4-.625,11.308-.749,4.839-.208,9.274.619,14.007,1.366,1.92.3,9.939,2.126,9.574-.99.046.387-6.807-4.268-1.785-2.358-.057-1.785-1.826-4.214-3.6-2.718-2.661,2.245-5.355.506-1.69-1.9a27.868,27.868,0,0,0,3.2-2.128c.668-1.071,1.228.514,2.11.051.33-.173.73.425,1.206.16.922-.508-.287-1.631.336-2.169.9-.782.8-1.655,1.606-2.223a6.443,6.443,0,0,0,.471,2.358,6.356,6.356,0,0,0-.16,1.366c.068.17,1.136.295,1.363.749,1.823,3.651,1.331,3.987.668,7.449-.638,3.34-.53,4.171,3.581,4.065,2.323-.06,6.559-.411,1.78-1.682,1.252-1.577,1.552-4.357,1.9-6.456.417-2.521-.855-5.774-.425-7.981.714-3.657,1.869.6,3.056,2.759,2.229,4.054,1.074,2.756,4.176-.027-.135,1.39.284,3.048-.268,4.125-.422.822-2.4,1.06-2.5,1.955.1-.876,2.329,5.022,1.16,3.992,1.455,1.285,3.175,2.521,4.063-.241.9,2.093,8.241,2.031,8.414-.7-1.983.206-3.159-1.442-3.481-3.186,2.186-.224,2.74-1.314,1.409-2.945,1.233-1.082.268-3.814,2.9-4.985,2.875-1.282-.573,3.324-.468,4.368.36,3.54,2.15.027,3.035-1.074,2.4-2.975,3.716-4.284,1.1-7.608,1.5.162,3.121,2.58,3.481.324a1.08,1.08,0,0,0,1.139-1.26c.441.352.909.333,1.293.8.235-.733,1.128-10.451,3.129-8.787,1.926,1.6-2.291,4.763,1.872,3.805,2.269-.522-.628-2.851,3.305-2.174,1.969.341,2.418-1.509,3.416-2.835,2.585-3.435,2.429-4.822-2.077-3.857.668-.714,1.011-1.866,1.807-2.572a4.011,4.011,0,0,0-3.413.508c2-4.671,5.45.755,7.768-.389,1.055-.519.993-2,1.339-2.556.454-.733,3.754.146.6-2.358,5.577.078-4.874-7.3-2.945-10.553l.4.857c.292-.057.587-.8.538-.8A5.707,5.707,0,0,0,646,330.707c2.3-3.992-8.179-8.609-4.373-2.678-1.423-.92-2.7-1.793-4.311-1.5.411.906,7.795,10.4,5.212,9.994-.936-.149-.711-1.461-1.6-1.674-.7-.17-.168.779-.86.709-.893-.089-2.353-1.542-3.238-1.956-4.63-.046-.257,1.282-.782,2.972-.657,2.126-3.408-.949-2.074,4.019-1.266-.119-2.721-.295-3.727-.454,1-1.461,1.387-6.253-1.406-2.237-1.177,1.693-4.847,1.15-2.513,3.643,1.149,1.231.076,2.615-1.106,2.959.227-2.174-.887-2.718-1.65-3.992-.322-.533-1.8.195-2.3-.7-.4-.706,2.275-.876,1.909-2.05-1.709-5.5,4.987.457,3.47-4.809a12.805,12.805,0,0,0,1.609.752c-.149-1.131.011-2.4-.214-3.524s-1.55.476-1.617.281c-.614-1.753-1.663-5.939,1.452-4.741-1.717-1.634-1.2-4.073-2.323-5.893-1.577-2.54-5.212-4.316-5.223.563,2.259.141,2.034,1.831,2.21,2.277-.3-.779-.114,2.1.557,3.053-1.62-.882-2.678-1.012-3.124-2.437-2.934,1.241.1,4,.157,3.857-.487,1.26-4.338.849-2.056,3.711.441.552,2.575.646,2.791,1.966.2,1.214-2.237,2.407-1.942,4.314-2.618-1.658.985-4.847-2.591-4.284-.781.206-3.573.192-1.728-.644,1.6-.725-.352-1.5-.057-2.315.481-1.328-4.4-.882-4.866,1.458-.879-1.45-2.726-1.471-3.905.241,1.855,1.3.687,5,3.838,6.537.56.273,4.346,3.189,4.6,3.776-5.669-3.1.225,5.217.311,6.8-2.131-1.936-3.137-5.269-6.475-4.392,4.717-1.347-.354-6.015-3.481-5.493,1.182-6.548-2.886-5.312-7.568-6.134-7.751-1.36.309,7.981.446,9.591-3.2-1-1.5,2.358-.068,3.24l-.352.065A7.5,7.5,0,0,1,600.267,348.092Z" transform="translate(483.655 -61.877)" />
      <path class="a" d="M572.9,338.665c-2.331-2.41-2.185-5.169-5.528-7.232-4.506-2.778-9.009-5.5-13.61-8.111-4.447-2.526-8.882-5.05-13.228-7.746-3.2-1.988-5.645-5.317-9.242-6.564l-7.7-2.2c.825,4.257,1.653,8.509,2.359,12.788.214,1.306-6.989,8.468-8.328,10.253-5.966,7.968-14.316,12.008-22.716,17.329L501.831,353c4.184-2.023,5.65-3.108,10.088-2.256,4.243.811,8.479,1.7,12.747,2.385,7.2,1.152,15.3,5.369,21.407,9.271,1.247-9.945,20.414.806,21.142,6.843a20.4,20.4,0,0,0,2.421,6.872c.841,1.382,2.247-1.374,2.821.8.492,1.855-3.081,2.7-1.371,5.1a24.914,24.914,0,0,0,3.943,3.868c-1.233-4.717,6.037-3.054,8.768-4.23,1.8-.774,2.607-3.108,4.9-2.959,1.626.106,2.4-1.149,2.377-2.745l-8.528.024q.118-12.787.23-25.58c.049-5.407-.3-8.706-.206-14.2a5.565,5.565,0,0,0-3.037-.581l-.076-.411C578.383,339.874,576.106,336.309,572.9,338.665Z" transform="translate(433.247 -79.772)" />
      <path class="a" d="M527.543,334.437q-.118,12.792-.23,25.58l8.528-.024c20.436-1.022,41-.438,59.6-9.966a7.5,7.5,0,0,0-3.232-2.507c-2.767-.609-4.966,1.934-6.724,3.876-.295-2.38,6.251-7.649,3.844-9.648-3.632-3.016-7.121-2.656-7.838,3.029-7.838-3.275-2.921,8.693-5.939,10.232-.319-2.4-.038-4.833-.4-7.232-.587.66-.792,1.25-1.585,1.552-.308-1.669,2.7-2.664,2.145-3.884-.222-.473-4.552-2.115-5.358-2.694-3.651-2.621-8.347-.054-5.515,4.249-1.031-.173-3.435,1.2-3.516.481-.195-1.712,1.682-3.413,1.731-5.223-.582-1.1-4.571-3.094-6.5-1.233-1.325,1.279-1.309,6.84-1.36,8.411-2.8-1.406-1.055-5.766-1.252-7.554-.084-.76-.43-.909-.79-.833-1.658,1.447-.793.165,0,0,.146-.132.311-.276.5-.452,1.209-1.12,1.4-2.077,2.856-2.277-3.624-.576-7.427-4.162-9.967-6.643-2.464-2.407-2.085-6.737-4.295-9.628-1.155-1.512-2.951-7.944-5.729-5.2-2.377,2.35-5.247,5.847-9.182,3.381C527.243,325.731,527.592,329.031,527.543,334.437Z" transform="translate(488.482 -63.812)" />
      <path class="a" d="M174.216,333.139c4.357,3.273,8.355-.16,12.769-1.006,4.744-.909,8.387-3.87,13.683-3.281,2.61.289,4.089,2.3,6.778,1.585,2.2-.584,4.449-2.029,6.7-1.961a12.218,12.218,0,0,0,2.345-3.64c-6.283-6.35,5.02-9.477,9.009-12.433,2.691-2,3.906-5.793,4.744-8.882,1.382-5.106-3.029-4.487-5.5-6.115-2.4-1.577-2.84,1.325-5.482,1.393-1.274.032-4.292-1.4-5.81-1.626-3.759-.573-12.165.035-14.9-2.686-2.131-.276-4.636.8-6.586.454-1.363-.241-2.786-1.574-4.308-2.05-3.662-1.147-6.429,6.513-9.956,1.03-2.767,3.156-9.791,6.237-7.925,11.251,1.312,3.532-1.044,5.377-2.053,8.625-.806,2.586-.53,5.028-.717,7.662C170.994,324.386,170.445,330.3,174.216,333.139Z" transform="translate(-125.711 -103.71)" />
      <path class="a" d="M180.915,317.237c1.523.476,2.945,1.809,4.308,2.05,1.95.341,4.455-.73,6.586-.454l0,0h.022l-.019,0c2.737,2.721,11.143,2.112,14.9,2.686,1.517.23,4.536,1.658,5.81,1.626,2.642-.068,3.086-2.97,5.482-1.393,2.475,1.628,6.886,1.009,5.5,6.115-.838,3.089-2.053,6.886-4.744,8.882-3.989,2.956-15.292,6.083-9.009,12.433,8.939-1.2,19.306-4.344,28.293-3.265,2.534.3,2.686-1.006,4.276-2.283,1.782-1.428,2.816-.874,4.574-1.258a66.419,66.419,0,0,1,11.765-1.071c.879-5.828-.444-9.133-2.767-14.278-.376-.83-2.25-.514-1.7-2.074.357-1.012.933-1.515.963-2.626a5.913,5.913,0,0,1,1.807-3.857c1.5-1.317,3.716-.162,5.125-1.493a75.246,75.246,0,0,1,6.2-5.769c3.335-2.488,7.432-3.9,11.595-2.556,3.016-5.174,3.492-5.266,1.16-10.18-1.585-3.343.179-5.7-.847-8.893-.433-1.341-1.958-1.509-2.188-2.918-.289-1.758,1.82-2.788.892-4.7-1.653-3.408-6.994-2.442-9.956-3.467-1.066,2.729-5.655,6.905-8.717,6.094-4.641-1.228-9.366,5.5-13.45,7.381-2.074.957-5.409,1.182-6.661,3.4a15.326,15.326,0,0,1-4.79,4.8c-5.385,3.081-9.593.592-14.554-1.285-2.967-1.125-10.37.949-13.615,1.452-5.447.844-9.934-.222-14.194,4.157-4.227,4.346-10.832,1.812-13.71,7.313-1.831,3.5-4.866,4.755-8.3,6.47C174.486,323.749,177.253,316.09,180.915,317.237Z" transform="translate(-118.971 -128.056)" />
      <path class="a" d="M202.833,349.947c.955-1.433-.46-3.6.6-5.158.4-.582,3.605-1.958,4.592-2.532,1.55-.9,3.34-1.736,4.157-3.427,1.534-3.189,5.755-8.39,9.409-8.306,3.354.076,9.9-3.978,12.444-2.342.917-1.542,1.163-3.248,2.5-4.617,2.5-2.553-.828-2.226-.073-4.062.79-1.923,3.348-1.918,4.154-4.6a6.61,6.61,0,0,0-.449-4.509c-2.256-.068-4.509,1.377-6.7,1.961-2.688.717-4.168-1.3-6.778-1.585-5.3-.59-8.939,2.372-13.683,3.281-4.414.847-8.411,4.279-12.769,1.006-3.77-2.837-3.221-8.752-7.211-11.679-.755,6.253-12.547,8.879-17.642,8.709-1.836-.062-3.919.219-5.593-.7-1-.549-1.991-2.867-3.013-3-2.229-.289-7.8,5.063-9,6.67-3.684,4.931-2.218,12.606-3.459,18.492-1.415,6.7-.262,14.759-2.588,21.153,15.754.073,31.5.108,47.255-.054C199.444,352.574,201.683,351.668,202.833,349.947Z" transform="translate(-151.737 -85.629)" />
      <path class="a" d="M224.607,305.8c-1.682,1.731-.476,3.286,1.082,4.26,1.75,1.093,4.068-1.552,5.158,1.715,1.012,3.037,1.285,5.493,3.3,8.276,2.009-1.255,4.3-3.54,6.84-2.889,3.454.887,6.272,1.066,9.528-.692,2.326-1.255,4.392-2.131,6.735-3.221,2.2-1.028,4.8-1.339,6.775-2.323,6.656-3.313,13.255-6.789,20.025-9.875,5.377-2.456,11.478-2.586,17.02-4.625-3.059-5.948-3.062-11.952-10.034-14.678-2.2-.86-2.02-4.192-1.458-6.242.849-3.091-2.036-2.983-2.818-5.866-3.278.96-10.459,5.193-13.415,1.125-.844-1.16.13-6.524.157-7.795.054-2.651,2.05-2.448-.56-5.5-3.34-3.922-9.634.262-13.034,2.183-5.428,3.059-9.063,3.924-10.673,9.615-.939,3.329-2.3,10.021-7.008,8.438-2.913-.976-7.405-7.884-11.384-3.427-3.289,3.678.733,8.552-.536,12.936-1.2,4.135-5.334,9.258-7.7,12.858C224.052,301.522,226.495,303.856,224.607,305.8Z" transform="translate(-30.928 -166.666)" />
      <path class="a" d="M217.147,292.695c.928,1.915-1.182,2.945-.893,4.7.23,1.409,1.755,1.577,2.188,2.918,1.025,3.194-.738,5.55.847,8.893,2.331,4.914,1.855,5.006-1.16,10.18,1.442,2.175,3.911,2.834,5.425,4.741,1.055,1.328.855,4.53,2.7,4.7,4.893.441,8.184,4.565,10.938,8.43,1.88,2.64,1.993,3.124,4.709,5.117a16.1,16.1,0,0,1,4.487,4.738c1.3,2.191,1.826,4.216,3.421,6.275,1.5,1.937,3.584,1.812,5.217,3.53,4.027-1.918,11.579-2.077,13.88-6.28,3.173-5.791,7.159-9.848,10.854-15.149-2.415-3.74-7.43-4.092-7.146-9.618s3.86-9.629,3.227-15.535c-.3-2.786-3.435-3.676-4.241-6.348-.754-2.5-2.575-3.408-4.552-1.818-2.945,2.369-5.818-8.376-6.621-10-2.018-2.783-2.291-5.239-3.3-8.276-1.09-3.267-3.408-.622-5.158-1.715-1.558-.974-2.764-2.529-1.082-4.26,1.888-1.939-.554-4.273-2-5.731-2.312,5.3-8.587,2.074-12.7,1.612-2.483-.279-3.887,1.16-6.031,2-2.256.89-4.244.536-6.386,1.179-4.317,1.3-4.782,6.7-10.21,6.7-4.709,0-4.333,2.264-6.375,5.544C210.153,290.253,215.494,289.287,217.147,292.695Z" transform="translate(-57.208 -138.793)" />
      <path class="a" d="M246.8,369.794c-2.21-2.229-.473-4.268.738-6,2.529-3.622,7.76-6.259,8.011-10.821.076-1.352-1.788-1.78-.9-3.657.441-.93.417-2.313.833-3.094A17.248,17.248,0,0,1,259.5,341.8c4.173-3.816,6.007-8.263,4.89-14.3-1.634-1.718-3.713-1.593-5.217-3.53-1.6-2.058-2.118-4.084-3.421-6.275a16.1,16.1,0,0,0-4.487-4.738c-2.715-1.993-2.829-2.477-4.709-5.117-2.753-3.865-6.045-7.989-10.938-8.43-1.847-.165-1.647-3.367-2.7-4.7-1.515-1.907-3.984-2.567-5.425-4.741-4.162-1.344-8.26.068-11.595,2.556a75.255,75.255,0,0,0-6.2,5.769c-1.409,1.331-3.624.176-5.125,1.493a5.913,5.913,0,0,0-1.807,3.857c-.03,1.112-.606,1.615-.963,2.626-.552,1.561,1.322,1.244,1.7,2.074,2.323,5.144,3.646,8.449,2.767,14.278,2.594,4.449,2.3,12.536,6.607,15.7,3.24,2.38,4.5-1.593,7.389-.752,3.275.952,2.1,6.194,2.12,8.7.043,6.724,5.277,8.758,8.817,13.723,2.507,3.513-1.428,4.5-.157,7.849,1.085,2.851,5.347,5.883,7.01,8.758A34.973,34.973,0,0,0,252,372.58C250.912,370.256,248.481,371.484,246.8,369.794Z" transform="translate(-66.572 -109.373)" />
      <path class="a" d="M280.409,317.734c.149-3.456-7.3-9.155-9.5-11.587q-4.771-5.274-9.542-10.553c-3.695,5.3-7.681,9.358-10.854,15.149-2.3,4.2-9.853,4.363-13.88,6.28,1.117,6.042-.717,10.488-4.89,14.3a17.247,17.247,0,0,0-4.016,4.419c-.417.782-.392,2.164-.833,3.094-.89,1.877.974,2.3.9,3.657-.252,4.563-5.482,7.2-8.011,10.821-1.212,1.734-2.948,3.773-.738,6,1.68,1.69,4.111.462,5.2,2.786,7.284-2.293,14.562-4.6,21.862-6.84a133.1,133.1,0,0,1,21.153-4.484c2.626-.381,1.512-2.342,2.034-4.214.5-1.791,2.78-.368,4.641-.563,3.822-.4,8.53-2.972,11.876-5.063a41.962,41.962,0,0,1-3.64-11.86C281.434,324.969,280.23,321.821,280.409,317.734Z" transform="translate(-38.815 -98.9)" />
      <path class="a" d="M233.631,333.635c-2.031-1.9-3.067-2.153-4.157-5.1-1.482-4-7.224-7.519-9.618-11.4-.26-.419-2.339-2.772-2.253-2.7-.768-.6-.141-.99-1.7-1.582-3.056-1.166-9.128,3.064-11.652-.051-2.54-1.636-9.09,2.418-12.444,2.342-3.654-.084-7.876,5.117-9.409,8.306-.817,1.69-2.607,2.526-4.157,3.427-.987.573-4.195,1.95-4.592,2.532-1.063,1.555.352,3.724-.6,5.158-1.149,1.72-3.389,2.626-3.841,4.7,22.308-.173,44.889,1.2,67.132-.441C234.366,337.665,235.143,335.044,233.631,333.635Z" transform="translate(-121.954 -70.241)" />
      <path class="a" d="M264.491,339.082c-3.54-4.966-8.774-7-8.817-13.723-.016-2.5,1.155-7.746-2.12-8.7-2.891-.841-4.149,3.132-7.389.752-4.3-3.162-4.014-11.249-6.607-15.7a66.421,66.421,0,0,0-11.765,1.071c-1.758.384-2.791-.17-4.574,1.258-1.59,1.277-1.742,2.586-4.276,2.283-8.988-1.079-19.354,2.069-28.293,3.265a12.218,12.218,0,0,1-2.345,3.64,6.61,6.61,0,0,1,.449,4.509c-.806,2.683-3.365,2.678-4.154,4.6-.755,1.836,2.572,1.509.073,4.062-1.342,1.369-1.588,3.075-2.5,4.617,2.523,3.116,8.6-1.114,11.652.051,1.555.592.928.982,1.7,1.582-.087-.068,1.993,2.285,2.253,2.7,2.394,3.884,8.136,7.4,9.618,11.4,1.09,2.945,2.126,3.2,4.157,5.1,1.512,1.409.736,4.03,2.71,5.185,18.789-1.818,38.214-1.058,57.092-1.355-1.663-2.875-5.926-5.907-7.01-8.758C263.063,343.577,267,342.6,264.491,339.082Z" transform="translate(-99.865 -88.466)" />
      <path class="a" d="M273.45,289.988c-3.73,4.3,3.686,14.31,7.835,15.765,11.611.6-.69-5.093,6.607-8.306,1.512-3.3,5.044-9.4,9.106-5.223,3.343,3.44,5.9,2.745,10.359,4.341q4.674-7.773,9.35-15.546c1.474-2.453-7.622-7.235-9.82-8.858-3.657-1.271-.638-7.416-3.335-10.075-3.121-3.075-4.968-2.283-8.26-4.43-6.5-4.238,3.984-14.381-3.83-16.166l.068-.241c-1.085,2.948-3.394,5.774-4.89,8.544-1.874,3.478-3.8,6.9-5.58,10.421-3.419,6.762-6.129,8.912-12.366,12.7a88.137,88.137,0,0,0,1.92,9.347C270.978,283.8,273.91,289.458,273.45,289.988Z" transform="translate(47.633 -191.534)" />
      <path class="a" d="M413.417,275.462c.573-16.433-.176-32.9.281-49.335-10.072-.79-20.152.389-30.213.476-9.3.081-18.554-1.271-27.828-1.682-.976,16.441-1.5,32.937-2.4,49.389Z" transform="translate(191.782 -219.371)" />
      <path class="a" d="M249.146,278.08c-.562,2.05-.741,5.382,1.458,6.242,6.973,2.726,6.975,8.73,10.034,14.678,2.126-1.044,6.818-.6,8.436,1.393,1.777,2.18-.211,4.592.514,7.127,1.39,4.852,10.881,5.577,8.863,11.089,4.16.714,9.853-3.41,12.544-6.242a15.9,15.9,0,0,0,4.376-6.91c1.293-4.544,1.885-4.154,5.623-7.313h-3.973a19.463,19.463,0,0,0-.087-3.616c2.3-.952,1.025-9.374-.068-11.76-1.014-2.207-.352-1.339-2.434-3.053-1.377-1.131-3.686-1.461-4.319-3.416-.717-2.223,2.431-9.507-2.272-9.266-4.281.219-3.264,3.616-6.064,3.308-3.164-.349-4.135-8.75-6.921-8.357-.611.086-2.1,7.3-4.725,1.452-1.139-2.532-.187-6.618-1.993-8.606-.638-.7-6.835-.571-7.686-.195l-.127.116c-3.135,5.388-8.325,14.7-14,17.464C247.11,275.1,250,274.988,249.146,278.08Z" transform="translate(9.506 -169.245)" />
      <path class="a" d="M591.1,288.509c.481,3.454-3.952,11.776-8.382,9.123-1.907-1.144-.268-3.692-.289-5.239-.041-3.145-.135-4.222-2.477-6.775-2.786-3.04-7.824.979-10.737,2.945-.887.6-.043,1.228-1.36,1.874a9.1,9.1,0,0,1-4.465.79c-2.872-.522-.024-3.429.268-4.7.636-2.743,1.5-7.522-1.249-9.266-3.216-2.047-4.39,1.242-6.462,1.607a29.378,29.378,0,0,1-5.615.322c-.828-.116-2.077-1.6-3.592-1.8-1.2-.157-3.21.939-4.287.457-2.8-1.249-1.617-7.535-1.117-10.5-2.675.976-2.667-.4-3.037-.641.56.365.243-1.393.068-1.609-.354-.441-3.129-1.009-3.792-1.285-3.362-1.4-11.473-4.793-12.173-8.785-3.854,3.613-7.056,8.39-10.443,12.506,2.331,3.8,8.16,10.426,8.8,14.681.676,4.511-1.628,11.184-2.231,15.671l12.439,5.185c1.525.636-.628,3.505,1.847,4.725,1.566.771,12.658.395,10.692,4.554,3.854-4.308,21.345,9.469,25.3,11.76,6.15,3.562,16.547-4.722,22.895-7.608,2.724-8.982,4.49-17.415,7.973-26.265C598.682,289.81,590.317,282.872,591.1,288.509Z" transform="translate(462.299 -168.05)" />
      <path class="a" d="M375.5,274.7l69.78,2.437.046-1.688c1.02-16.612,1.869-33.229,2.694-49.852-24.015-.238-48.253.7-72.238-.233C375.325,241.8,376.074,258.269,375.5,274.7Z" transform="translate(229.698 -218.611)" />
      <path class="a" d="M327.7,250.381c2.285,5.536,8.658,6.921,11.465,12.236,2.472,4.679-1.539,11.543.032,16.533l.038.495c2.5-.105,5.937-1.4,8.422-2.02,2.994-.744,3.886-1.991,6.118-3.081,2.2-1.076,4.7,1.2,6.973.671,3.814-.89,4.133.936,7.327,1.885,2.448.73,2.724-2.291,4.338-3.362,1.842-1.217,1.98-.7,3.638-.776a21.076,21.076,0,0,1,2.41.671c1.436.176,2.131-1.158,3.416-1.206,4.676-.173,1.666,2.745,5.561,3.765,3.643.952,7.486-.871,10.088,2.531a5.3,5.3,0,0,0,1-3.511c.9-16.452,1.423-32.948,2.4-49.389-22.086-.725-44.191-.7-66.269-1.431-1.934,4.863-2.8,9.342-6.48,13.231C324.034,242.007,330.162,246.767,327.7,250.381Z" transform="translate(146.508 -220.273)" />
      <path class="a" d="M288.332,333.287h1.785c-.081-5.969,1.455-6.724,4.365-11.5,2.816-4.622,4.917-9.52,7.868-13.761-2.437-4.079-4.614-8.622,0-11.865-2.58-1.485-6.372-5.918-9.488-5.385-1.582.27-3.029,1.4-4.63,1.809-3.216.822.176,2.437-.928,3.548-2.348,2.361-5.006-1.969-8.111-.154-3.3,1.934-6.651,3.678-10.556,3.535-4.977-.184-2.461,3.086-7.07,2.832-1.42-.076-.993-1.709-2.253-2.007-.86-.206-3.405.487-4.6.427-3.805-.187-7.595-4.127-11.105-2.932-3.283,1.117-7.768,2.856-9.585,6.039q4.767,5.278,9.542,10.553c2.2,2.431,9.647,8.13,9.5,11.587-.179,4.087,1.025,7.235,1.761,11.349a41.963,41.963,0,0,0,3.64,11.86,40.542,40.542,0,0,0,12.341-3.294c4.471-2.034,5.236,1.144,8.828-3.275,2.45-3.013,4.73-4.809,5.834-.165.541,2.275,3.321,1.022,3.846-.63C289.517,338.851,288.332,336.346,288.332,333.287Z" transform="translate(-11.47 -107.183)" />
      <path class="a" d="M259.237,262.386c1.807,1.988.855,6.075,1.993,8.606,2.629,5.845,4.114-1.366,4.725-1.452,2.786-.392,3.757,8.008,6.921,8.357,2.8.308,1.782-3.089,6.064-3.308,4.7-.241,1.555,7.043,2.272,9.266.633,1.955,2.943,2.285,4.319,3.416,2.083,1.715,1.42.847,2.434,3.054,1.093,2.385,2.364,10.808.068,11.76a19.469,19.469,0,0,1,.087,3.616h3.973c.736-7.43,10.045-2.629,12.815-6.789,1.331-2,4.857-.825,5.826-3.148.725-1.742.038-3.151-.222-4.741-4.149-1.455-11.565-11.462-7.835-15.765.46-.53-2.472-6.188-2.835-7.727a88.154,88.154,0,0,1-1.92-9.347c-6.161,2.78-7.662-1.122-9.9-5.788-2.142-4.471-9.326-1.893-12.13-.349-1.515.836-3.635,2.461-5.09,2.707-3.043.514-4.165-1.231-7.308.541-4.214,2.377-8.758,3.056-11.941,6.9C252.4,261.815,258.6,261.685,259.237,262.386Z" transform="translate(18.408 -176.803)" />
      <path class="a" d="M280.943,268.732c3.292,2.147,5.139,1.355,8.26,4.43,2.7,2.659-.322,8.8,3.335,10.075q10.114-1.043,20.222-2.082c4.993-.514,11.251.779,16.409.9,4.157-2.578,6.713-4.206,9.585-8.092,4.287-5.807,3.554-5.942.774-12.666a46.415,46.415,0,0,0-10.516-6.67c-1.861-.871-2.08-.043-4.173-2.01-1.263-1.185-2.9-3-4.108-4.287-.974-1.033-1.642-2.656-2.588-3.562-1.739-1.669-3.868-2.364-6.093-3.738-3.078-1.9-8.027-3.5-10.315-6.28-2.172,4.676,2.559,6.469,4.444,9.75-4.506,2.626-10.729-1.341-15.581-.508-4.422.76-10.375,5.077-13.415,8.33l-.068.241C284.927,254.352,274.444,264.494,280.943,268.732Z" transform="translate(61.983 -202.609)" />
      <path class="a" d="M296.532,261.294c2.226,1.374,4.354,2.069,6.093,3.738.947.906,1.615,2.529,2.588,3.562,1.212,1.287,2.845,3.1,4.108,4.287,2.093,1.966,2.312,1.139,4.173,2.01a46.415,46.415,0,0,1,10.516,6.67c3.267-.481,3.735-2.4,5.869-4.473.779-.757,2.423-.444,2.745-1.607.141-.5.062-2.3.649-2.545,1.59-.676,3,1.452,4.509,1.512,1.325.054,2.959-3.486,2.788-4.422-.941-5.166-3.516-8.255,2.634-10.015,5.328-1.525,8.5,3.335,13.639-.549.628-2.991-2.353-4.281-3.281-6.8-.752-2.042.311-4.176-1.082-6.08-1.228-1.674-2.818-3-4.044-4.687-2.185-3.013-4.909-6.159-6.415-9.482-1.523-3.356.276-3.632.076-7.027-15.476-.825-31.014-1.287-46.463-2.51-.246,2-1.647,3.191-2.431,4.982-1.425,3.259-1.458,6.383-1.6,9.764-.17,4.127-.06,4.693-1.685,8.56-1.1,2.607-3.127,6.11-3.708,8.839C288.5,257.791,293.454,259.4,296.532,261.294Z" transform="translate(77.5 -222.869)" />
      <path class="a" d="M307.239,230.824c1.507,3.324,4.23,6.469,6.415,9.482,1.225,1.69,2.816,3.013,4.044,4.687,1.393,1.9.33,4.038,1.082,6.08.928,2.523,3.908,3.814,3.281,6.8,4.019-2.088,5.918-7.643,9.888-9.374,1.845-.806,4.3.538,4.979-.241,1.471-1.7,1.4.344,2.878-.135.793-.257,1.442-1.312,2.445-1.566,1.371-.352,6.515,2.615,7.446,3.63,1.607,1.75,1.271,4.682,3.013,6.24,5.285,4.725,6.091-3.919,9.217-5.036,2.459-3.613-3.67-8.374.479-12.758,3.684-3.889,4.546-8.368,6.48-13.231-20.493-.611-41.045-.744-61.528-1.606l-.043,0C307.515,227.191,305.716,227.467,307.239,230.824Z" transform="translate(112.285 -221.287)" />
      <path class="a" d="M513.908,399.424c-2.935-1.336.714-8.536,1.46-11.268,1.325-4.863,4.779-11.687,4.476-16.671-.527-8.793-.939-17.594-1.585-26.373-.254-3.489-2.24-5.558-1.966-9.282s.692-7.489.757-11.232c.16-3.695-9.518-5.193-12.477-6.25-3.189-1.141-6.185-7.54-8.217-10.251-5,1.734-11.676,5.758-16.977,4.866-1.642-.276-8.073-.343-9-1.707q-3.12-4.592-6.237-9.185a35.572,35.572,0,0,0-10.424,12.109c-1.179,3.316-2.577,5.074-3.059,8.411-.024.157-1.3-.127-1.293.268.005,1.29,1.3,2.294,1.382,3.43a17.033,17.033,0,0,1-.546,4c-.268.993-2.047,5.834-1.452,6.175,1.09.622-1.431,2.572-1.939,3.751-.922,2.134-.281,1.92-.257,3.989.1,8.168,4.024,15.387,9.953,20.907a77.327,77.327,0,0,0,6.11,4.906c1.2.911.457,2.388,1.3,3.413.971,1.177,2.434,1.885,3.394,3.1.838,1.066,1.22,2.626,2.38,3.751,2.594,3.678,5.88,6.816,8.374,10.491,2.807,4.135,4.766,6.556,6.68,11.019a34.868,34.868,0,0,0,2.61,5.463c.876,1.114,2.2.579,3.216,1.5,2.3,2.091,4.057,6.429,5.244,9-.56.152-.909-.105-1.4-.108.606,6.564,8.363,7.686,8.974,14.023,3.235-5.482,7.348-10.524,10.8-15.9,1.139-1.774,2.261-4.866,4.152-6.018,3.54-2.153,6.453-2.583,5.647-7.159C520.594,405.461,517.418,401.02,513.908,399.424Z" transform="translate(350.414 -87.859)" />
      <path class="a" d="M532.95,324.573c-1.512-6.464-6.218-9.247-11.784-12.287-2.586,2.421-7.186.719-8.2,4.968-3.053-2.034-3.832-4.006-7.746-4.273-3.127-.211-2.816.346-6.039-1.285-4-2.02-6.67-1.49-10.827-.086-4.317,1.455-8.768-.311-13.19-1.147-.065,3.743-.482,7.5-.757,11.232s1.712,5.793,1.966,9.282c.646,8.779,1.058,17.58,1.585,26.373.3,4.985-3.151,11.808-4.476,16.671-.746,2.732-4.4,9.931-1.46,11.268,3.51,1.6,6.686,6.037,10.083,3.178,2.431-1.525,10.578-1.918,13.629-.82,2.318.838,2.84,1.961,5.393,1.685a33.547,33.547,0,0,1,6.875-.357c.736.076,1.682,1.068,3.562.979q6.012-.284,12.02-.571l18.213-.863q1.692-11.712,3.389-23.422.7-4.852,1.4-9.707c.319-2.215-2.837-6.4-3.811-8.444l-6.921-5.812C529.407,341.009,533.783,328.121,532.95,324.573Z" transform="translate(392.305 -73.723)" />
      <path class="a" d="M514.875,368.358c.495,0,.844.26,1.4.108-1.187-2.575-2.94-6.913-5.244-9-1.014-.92-2.339-.384-3.216-1.5a34.869,34.869,0,0,1-2.61-5.463c-1.915-4.463-3.873-6.883-6.68-11.019-2.494-3.676-5.78-6.813-8.374-10.491-3.124,3-9.55,1.268-13.369,1.125-4.928-.187-9.839-.206-14.773-.224-9.585-.032-18.4.406-27.7,2.691,2.486,5.022,5.612,10.14,7.4,15.449.879,2.61,2.659,3.786,4.227,5.834,2.175,2.845,1.041,4.836.133,7.911-.738,2.5-1.285,4.941-2.023,7.454-.773,2.632-3.548,5.966-3.675,8.56-.276,5.531,2.624,9.975-1.623,14.6,4.376,6.559,17.531,2.929,23.9,2.331l3.532-.333c.922-.087.173,1.728.874,1.939.441.135,2.348.295,2.5.379,3.419,1.847,7.465,3.846,11.2,5.393,4.3,1.788,8.463,3.946,12.669,5.947,3.651,1.739,6.069,1.612,9.9,2.294,2.713.484,8.225,1.46,10.878,1.149,3-.352,6.332-3.286,8.817-4.738l.021-.189.165.081c4.847-3.459,9.117-7.5,14.1-10.878-6.242-1.593-16.328-8.176-13.458-15.387C523.238,376.045,515.481,374.922,514.875,368.358Z" transform="translate(329.955 -38.561)" />
      <path class="a" d="M531.969,273.373c-1.547-3.619-7.332-3.8-10.513-4.955-2.77,4.046-1.35,1.371-4.644,1.9-1.506.241-1.8,0-3.5.765-3.705,1.666-7.435,3.275-11.162,4.9q-10.268,4.475-20.542,8.947c-3.31,1.444-7.749,2.529-10.321,5.242,4.465,2.058,3.6,8.057,5.171,12.258.9,2.385,1.712,7.519,3.5,9.355,1.447,1.482,6.356,1.969,8.392,2.6l.739-2.064c5.423,2.134,8.236,3.181,13.937,2.856,6.291-.36,12.576-.784,18.876-.955l.022,1.5a112.013,112.013,0,0,0,17.615-13.055,41.948,41.948,0,0,0,4.238-3.151c-2.886-7.008-9.509-10.743-11.154-18.437C532.077,278.512,532.915,275.583,531.969,273.373Z" transform="translate(392.975 -145.225)" />
      <path class="a" d="M530.035,373.533c-2.653.311-8.165-.665-10.878-1.149-3.83-.682-6.248-.555-9.9-2.294-4.206-2-8.365-4.16-12.669-5.947-3.735-1.547-7.781-3.546-11.2-5.393-.154-.084-2.061-.243-2.5-.379-.7-.211.049-2.026-.874-1.939l-3.532.333c-6.367.6-19.522,4.227-23.9-2.331-3.827,1.523-8.008,3.251-11.565,4.931-3.465,1.636-2.448,7.256-4.909,8.557-.987.522-3.47,1.3-3.941,2.077-.914,1.5-.1,4.349-1.317,5.417-3.53,3.081-3.335,6.61-7.822,8.244l58.907,60.081c.3-1.9,1.7-2.069,2.667-3.44s.173-3.546.292-5.158c.243-3.408,4.744-2.6,6.218-4.687,2.4-3.413,3.148-5.715,4.8-9.618,1.152-2.737.763-5.834,1.831-8.785-.084-6.369,10.378-3.4,13.412-1.617,4.709,2.759,4.284-.514,7.57-2.91,2.2-1.607,5.46-4.184,2.969-6.561l12.257-1.688c4.265-.584,4.022-1.233,6.3-5.047q5.834-9.785,11.67-19.568c-3.543,1.639-3.578,2.2-6.918-.189-2.356-1.685-5-4.985-7.96-5.785l-.187.108C536.366,370.247,533.031,373.181,530.035,373.533Z" transform="translate(314.127 1.399)" />
      <path class="a" d="M535.351,296.377c-4.381.13-2.672.725-4.779,3.838-2.816,4.16-9.445,3.124-13.036,6.356-2.118,1.907-4.287,3.692-6.648,1.433-1.433-1.371-.484-3.513-2.567-4.179-1.039-.333-5.231,1.025-6.418,1.223a22.118,22.118,0,0,1-8-.179c-4.179,4.474-3.578,7.605-3.778,13.6q-.321,9.509-.641,19.024c5.566,3.04,10.272,5.823,11.784,12.287.833,3.548-3.543,16.436,2.9,16.563,8.4-5.32,16.75-9.361,22.716-17.329,1.339-1.785,8.541-8.947,8.328-10.253-.706-4.279-1.534-8.53-2.358-12.788l7.7,2.2c1.187-2.21,5.063-2.694,5.807-4.365,1.217-2.74-1.815-3.267-2.28-5.572-.928-4.6,3.973-8.457,8.438-7.527-.879-2.962-3.851-2.64-5.847-3.778-3.905-2.223-4.522-7.476-6.34-11.357C538.117,298.73,537.685,296.31,535.351,296.377Z" transform="translate(423.991 -98.934)" />
      <path class="a" d="M558.452,290.467c-.636-4.254-6.464-10.883-8.8-14.681-3.638.722-4.087-2.937-6.651-4.633-3.067-2.029-7.292-1.934-10.781-2.169-.081-1.528-1.19-2.48-1.5-4.019-.208-1.044,1.2-2.423.122-3.924-1.469-2.039-5.512-1.225-7.622-1.942-6.072-2.056-8.2-8.622-15.048-8.912-1.49,3.738-2.188,7.765-3.689,11.57-1.428,3.616-3.914,6.959-5.185,10.578-3.173,9.015-6.821,17.98-9.472,27.16,3.181,1.158,8.966,1.336,10.513,4.955.947,2.21.108,5.139.654,7.706,1.645,7.695,8.268,11.43,11.154,18.437l13.469-9.355c3.424-2.377,8.39-4.611,10.729-8.168,3.229-4.917,5.688-3.167,10.2-5.753,1.317-.755.165-2.859,2.1-2,1.975.879.879-1.582,2.166-1.488,1.731.127,3.868,1.609,5.4,2.3C556.823,301.651,559.128,294.978,558.452,290.467Z" transform="translate(424.596 -176.302)" />
      <path class="a" d="M490.034,312.736c-.041,2.315-.933,6.245.763,7.9,3.286,3.21,2.791,4.265,2.621,8.939a22.119,22.119,0,0,0,8,.179c1.187-.2,5.38-1.555,6.418-1.223,2.082.665,1.133,2.807,2.567,4.179,2.361,2.258,4.53.473,6.648-1.433,3.592-3.232,10.221-2.2,13.036-6.356,2.107-3.113.4-3.708,4.779-3.838,2.334-.068,2.767,2.353,4.979-.8-1.06-2.188-1.582-4.668-2.513-6.948-1.017-2.486-1.125-5.991-2.02-8.079-.522-1.22-2.937-.809-2.388-2.651.76-2.54-2.247.07-3.481-.189-2.507-.527-3.833-3.053-5.2-4.958-1.742-2.434-4.747-3.459-6.68-5.6-3.2-3.53-5.642-7.676-9.528-10.778a112.019,112.019,0,0,1-17.615,13.055C490.718,300.238,490.131,306.591,490.034,312.736Z" transform="translate(424.473 -123.639)" />
      <path class="a" d="M363.925,369.835c3.451-1.9,6.513-6.1,9.434-8.779l21.615-19.776c-5.358-3.392-10.256-6.721-15.957-9.5-3.954-1.926-2.591-10.81-5.85-13.886L365.5,310.66c-3.776-3.562-.162-2.188.078-4.711.511-5.366-5.58-10.148-4.108-15.562-8.717,0-17.591-.938-26.189-.295-.609,3.57,2.042,6.367,1.523,10.286-.373,2.826-.371,5.647-.6,8.493l.043,0-.059.227c-1.864,4.647-6.881,4.733.349,5.774h-.022c1.4-.073,4.482.736,3.305,2.732-.711,1.206-4,.3-5.2.779-2.926,1.163-3.465,3.7-3.83,6.7-.633,5.22-3.24,8.568-2.242,13.953.495,2.68,2.964,14.1-3.437,12.055-4.035,3.064,1.425,4.525-.346,7.889-1.268,2.4-3.254,3.359-3.091,6.375.1,1.9,1.712,2.288,2.3,4.273l16.271-10.716c3.862,5.9,8.011,11.292,12.436,16.8l5.766-4.257C359.936,370.343,362.319,370.719,363.925,369.835Z" transform="translate(137.922 -108.664)" />
      <path class="a" d="M362.715,328.775c-1-5.385,1.609-8.733,2.242-13.953.365-3,.9-5.534,3.83-6.7,1.2-.481,4.49.427,5.2-.779,1.177-2-1.9-2.8-3.305-2.732h.022c-7.23-1.041-2.212-1.128-.349-5.774.005-.076.008-.149.016-.224-9.645.522-19.581-.833-29.261-1.206q-19.745-.763-39.493-1.528c2.009,3.486,3.565,7.841,6.862,10.232l5.8,4.211c-.078-.057-1.2,3.492-.914,4.5.706,2.488.6,4.043,2.859,5.244,3.118,1.652,3.067,1.847,3.448,5.382.53,4.9.9,8.127-.8,12.7,6.518.3,13.042.544,19.554.917,6.318.365,15.059-.792,20.85,1.761C365.679,342.874,363.21,331.455,362.715,328.775Z" transform="translate(103.753 -98.41)" />
      <path class="a" d="M309.729,323.406c-.822-2.94-3.429-3.121-5.09-5.35a56.318,56.318,0,0,0-6.337-7.376c-1.72-1.607-4.963-2.683-6.058-4.644-2.624-4.7-4.162-9.034-10.44-9.15a79.282,79.282,0,0,0-13.683.7c-2.951,4.241-5.052,9.139-7.868,13.761-2.91,4.774-4.446,5.528-4.365,11.5H254.1c0,3.059,1.185,5.563.982,8.574,4.281,2.3,5.544.641,9.931-.265,3.419-.706,7.029.251,10.245.327l33.286.8C308.91,329.833,310.413,325.841,309.729,323.406Z" transform="translate(22.759 -96.737)" />
      <path class="a" d="M348.059,341.644c-.381-3.535-.33-3.73-3.448-5.382-2.264-1.2-2.153-2.756-2.859-5.244-.287-1.011.836-4.56.914-4.5l-5.8-4.211c-3.3-2.391-4.852-6.745-6.862-10.232-2.334-4.365-4.614-8.766-7.029-13.088-1.536-2.751-3.329-4.214-1.955-7.1.941-1.977-.208-3.7-2.018-4.806-3.824,1.926-8.095.3-11.9.644-4.425.4-6.818,1.144-10.783-1.342q-.957,17.879-1.915,35.755c-.554,10.37-9.777,18.657-9.426,28.961,20.682,1.068,41.594,3.443,62.28,3.243C348.954,349.771,348.589,346.548,348.059,341.644Z" transform="translate(75.37 -114.601)" />
      <path class="a" d="M425.565,387.209c-5.4-4.549-10.529-9.442-15.649-14.3-3.719-3.527-11.192-14.965-16.72-14.651,2.415-2.283,5.209-2.659,8.4-1.918,3.965.928.96-2.442.89-3.949-.251-5.693,7.254-6.532,7.714-11.762.376-4.26-3.87-7.549-.8-12.076,2.878-4.241,9.653-7.327,14.494-8.882l.013-.005c1.842,2.675,5.623,3.773,7.925,6.148a49.844,49.844,0,0,1,6.334,7.873c1.628,2.588.882,6.68,1.552,9.6.763,3.308,2.851,6.28.99,9.683l-.024.057c-2.84,4.852,4.3,9.058.235,14.318Q433.241,377.277,425.565,387.209Z" transform="translate(259.862 -57.869)" />
      <path class="a" d="M405.164,378.671c1.555,5.174,8.011,9.3,11.662,13.007q6.227,6.321,12.447,12.639,14.812,15.035,29.621,30.073c4.487-1.634,4.292-5.163,7.822-8.244,1.22-1.068.4-3.919,1.317-5.417.471-.774,2.953-1.555,3.941-2.077,2.461-1.3,1.444-6.921,4.909-8.557,3.557-1.68,7.738-3.408,11.565-4.931,4.246-4.628,1.347-9.071,1.623-14.6.127-2.594,2.9-5.928,3.676-8.56.738-2.513,1.285-4.952,2.023-7.454.909-3.075,2.042-5.066-.133-7.911-1.569-2.047-3.348-3.224-4.227-5.834-1.791-5.309-4.917-10.426-7.4-15.449-4.1,2.567-4.265-8.336-6.158-10.6-3.346-4.011-8.79-7.484-13.242-10.075q-10.26,10.146-20.523,20.3c-1.523,1.507-9.233-.019-11.276-.092l-12.5-.449-.024.057c-2.84,4.852,4.3,9.058.235,14.318Q412.84,368.738,405.164,378.671Z" transform="translate(280.263 -49.331)" />
      <path class="a" d="M341.8,290.194c-2.245-1.225-1.474-2.691-2.166-4.768-.306-.922-5.09-.979-6.348-1.247-1.707-.365-2.045,2.523-3.762,3.164a22.423,22.423,0,0,1-6.3,1.377c-2.629.776-3.094,3.389-3.313,5.842-.157,1.753-4.682,1.644-5.647,1.766-3.889.49-13.694,3.294-15.76-1.271-1.1-2.431-2.567-1.028-4.146.26-2.072,1.688-5.3,1.306-7.787,1.709-3.992.649-9.877,2.4-13.258-.59-2.4.728-8.087.592-7.511,4.057.49,2.951-1.6,6.775-4.812,6.9-4.614,3.243-2.437,7.787,0,11.865a79.263,79.263,0,0,1,13.683-.7c6.277.116,7.816,4.452,10.44,9.15,1.1,1.961,4.338,3.037,6.058,4.644a56.328,56.328,0,0,1,6.337,7.376c1.661,2.229,4.268,2.41,5.09,5.35.684,2.434-.819,6.426-1.182,8.866,9.564.6,19.454,1.685,29.04.963-.352-10.3,8.871-18.592,9.426-28.961Q340.839,308.074,341.8,290.194Z" transform="translate(29.89 -118.412)" />
      <path class="a" d="M436.425,371.24c3.965.928.96-2.442.89-3.949-.251-5.693,7.254-6.532,7.714-11.762.376-4.26-3.87-7.549-.8-12.076,2.878-4.241,9.653-7.327,14.494-8.882v-.022c-1.625-1.9-3.3-3.995-5.9-4.26-2.951-.3-7.2.536-9.539-1.479-2.5-2.15.657-6-.143-8.744-.679-2.323-3.573-4.241-4.868-6.221-4.422,1.855-9.2-3.646-14.291-2.843-6.369,1.006-12.111-.038-18.5-.07-2.569-.014-4.025,1.588-6.345,2.315-3.335,1.044-7.051,1.036-10.5,1.279-3.127.222-14.608,6.837-15.227.046l-.646.7c1,4.254.6,6.989,5.326,9.361,4.092,2.058,5.09,1.815,8.509-1.29,3.232-2.935,5.92-3.83,8.6.151.968,1.439.911,3.576,1.918,5.158.641,1,2.507,2.794,2.791,3.521,1.4,3.6-2.258,5.242-1.428,8.76.189.8,2.112,2.818,2.688,3.6,1.09,1.479-.13,3,.257,4.728.925,4.116,4.23,7.059,1.085,10.981-3.535,4.408-6.034,6.975-7.695,12.455l.295.005,32.923.457C430.445,370.875,433.239,370.5,436.425,371.24Z" transform="translate(225.028 -72.771)" />
      <path class="a" d="M412.578,311.142c-4.07.657-6.456,5.028-10.921,4.671-2.129-.17-2.031-2.237-4.363-.63a5.536,5.536,0,0,1-4.833.576c-1.791,1.19-6.9,2.651-7.8-.481-.611-2.115-5.509-.387-4.119-3.213-1.939-.414-3.494-2.007-5.114-3.189l-21.615,19.776c-2.921,2.675-5.983,6.881-9.434,8.779-1.607.884-3.989.508-5.482,1.609l-5.766,4.257c3.424,4.63,7.838,8.244,7.343,14.118-.49,5.791-1.177,11.573-1.763,17.356q33.4.158,66.81.189l7.1-63.832Z" transform="translate(157.47 -76.26)" />
      <path class="a" d="M423.355,352.5c-.387-1.723.833-3.248-.257-4.728-.576-.782-2.5-2.8-2.688-3.6-.83-3.519,2.832-5.158,1.428-8.76-.284-.728-2.15-2.518-2.791-3.521-1.006-1.582-.949-3.719-1.918-5.158-2.68-3.981-5.369-3.086-8.6-.151-3.419,3.1-4.417,3.348-8.509,1.29-4.725-2.372-4.325-5.106-5.326-9.361-1.147-2.191-2.775-1.888-3.8-4.419-1.642-4.084-2.475-.073-3.478.295-1.241.454-3.981-.189-4.79,1.085-.925,1.461,1.385,3.275-1.239,3.576-2.15.246-2.12-2.845-3.17-3.294-1.068-.46-1.88,2.134-3.484,1.983-4.3-.406-3.646-13.45-7.738-6.856l-7.105,63.832,56.851,1.225c1.661-5.48,4.16-8.046,7.695-12.455C427.585,359.56,424.28,356.617,423.355,352.5Z" transform="translate(203.094 -76.012)" />
    </g>
    <g class="counties__active" transform="translate(823.167 281.505)">
      <path data-county="chatham" class="b" d="M478.794,311.646q2.747-9.445,5.5-18.884c2.4-8.26,4.776-15.186,7.284-23.887l-16.006.373c-10.967.679-21.118-.563-32.053-1.742.251,1.812.178,3.711,1.228,5.225-14.05,1.039-28.547.027-42.657,0-.652,18.264-1.3,36.521-2.1,54.777l29.291.411-.016-.122c.638-2.5,7.465-2.164,3.63-4.549.976-.444,3.121-1.669,4.26-1.271,1.279.446-.154,2.437,2.134,2.091,3.757-.571,3.535-5.964,7.175-5.185-.922,5.031,6.251-3.405,7.127-4.246,3.446-3.31,3.7-7.156,9.75-5.182,2.213.722,6.05,3.346,6.986,5.637,1.312,3.213,1.247,5.531,4.419,7.47,2.388,1.458,5.115,2.2,7.054,4.333l7.568-10.448C487.292,315.711,478.174,313.769,478.794,311.646Z" transform="translate(-399.989 -205.416)" />
      <path class="c" data-county="wake" d="M466.236,261.171c5.212-.106,3.995,8.758,2.256,11.725-1.615,2.753-3.356,6.8-6.789,7.641-2,.49-5.742-2.3-6.391-.022-.289,1.011-2.015,9.128-2.745,9.131q-5.319.012-10.64.027c-2.507,8.7-4.879,15.627-7.284,23.887q-2.751,9.441-5.5,18.884c-.619,2.123,8.5,4.065,10.572,4.8q15.327,4.9,30.581,9.991,15.8-14.767,31.6-29.537c3.5-3.273,10.3-6.1,14.448-8.871q8.6-5.749,17.188-11.495l.046-.295c-.565-5.658-5.366-9.929-9.152-12.109-2.239-1.287-1.6-1.052-3.191-2.837-2-2.261-4.663-2.572-6.907-4.368-1.709-1.366-1.9-4.171-3.305-6.145-1.12-1.582-4.728-2.123-6.572-2.856-4.038-1.6-8.282-3.083-12.19-4.982q-7.075-3.144-14.2-6.172c-5.726-2.429-8.1-2.2-14.172-2.264-.93,1.953-1.063,4.482-1.463,6.429C461.706,265.258,465.958,261.177,466.236,261.171Z" transform="translate(-350.34 -226.214)" />
      <path class="d" data-county="durham" d="M443.94,307.8q5.323-.016,10.64-.027c.73,0,2.456-8.119,2.745-9.131.649-2.277,4.387.511,6.391.022,3.432-.836,5.174-4.887,6.789-7.641,1.739-2.967,2.956-11.83-2.256-11.725-.279.005-4.53,4.087-3.805.563.4-1.947.533-4.476,1.463-6.429-7.1.1-8.63-1.982-8.639-8.6-.008-6.559.844-13.277.49-19.8l-20.314-.373q-4.942,31.725-9.51,63.51Z" transform="translate(-352.353 -244.346)" />
      <path class="e" data-county="orange" d="M416.493,276.5c-.127,5.171-.582,10.367-.936,15.525-.157,2.272-1.233,6.188-.582,8.4.511,1.728,2.58,4.189,3.348,6.213,10.935,1.179,21.085,2.421,32.053,1.742q4.572-31.782,9.51-63.51H430.6c-4.585.322-9.374-.178-13.994-.322C416.993,255.132,416.758,265.945,416.493,276.5Z" transform="translate(-374.796 -244.549)" />
    </g>
  </g>
</svg>
