<svg xmlns="http://www.w3.org/2000/svg" xmlns:xlink="http://www.w3.org/1999/xlink" width="236" height="109.601" viewBox="0 0 236 109.601"><defs><style>.a,.d{fill:#fff;}.b{fill:#897966;}.c{clip-path:url(#a);}.d{stroke:#2b2e34;stroke-width:0.471px;}</style><clipPath id="a"><path class="a" d="M0-18.682H236v-109.6H0Z" transform="translate(0 128.283)"/></clipPath></defs><g transform="translate(0 128.283)"><g class="c" transform="translate(0 -128.283)"><g transform="translate(0.196 67.569)"><path class="a" d="M-40.056-7.143l-234.988.124,0-41.588c0-.455.365-.865.638.41.865,2.915,4.569,8.38,6.741,11.342,7.242,8.335,19.583,17.63,39.26,17.811,21.316.2,33.706-11.3,33.706-11.3H-40.009Z" transform="translate(275.044 49.051)"/></g><g transform="translate(31.885 31.978)"><path class="a" d="M-2.516-5.082A14.833,14.833,0,0,0,12.239-19.991,14.831,14.831,0,0,0-2.516-34.9,14.831,14.831,0,0,0-17.279-19.991,14.833,14.833,0,0,0-2.516-5.082" transform="translate(17.279 34.898)"/></g><g transform="translate(70.316 42.415)"><path class="a" d="M-.46,0V3.306H1.451c.09,0,.207,0,.207.162,0,.49-.977.674-1.721.674h-.4V11.29c0,.768.115,1.422,1.046,1.422a2.639,2.639,0,0,0,1.421-.561l-.091,1a2.9,2.9,0,0,1-2,.907c-1.535,0-2.095-1-2.095-2.419v-7.5h-.977V3.4l.977-.091L-2.09.442Z" transform="translate(3.161)"/></g><g transform="translate(77.229 45.346)"><path class="a" d="M-.1-.7c0-1.655,0-3.26-.6-3.749.863-.024,1.676-.117,1.956-.117.419,0,.162,1.163.419,1.163.117,0,.883-1.4,2.256-1.4.816,0,1.282.326,1.282.886a.713.713,0,0,1-.813.769c-.442,0-.91-.071-1.47-.071-1.161,0-1.3.813-1.3,1.839v4.8a5.049,5.049,0,0,0,.419,2.537H-.522A5.049,5.049,0,0,0-.1,3.42Z" transform="translate(0.707 4.798)"/></g><g transform="translate(84.817 41.484)"><path class="a" d="M-.286,0,.784,1.558-.89,2.652-1.962,1.141ZM.3,3.863V12.1a4.924,4.924,0,0,0,.418,2.514h-2.56A4.915,4.915,0,0,0-1.425,12.1V5.82c-.024-.794-.024-1.259-.513-1.584Z" transform="translate(1.962)"/></g><g transform="translate(89.728 45.346)"><path class="a" d="M-1.043-1.857c-.209-.86-.185-1.441-.372-1.441a.145.145,0,0,0-.138.071,2.82,2.82,0,0,1-2.725,1.6A2.578,2.578,0,0,1-7.165-4.208c0-2.025,2.631-2.864,4.192-3.607C-1.647-8.445-1.321-8.49-1.321-10c0-1.164-.442-2.05-1.817-2.05-2.209,0-1.3,2.235-2.816,2.235a.76.76,0,0,1-.86-.813c0-1.584,2.351-2.121,4.142-2.121,1.653,0,3.075.374,3.075,1.888v5.118C.4-4.37.332-2.95,1.053-2Zm-2.373-1.07c1.4,0,2.095-1.255,2.095-2.584V-7.862l-1.258.628c-1.721.86-2.631,1.326-2.631,2.654A1.582,1.582,0,0,0-3.416-2.927" transform="translate(7.165 12.752)"/></g><g transform="translate(99.552 45.346)"><path class="a" d="M-.369-.04V.775c0,.186-.021.373.141.373.209,0,1.234-1.422,3.049-1.422,1.746,0,2.839.86,2.839,3.028V7.969a5.432,5.432,0,0,0,.374,2.514h-2.1V4.1c0-1.49-.208-3.119-2.069-3.119C.029.985-.322,2.637-.322,4.222V7.969A4.913,4.913,0,0,0,.1,10.483H-2.461a4.94,4.94,0,0,0,.416-2.514V2.429A3.33,3.33,0,0,0-2.532.1Z" transform="translate(2.532 0.273)"/></g><g transform="translate(109.467 45.346)"><path class="a" d="M-.932,0A6.13,6.13,0,0,1,.44.186a5.922,5.922,0,0,0,.954.188c.279,0,.536-.024.815-.048C2.464.3,2.746.28,3,.28c.1,0,.118.023.118.094,0,.395-.021.536-.3.557l-1.048.1a2.611,2.611,0,0,1,.559,1.792c0,1.813-1,2.725-3.025,3.35-.583.164-2.466.977-2.466,1.793,0,1.607,7.33.956,7.33,4.561,0,2.537-4.468,4.982-6.679,4.982-2.306,0-3.888-1.048-3.888-3.072,0-2.582,3.282-3.653,3.282-4.258,0-.42-2-.185-2-1.745,0-1.306,2.422-1.469,2.422-1.981,0-.115-.141-.141-.233-.185A3.2,3.2,0,0,1-4.842,3.284C-4.842.886-2.865,0-.932,0m-.4,16.017c1.745,0,3.538-.886,3.538-2.863A2.68,2.68,0,0,0-.14,10.733a11.492,11.492,0,0,0-1.608-.348C-2,10.385-4.68,11.616-4.68,13.5c0,1.746,1.933,2.515,3.352,2.515M.6,3.26C.6,1.909.022.654-1.213.654s-1.674,1.07-1.674,2.233c0,1.376.581,2.631,1.954,2.631C.16,5.518.6,4.448.6,3.26" transform="translate(6.403)"/></g><g transform="translate(121.386 39.807)"><path class="a" d="M-.032-2.778A4.941,4.941,0,0,0,.384-5.292V-16.373c0-.952,0-1.862-.6-2.327l2.326-.372v13.78a4.924,4.924,0,0,0,.418,2.514Z" transform="translate(0.218 19.072)"/></g><g transform="translate(126.572 45.346)"><path class="a" d="M-.349-.69A11.405,11.405,0,0,0-.442.614c0,2.165.978,4.237,3.4,4.237A3.951,3.951,0,0,0,5.773,3.758v.254c0,1.236-1.954,2.374-3.678,2.374C-.953,6.386-2.4,3.64-2.4.822-2.4-2.2-.721-4.741,2.468-4.741c2.235,0,3.561,1.467,3.561,2.981,0,1.07-.766,1.07-2.21,1.07Zm2.537-.7c1.141,0,1.746,0,1.746-.884a1.736,1.736,0,0,0-1.769-1.77C.7-4.043.071-2.62-.211-1.388Z" transform="translate(2.399 4.741)"/></g><g transform="translate(142.473 45.346)"><path class="a" d="M-1.321-.449h-.117C-2-1.523-2.414-2.242-3.766-2.242c-2.072,0-3.212,2.141-3.212,4.7,0,2.328.86,4.282,3.42,4.282A3.606,3.606,0,0,0-1.018,5.7v.369c0,1.213-1.631,1.98-3.4,1.98-2.932,0-4.653-2.4-4.653-5.215,0-3.351,2.163-5.912,5.607-5.912a5.115,5.115,0,0,1,2.144.326Z" transform="translate(9.072 3.081)"/></g><g transform="translate(151.69 45.346)"><path class="a" d="M-.765-1.9c-3.209,0-4.491-2.628-4.491-5.168,0-3.606,2-5.959,5.492-5.959,3.213,0,4.492,2.632,4.492,5.167,0,3.611-2,5.96-5.494,5.96M0-2.734c2.188,0,2.771-2.166,2.771-4.1,0-2.722-.839-5.353-3.307-5.353-2.185,0-2.769,2.165-2.769,4.1,0,2.722.84,5.353,3.306,5.353" transform="translate(5.256 13.024)"/></g><g transform="translate(163.28 45.346)"><path class="a" d="M-.083-.46A3.323,3.323,0,0,0-.572-2.788l2.35-.141v.816c0,.185,0,.373.141.373s1.4-1.423,2.886-1.423c2.025,0,2.164,1.841,2.49,1.841.279,0,1.234-1.841,2.91-1.841,1.561,0,2.651.86,2.651,3.028V5.08a5.43,5.43,0,0,0,.374,2.514H11.136V1.216c0-1.491-.211-3.119-1.77-3.119C7.505-1.9,7.248-.322,7.248,1.45V5.08a4.911,4.911,0,0,0,.419,2.514H5.107A4.911,4.911,0,0,0,5.526,5.08V1.216C5.526-.275,5.319-1.9,3.758-1.9,1.9-1.9,1.64-.322,1.64,1.45V5.08a4.92,4.92,0,0,0,.418,2.514H-.5A4.911,4.911,0,0,0-.083,5.08Z" transform="translate(0.572 3.162)"/></g><g transform="translate(179.225 45.346)"><path class="a" d="M-.083-.46A3.323,3.323,0,0,0-.572-2.788l2.35-.141v.816c0,.185,0,.373.141.373s1.4-1.423,2.887-1.423c2.024,0,2.162,1.841,2.49,1.841.279,0,1.234-1.841,2.908-1.841,1.561,0,2.655.86,2.655,3.028V5.08a5.5,5.5,0,0,0,.369,2.514H11.137V1.216c0-1.491-.212-3.119-1.771-3.119C7.505-1.9,7.249-.322,7.249,1.45V5.08a4.92,4.92,0,0,0,.418,2.514H5.108A4.92,4.92,0,0,0,5.526,5.08V1.216C5.526-.275,5.319-1.9,3.757-1.9c-1.863,0-2.12,1.581-2.12,3.353V5.08a4.894,4.894,0,0,0,.42,2.514H-.5A4.885,4.885,0,0,0-.083,5.08Z" transform="translate(0.572 3.162)"/></g><g transform="translate(194.779 45.346)"><path class="a" d="M-1.107-.334c0-.795-.023-1.259-.513-1.584L.614-2.292V6.137c0,.953,0,1.862.491,2.326L-1.083,8.6V7.788c0-.185-.024-.37-.117-.37A4.442,4.442,0,0,1-4.249,8.835a2.793,2.793,0,0,1-2.84-3.118V-.428c0-.792-.021-1.258-.511-1.584.625-.094,1.558-.28,1.884-.28.3,0,.35.186.35.513V4.46c0,1.49.208,3.12,2.071,3.12,2.118,0,2.188-2.329,2.188-3.913Z" transform="translate(7.6 2.292)"/></g><g transform="translate(205.579 45.346)"><path class="a" d="M-.369-.04V.775c0,.186-.021.373.141.373.207,0,1.235-1.422,3.047-1.422,1.746,0,2.842.86,2.842,3.028V7.969a5.454,5.454,0,0,0,.373,2.514H3.938V4.1c0-1.49-.208-3.119-2.072-3.119C.029.985-.322,2.637-.322,4.222V7.969A4.913,4.913,0,0,0,.1,10.483H-2.464a4.913,4.913,0,0,0,.419-2.514V2.429A3.33,3.33,0,0,0-2.532.1Z" transform="translate(2.532 0.273)"/></g><g transform="translate(216.706 41.484)"><path class="a" d="M-.286,0,.784,1.558-.891,2.652l-1.07-1.511ZM.3,3.863V12.1a4.915,4.915,0,0,0,.419,2.514H-1.845A4.924,4.924,0,0,0-1.427,12.1V5.82c-.024-.794-.024-1.259-.513-1.584Z" transform="translate(1.961)"/></g><g transform="translate(221.615 42.415)"><path class="a" d="M-.46,0V3.306H1.452c.091,0,.207,0,.207.162,0,.49-.977.674-1.722.674h-.4V11.29c0,.768.115,1.422,1.047,1.422a2.639,2.639,0,0,0,1.422-.561l-.093,1a2.888,2.888,0,0,1-2,.907c-1.535,0-2.095-1-2.095-2.419v-7.5h-.978V3.4l.978-.091L-2.088.442Z" transform="translate(3.159)"/></g><g transform="translate(223.71 45.579)"><path class="a" d="M-2.095-.024a14.722,14.722,0,0,0-.954,2.05l-3.282,8.4c-.628,1.582-2.819,6.679-6.028,6.679-.654,0-2.027-.162-2.027-1.068,0-.211.068-.42.325-.42.3,0,.816.045,1.211.045,2.538,0,2.957-.419,3.747-1.559a7.019,7.019,0,0,0,1.375-3.887A4.994,4.994,0,0,0-7.984,8.5L-9.008,5.028c-.348-1.189-1.211-4.074-2-5.052.466-.047,1.441-.141,1.723-.141.395,0,.513.211.651.677l2,6.82c.117.374.161.7.326.7.139,0,.233-.375.348-.7l1.188-3.7A13.057,13.057,0,0,0-4.1.812a1.373,1.373,0,0,0-.256-.836Z" transform="translate(14.385 0.165)"/></g><g transform="translate(90.425 63.789)"><path class="a" d="M-.463-2.077A6.064,6.064,0,0,0,.07,1.072H-3.176a6.073,6.073,0,0,0,.531-3.149v-9.038a6.079,6.079,0,0,0-.483-3.148H4.38c.607,0,1.115,0,1.115.217v1.873H5.373c-.677-1.1-2.2-1.127-3.341-1.127H-.463v6.179c1.864,0,3.827,0,5.693-.171-.85,1.37-3.587,1.37-5.086,1.37H-.463Z" transform="translate(3.176 14.264)"/></g><g transform="translate(101.662 63.403)"><path class="a" d="M-1.247-2.745c-5.086,0-7.317-3.461-7.317-7.74,0-4.567,2.666-8.366,7.706-8.366,5.085,0,7.315,3.464,7.315,7.741,0,4.568-2.665,8.365-7.7,8.365m.194-15.046c-3.488,0-4.99,3.171-4.99,6.634,0,3.172,1.089,7.354,4.99,7.354,3.489,0,4.99-3.171,4.99-6.632,0-3.172-1.088-7.355-4.99-7.355" transform="translate(8.564 18.851)"/></g><g transform="translate(119.637 63.788)"><path class="a" d="M-2.242,0a6.174,6.174,0,0,0-.536,3.175v9.036a5.909,5.909,0,0,0,.536,3.126l-2.885.143.1-1.584c0-.073-.047-.1-.12-.1-.049,0-.145.145-.29.267a7.006,7.006,0,0,1-4.675,1.657c-2.811,0-4.674-1.129-4.745-4.086V3.175A6.2,6.2,0,0,0-15.4,0h3.245a6.174,6.174,0,0,0-.536,3.175V10.2c.073,2.571,1.14,4.132,3.877,4.132,2.81,0,3.681-1.756,3.754-4.614.023-.914.1-1.851.1-2.765V3.175A6.217,6.217,0,0,0-5.49,0Z" transform="translate(15.395)"/></g><g transform="translate(135.938 63.788)"><path class="a" d="M0-2.614c.848-1.971.848-4.9.848-7.02v-5.118c0-1.179-.046-2.477-.774-3.2H2.52c.459,0,.678,0,.97.384.507.677,2.056,3.247,2.809,4.3l4.819,6.755c.171.239.365.574.51.574.169,0,.169-.239.169-.459v-8.481a6.064,6.064,0,0,0-.583-3.078h2.519a7.627,7.627,0,0,0-.725,3.583v9.616c0,.792.023,1.512.049,2.233H11.336L2.471-15.043c-.1-.144-.171-.263-.267-.263s-.145.146-.145.359v6.18c0,1.923-.047,4.35.729,6.153Z" transform="translate(0 17.951)"/></g><g transform="translate(152.359 63.552)"><path class="a" d="M-.091-.577A6.044,6.044,0,0,0-.627-3.726c2.449,0,4.894-.239,7.364-.237,4.046,0,6.807,3.028,6.807,7.33,0,5.359-3.728,8.339-8.332,8.339-2.446,0-4.144-.1-5.839-.1A6.033,6.033,0,0,0-.091,8.461ZM2.086,8.917c0,1.732.484,1.828,3.1,1.828,4.313,0,5.837-3.028,5.837-6.972C11.024-.385,8.748-3,4.411-3a13.86,13.86,0,0,0-2.3.192c0,.361-.026.745-.026,1.129Z" transform="translate(0.627 3.963)"/></g><g transform="translate(166.871 63.788)"><path class="a" d="M-2.246-2.614l-2.641-6.73h-5.448C-11.38-7.254-12.47-4.9-12.47-3.528a5.783,5.783,0,0,0,.073.914h-3.027l.534-.675c1.379-1.729,6.371-12.04,6.371-14.011l.023-.651h2.857c1.551,4.785,3.1,10,5.523,14.448l.484.889ZM-6.995-15.45c-.049-.167-.194-.577-.412-.577s-.361.457-.409.577l-2.109,5.143H-5.3Z" transform="translate(15.424 17.951)"/></g><g transform="translate(182.255 63.788)"><path class="a" d="M-.751-2.614A6.025,6.025,0,0,0-.215-5.763V-16.749H-3.439a2.616,2.616,0,0,0-1.719.53l.483-1.732H7.51c-.41,1.035-1.889,1.2-2.882,1.2H1.963V-5.763A6.059,6.059,0,0,0,2.5-2.614Z" transform="translate(5.158 17.951)"/></g><g transform="translate(197.489 63.789)"><path class="a" d="M-.091-.537A6.044,6.044,0,0,0-.627-3.688H2.62A6.061,6.061,0,0,0,2.086-.537V8.5a6.047,6.047,0,0,0,.534,3.149H-.627A6.03,6.03,0,0,0-.091,8.5Z" transform="translate(0.627 3.688)"/></g><g transform="translate(203.935 63.403)"><path class="a" d="M-1.247-2.745c-5.086,0-7.313-3.461-7.313-7.74,0-4.567,2.663-8.366,7.7-8.366,5.086,0,7.315,3.464,7.315,7.741,0,4.568-2.665,8.365-7.7,8.365m.2-15.046c-3.488,0-4.99,3.171-4.99,6.634,0,3.172,1.088,7.354,4.99,7.354,3.488,0,4.989-3.171,4.989-6.632,0-3.172-1.092-7.355-4.989-7.355" transform="translate(8.56 18.851)"/></g><g transform="translate(221.616 63.788)"><path class="a" d="M0-2.614c.848-1.971.848-4.9.848-7.02v-5.118c0-1.179-.049-2.477-.775-3.2H2.52c.461,0,.679,0,.97.386.507.675,2.058,3.246,2.807,4.3l4.819,6.755c.173.239.367.574.511.574.168,0,.168-.239.168-.459v-8.481a6.112,6.112,0,0,0-.578-3.078h2.517a7.637,7.637,0,0,0-.725,3.583v9.616c0,.792.025,1.512.049,2.233H11.336L2.471-15.043c-.1-.144-.168-.263-.267-.263s-.144.146-.144.359v6.18c0,1.923-.05,4.35.725,6.153Z" transform="translate(0 17.951)"/></g><g transform="translate(0 0)"><path class="a" d="M-4.615-.087A5.01,5.01,0,0,0-6.808-.6H-26.626a5.077,5.077,0,0,0-5.06,5.06V24.355a5.21,5.21,0,0,0,.073.821,52.035,52.035,0,0,1,27-25.263" transform="translate(31.686 0.598)"/></g><g transform="translate(6.651 31.91)"><path class="a" d="M-3.97,0h-20.2A38.145,38.145,0,0,0-24.2,30.01H-3.97Z" transform="translate(27.257)"/></g><g transform="translate(24.934 63.872)"><path class="a" d="M-.844-.843V-5.789H-5.792A4.963,4.963,0,0,1-.844-.843" transform="translate(5.792 5.789)"/></g><g transform="translate(24.934 63.872)"><path class="d" d="M-.844-.843V-5.789H-5.792A4.963,4.963,0,0,1-.844-.843Z" transform="translate(5.792 5.789)"/></g><g transform="translate(10.669 63.872)"><path class="a" d="M-2.419,0H-16.61A40.432,40.432,0,0,0,2.6,18.654V5.019A5.037,5.037,0,0,0-2.419,0" transform="translate(16.61)"/></g><g transform="translate(10.669 63.872)"><path class="d" d="M-2.419,0H-16.61A40.432,40.432,0,0,0,2.6,18.654V5.019A5.037,5.037,0,0,0-2.419,0Z" transform="translate(16.61)"/></g><g transform="translate(24.934 25.008)"><path class="a" d="M0-.844H4.948V-5.793A4.963,4.963,0,0,1,0-.844" transform="translate(0 5.793)"/></g><g transform="translate(24.934 25.008)"><path class="d" d="M0-.844H4.948V-5.793A4.963,4.963,0,0,1,0-.844Z" transform="translate(0 5.793)"/></g><g transform="translate(10.702 11.376)"><path class="a" d="M-3.269-2.311v-13.56A40.408,40.408,0,0,0-22.45,2.711H-8.291A5.037,5.037,0,0,0-3.269-2.311" transform="translate(22.45 15.871)"/></g><g transform="translate(10.702 11.376)"><path class="d" d="M-3.269-2.311v-13.56A40.408,40.408,0,0,0-22.45,2.711H-8.291A5.037,5.037,0,0,0-3.269-2.311Z" transform="translate(22.45 15.871)"/></g><g transform="translate(31.828 63.816)"><path class="a" d="M0,0V19.621a42.8,42.8,0,0,0,16.244,3.171,43.043,43.043,0,0,0,13.695-2.229V0Z"/></g><g transform="translate(63.657 63.816)"><path class="a" d="M-3.734,0H-25.64V19.877A40.855,40.855,0,0,0-3.734,0" transform="translate(25.64)"/></g></g><path class="b" d="M104.14,3.082A3,3,0,0,1,107.366,0a4.432,4.432,0,0,1,1.73.314L109.188,0h.392L109.5,1.783h-.394l-.143-.774a2.472,2.472,0,0,0-1.692-.537c-1.219,0-2.058.944-2.058,2.505a2.331,2.331,0,0,0,2.177,2.61,2.753,2.753,0,0,0,2.032-.776l.248.355a3.23,3.23,0,0,1-2.4.917A2.969,2.969,0,0,1,104.14,3.082Zm-2.852,2.844L97.223,1.508V5.349l.933.158v.368H95.742V5.506l.931-.158V.917l-.25-.261L95.742.577V.209H97.29l3.749,4.1V.735l-.93-.158V.209h2.412V.577l-.931.158v5.19Zm10.368-.052V5.506l.944-.1V.681l-.944-.1V.209h4.707V1.691h-.419L115.8.681h-2.254V2.675h1.545l.106-.629h.392V3.775H115.2l-.106-.63h-1.545V5.4h2.333l.169-1.063h.445V5.874Zm-22.822,0V5.506l.944-.1V.681l-.944-.1V.209h4.71V1.691h-.422L92.978.681H90.724V2.675H92.27l.105-.629h.394V3.775h-.394l-.105-.63H90.724V5.4h2.334l.169-1.063h.447V5.874Zm-3.293,0L83.759,3.526l-.787.052V5.4l1,.1v.368H81.084V5.506l.943-.1V.681l-.943-.1V.209H83.8c1.049,0,2.124.393,2.124,1.443a1.758,1.758,0,0,1-1.3,1.665L86.368,5.4l.693.1v.368ZM82.971.681V3.093h.537A1.254,1.254,0,0,0,84.925,1.77,1.177,1.177,0,0,0,83.6.629,4.9,4.9,0,0,0,82.971.681ZM74.124,5.874V5.506l.944-.1V.681l-.944-.1V.209h4.707V1.691h-.419L78.266.681H76.012V2.675h1.546l.106-.629h.393V3.775h-.393l-.106-.63H76.012V5.4h2.335l.17-1.063h.444V5.874Zm-6.736,0V5.506l.944-.1V.681l-.944-.1V.209h4.705V1.691h-.418L71.53.681H69.276V2.753h1.546l.106-.63h.393V3.854h-.393l-.106-.63H69.276V5.4l1.194.1v.368Zm-6.736,0V5.506l.943-.1V.681l-.943-.1V.209h4.707V1.691h-.42L64.795.681H62.539V2.753h1.548l.1-.63h.393V3.854h-.393l-.1-.63H62.539V5.4l1.193.1v.368Zm-4.907,0V5.506l.945-.1V.681l-.945-.1V.209h2.831V.577l-.943.1V5.4l.943.1v.368Zm-7.845,0V5.506l.786-.1V.682L47.9.577V.209h2.818c1.783,0,3.316.957,3.316,2.767,0,1.783-1.311,2.9-3.33,2.9ZM49.631.682V5.349a4.356,4.356,0,0,0,.864.1c1.653,0,2.466-.721,2.466-2.371S52.081.629,50.391.629A5.044,5.044,0,0,0,49.631.682Zm-9.76,5.192V5.506l.982-.1-.537-1.246H38.034L37.51,5.388l.983.118v.368H36.24V5.506l.72-.131L39.2.1h.419L41.89,5.4l.707.1v.368ZM38.23,3.683H40.12l-.931-2.229h-.026ZM25.954,5.874V5.506l.944-.1V.681l-.944-.1V.209h4.707V1.691h-.42L30.1.681H27.841V2.675h1.548l.1-.629h.393V3.775h-.393l-.1-.63H27.841V5.4h2.334l.171-1.063h.447V5.874Zm-3.373,0L20.324,3.3H20V5.4l.944.1v.368H18.109V5.506l.944-.1V.681l-.944-.1V.209h2.832V.577L20,.681V2.937h.078L22.41.681l-.63-.1V.209h2.177V.577l-.866.1-2.15,2.033,2.465,2.661.707.131v.368Zm-8.933,0V5.506l.984-.1-.538-1.246H11.812l-.524,1.233.983.118v.368H10.016V5.506l.72-.131L12.979.1h.42l2.268,5.3.707.1v.368ZM12.009,3.683H13.9l-.931-2.229H12.94ZM5.519,5.874V5.506l.943-.1L6.2,1.454l-2.15,4.42h-.21L1.73,1.56,1.494,5.348l.944.158v.368H0V5.506l.943-.158L1.257.681.314.577V.209H2.1L4.168,4.5,6.253.209H8.024V.577L7.079.656,7.407,5.4l.944.1v.368Z" transform="translate(100.084 -33.377)"/></g></svg>