<svg xmlns="http://www.w3.org/2000/svg" viewBox="0 0 236 109.6"><defs><clipPath id="clip-path"><path fill="none" d="M0 0h236v109.6H0z"/></clipPath><style>.cls-3{fill:#fff}</style></defs><g id="Layer_2" data-name="Layer 2"><g id="Layer_1-2" data-name="Layer 1"><g clip-path="url(#clip-path)"><path class="cls-3" d="M235.18 109.48L.2 109.6V68c0-.45.36-.86.63.41.87 2.93 4.57 8.39 6.74 11.35 7.25 8.34 19.59 17.63 39.26 17.81 21.32.2 33.71-11.3 33.71-11.3h154.69zM46.65 61.79a14.91 14.91 0 000-29.81 14.85 14.85 0 00-14.77 14.9 14.82 14.82 0 0014.76 14.91M73 42.41v3.31h1.91c.09 0 .21 0 .21.16 0 .49-1 .68-1.73.68H73v7.14c0 .77.12 1.43 1 1.43a2.65 2.65 0 001.42-.57l-.09 1a2.88 2.88 0 01-2 .91c-1.53 0-2.09-1-2.09-2.42v-7.5h-1v-.74l1-.09.09-2.86zm4.84 7.03c0-1.65 0-3.26-.6-3.75.86 0 1.67-.11 2-.11s.16 1.16.42 1.16.88-1.4 2.26-1.4c.81 0 1.28.33 1.28.89a.72.72 0 01-.65.77h-.16c-.45 0-.91-.07-1.47-.07-1.17 0-1.3.82-1.3 1.84v4.8A5 5 0 0080 56.1h-2.59a5 5 0 00.43-2.54zm8.65-7.96L87.56 43l-1.67 1.09-1.07-1.51zm.59 3.87v8.23a5 5 0 00.42 2.52h-2.56a5 5 0 00.41-2.52V47.3c0-.79 0-1.26-.51-1.58zm8.77 10.89c-.21-.86-.19-1.44-.37-1.44a.13.13 0 00-.14.07 2.84 2.84 0 01-2.73 1.6 2.57 2.57 0 01-2.86-2.25 1.83 1.83 0 010-.33c0-2 2.63-2.87 4.19-3.61 1.33-.63 1.65-.67 1.65-2.18 0-1.17-.44-2.05-1.82-2.05-2.2 0-1.3 2.23-2.81 2.23a.76.76 0 01-.86-.65.86.86 0 010-.16c0-1.59 2.35-2.12 4.14-2.12s3.08.37 3.08 1.89v5.11c0 1.38-.08 2.8.65 3.75zm-2.37-1.07c1.4 0 2.09-1.26 2.09-2.58v-2.36l-1.26.63c-1.72.86-2.63 1.33-2.63 2.66a1.58 1.58 0 001.5 1.66 1.51 1.51 0 00.3 0m8.24-9.6v.81c0 .19 0 .38.14.38s1.23-1.43 3-1.43 2.83.86 2.83 3v5.22a5.54 5.54 0 00.38 2.51H106v-6.35c0-1.49-.21-3.12-2.07-3.12s-2.19 1.65-2.19 3.24v3.75a4.93 4.93 0 00.42 2.51h-2.54a4.93 4.93 0 00.42-2.51v-5.54a3.3 3.3 0 00-.49-2.33zm13.22-.24a6.37 6.37 0 011.37.19 6.15 6.15 0 001 .19h.82a7 7 0 01.79-.05c.1 0 .12 0 .12.1 0 .39 0 .53-.3.56l-1 .1a2.61 2.61 0 01.56 1.79c0 1.81-1 2.72-3 3.35-.58.16-2.46 1-2.46 1.79 0 1.61 7.33 1 7.33 4.56 0 2.54-4.47 5-6.68 5s-3.89-1-3.89-3.07c0-2.58 3.28-3.65 3.28-4.26 0-.42-2-.18-2-1.74 0-1.31 2.43-1.47 2.43-2 0-.12-.15-.14-.24-.19a3.2 3.2 0 01-1.91-3c0-2.4 2-3.29 3.91-3.29m-.4 16c1.74 0 3.54-.88 3.54-2.86a2.68 2.68 0 00-2.35-2.42 11 11 0 00-1.61-.35c-.25 0-2.93 1.23-2.93 3.11s1.93 2.52 3.35 2.52m1.93-12.76c0-1.35-.58-2.6-1.81-2.6S113 47.07 113 48.23c0 1.38.58 2.63 2 2.63 1.09 0 1.53-1.07 1.53-2.26m5.04 7.5a4.93 4.93 0 00.42-2.51V42.5c0-1 0-1.86-.6-2.32l2.32-.37v13.78a4.93 4.93 0 00.42 2.51zm7.05-6.7c-.05.43-.08.86-.09 1.3 0 2.16 1 4.24 3.4 4.24a3.91 3.91 0 002.81-1.1v.26c0 1.23-2 2.37-3.67 2.37-3 0-4.5-2.74-4.5-5.56 0-3 1.68-5.57 4.87-5.57 2.23 0 3.56 1.47 3.56 3 0 1.07-.77 1.07-2.21 1.07zm2.54-.7c1.14 0 1.74 0 1.74-.89a1.73 1.73 0 00-1.7-1.81h-.06c-1.47 0-2.1 1.43-2.38 2.66zm19.06-.7h-.11c-.56-1.08-1-1.8-2.33-1.8-2.07 0-3.21 2.14-3.21 4.7 0 2.33.86 4.29 3.42 4.29a3.66 3.66 0 002.54-1v.36c0 1.22-1.63 2-3.4 2-2.93 0-4.66-2.4-4.66-5.21 0-3.35 2.17-5.91 5.61-5.91a5.1 5.1 0 012.15.32zm5.96 8.47c-3.21 0-4.49-2.63-4.49-5.17 0-3.61 2-6 5.49-6 3.22 0 4.49 2.63 4.49 5.17 0 3.61-2 6-5.49 6m.77-.84c2.18 0 2.77-2.16 2.77-4.1 0-2.72-.84-5.35-3.31-5.35-2.18 0-2.77 2.17-2.77 4.1 0 2.72.84 5.35 3.31 5.35m6.82-7.58a3.35 3.35 0 00-.49-2.33l2.35-.14v.81c0 .19 0 .38.14.38s1.4-1.43 2.89-1.43c2 0 2.16 1.84 2.49 1.84s1.23-1.84 2.91-1.84 2.65.86 2.65 3v5.22a5.4 5.4 0 00.37 2.51H175v-6.35c0-1.49-.21-3.12-1.77-3.12-1.86 0-2.12 1.58-2.12 3.36v3.63a4.93 4.93 0 00.42 2.51H169a4.93 4.93 0 00.42-2.51v-3.87c0-1.49-.21-3.11-1.77-3.11-1.86 0-2.12 1.57-2.12 3.35v3.63a4.93 4.93 0 00.42 2.51h-2.56a4.93 4.93 0 00.42-2.51zm15.94 0a3.35 3.35 0 00-.48-2.33l2.35-.14v.81c0 .19 0 .38.14.38s1.4-1.43 2.88-1.43c2 0 2.17 1.84 2.49 1.84s1.24-1.84 2.91-1.84 2.66.86 2.66 3v5.22a5.4 5.4 0 00.34 2.54h-2.1v-6.38c0-1.49-.21-3.12-1.77-3.12-1.86 0-2.11 1.58-2.11 3.36v3.63a4.92 4.92 0 00.41 2.51h-2.55a4.92 4.92 0 00.41-2.51v-3.87c0-1.49-.2-3.11-1.77-3.11-1.86 0-2.12 1.58-2.12 3.35v3.63a4.93 4.93 0 00.42 2.51h-2.52a4.82 4.82 0 00.41-2.51zm21.56-.75c0-.79 0-1.26-.51-1.58l2.23-.38v8.43c0 1 0 1.87.49 2.33l-2.18.14v-.82c0-.18 0-.37-.12-.37a4.4 4.4 0 01-3.05 1.42 2.79 2.79 0 01-2.86-2.72 2.61 2.61 0 010-.4v-6.14c0-.79 0-1.26-.51-1.59.62-.09 1.56-.28 1.88-.28s.35.19.35.52v6.24c0 1.49.21 3.12 2.07 3.12 2.12 0 2.19-2.33 2.19-3.92zm6.47-1.72v.81c0 .19 0 .38.14.38s1.24-1.43 3.05-1.43 2.84.86 2.84 3v5.22a5.53 5.53 0 00.37 2.51h-2.09v-6.35c0-1.49-.21-3.12-2.07-3.12s-2.19 1.65-2.19 3.24v3.75a4.93 4.93 0 00.42 2.51h-2.56a4.93 4.93 0 00.42-2.51v-5.54a3.35 3.35 0 00-.49-2.33zm10.64-4.1l1.07 1.52-1.67 1.09-1.07-1.51zm.59 3.87v8.23a4.86 4.86 0 00.42 2.52h-2.57a5 5 0 00.42-2.52V47.3c0-.79 0-1.26-.51-1.58zm5.34-2.94v3.31h1.92c.09 0 .2 0 .2.16 0 .49-1 .68-1.72.68h-.4v7.14c0 .77.12 1.43 1.05 1.43a2.65 2.65 0 001.42-.57l-.09 1a2.88 2.88 0 01-2 .91c-1.54 0-2.1-1-2.1-2.42v-7.5h-1v-.74l1-.09.1-2.86z"/><path class="cls-3" d="M236 45.72a14.11 14.11 0 00-.95 2.05l-3.29 8.4c-.62 1.58-2.81 6.68-6 6.68-.66 0-2-.16-2-1.07 0-.21.07-.42.32-.42h1.22c2.53 0 2.95-.41 3.74-1.55a7 7 0 001.33-3.81 5.06 5.06 0 00-.26-1.72l-1-3.47c-.35-1.19-1.21-4.07-2-5.05.46 0 1.44-.14 1.72-.14s.51.21.65.67l2 6.82c.12.38.16.7.33.7s.23-.37.35-.7l1.18-3.7a12.89 12.89 0 00.68-2.82 1.46 1.46 0 00-.26-.83zM93.14 76a6.09 6.09 0 00.53 3.15h-3.24A6.19 6.19 0 0091 76v-9a6.08 6.08 0 00-.49-3.15H98c.61 0 1.12 0 1.12.22v1.87H99c-.67-1.1-2.2-1.13-3.34-1.13h-2.52v6.18c1.86 0 3.83 0 5.69-.17-.85 1.37-3.59 1.37-5.08 1.37h-.61zM109 79.51c-5.09 0-7.32-3.46-7.32-7.74 0-4.57 2.67-8.37 7.71-8.37s7.31 3.47 7.31 7.74c0 4.57-2.66 8.37-7.7 8.37m.2-15.05c-3.49 0-5 3.17-5 6.64 0 3.17 1.09 7.35 5 7.35 3.49 0 5-3.17 5-6.63 0-3.17-1.09-7.36-5-7.36m23.59-.67a6.17 6.17 0 00-.54 3.17v9a5.88 5.88 0 00.54 3.12l-2.88.15.1-1.59c0-.07 0-.1-.12-.1s-.15.15-.29.27a7.08 7.08 0 01-4.68 1.66c-2.81 0-4.67-1.13-4.74-4.09V67a6.17 6.17 0 00-.55-3.17h3.25a6.17 6.17 0 00-.54 3.17v7c.07 2.57 1.14 4.13 3.88 4.13s3.68-1.76 3.75-4.62c0-.91.1-1.85.1-2.76V67a6.18 6.18 0 00-.53-3.17zm3.15 15.33c.85-2 .85-4.9.85-7V67c0-1.18 0-2.48-.78-3.2h2.45c.46 0 .68 0 1 .38.51.68 2 3.25 2.81 4.3l4.82 6.75c.17.24.36.58.51.58s.17-.24.17-.46v-8.49a6.18 6.18 0 00-.59-3.08h2.52a7.52 7.52 0 00-.72 3.58V77c0 .79 0 1.51.05 2.23h-1.73l-8.86-12.52c-.1-.14-.17-.26-.27-.26s-.14.15-.14.36V73c0 1.92-.05 4.35.73 6.15zm16.95-12.18a6 6 0 00-.53-3.15c2.45 0 4.89-.24 7.36-.24 4.05 0 6.81 3 6.81 7.33 0 5.36-3.73 8.34-8.33 8.34-2.45 0-4.15-.1-5.84-.1a6 6 0 00.53-3.15zm2.18 9.49c0 1.73.49 1.83 3.1 1.83 4.31 0 5.84-3 5.84-7 0-4.16-2.28-6.78-6.61-6.78a13.65 13.65 0 00-2.3.2v1.12zm24.98 2.69l-2.64-6.73H172c-1 2.09-2.13 4.45-2.13 5.82a5.49 5.49 0 00.07.91h-3l.54-.67c1.37-1.73 6.37-12 6.37-14v-.65h2.86c1.55 4.78 3.1 10 5.52 14.44l.48.89zm-4.75-12.83c-.05-.17-.19-.58-.41-.58s-.36.46-.41.58l-2.11 5.14H177zm11.36 12.83a6 6 0 00.54-3.12V65H184a2.58 2.58 0 00-1.71.53l.48-1.73h12.18c-.41 1-1.89 1.2-2.88 1.2h-2.66v11a6.09 6.09 0 00.53 3.15zM198 66.94a6 6 0 00-.53-3.15h3.25a6 6 0 00-.54 3.15v9a6 6 0 00.54 3.14h-3.25A6 6 0 00198 76zm13.25 12.57c-5.09 0-7.32-3.46-7.32-7.74 0-4.57 2.67-8.37 7.7-8.37s7.37 3.47 7.37 7.74c0 4.57-2.67 8.37-7.7 8.37m.2-15.05c-3.49 0-5 3.17-5 6.64 0 3.17 1.09 7.35 5 7.35 3.49 0 5-3.17 5-6.63 0-3.17-1.09-7.36-5-7.36m10.12 14.66c.84-2 .84-4.9.84-7V67c0-1.18-.05-2.48-.77-3.2h2.45c.46 0 .67 0 1 .38.5.68 2 3.25 2.8 4.3l4.82 6.76c.17.24.37.57.51.57s.17-.24.17-.46v-8.49a6.07 6.07 0 00-.58-3.08h2.52a7.66 7.66 0 00-.73 3.59v11.86H233l-8.86-12.52c-.1-.14-.17-.26-.27-.26s-.14.15-.14.36V73c0 1.92-.05 4.35.72 6.15zM27.07.51A4.89 4.89 0 0024.88 0H5.06A5.08 5.08 0 000 5.06V25a5.55 5.55 0 00.07.82 52.05 52.05 0 0127-25.31m2.87 31.4H9.74a38.15 38.15 0 000 30h20.2zm-.06 36.91v-4.95h-4.95a5 5 0 014.95 4.95"/><path class="cls-3" d="M24.86 63.87H10.67a40.39 40.39 0 0019.21 18.65V68.89a5 5 0 00-5-5M24.93 30h4.95v-5a5 5 0 01-4.95 5"/><path class="cls-3" d="M29.88 24.93V11.37A40.47 40.47 0 0010.7 30h14.16a5 5 0 005-5m1.97 38.81v19.63a43.19 43.19 0 0029.94.94V63.81zm53.73 0h-21.9v19.88a40.8 40.8 0 0021.9-19.88"/></g><path d="M204.22 98a3 3 0 012.91-3.09h.32a4.46 4.46 0 011.73.32l.09-.32h.39l-.08 1.79h-.39l-.14-.78a2.46 2.46 0 00-1.69-.53c-1.22 0-2.06.94-2.06 2.5a2.33 2.33 0 002 2.6h.14a2.8 2.8 0 002-.77l.24.35a3.18 3.18 0 01-2.4.92 3 3 0 01-3.12-2.81 1.21 1.21 0 01.06-.18zm-2.85 2.84l-4.06-4.42v3.84l.93.16v.37h-2.41v-.37l.93-.16v-4.44l-.25-.26-.68-.08v-.37h1.54l3.75 4.1v-3.57l-.93-.16v-.37h2.42v.37l-.94.16v5.19zm10.37 0v-.37l.94-.1v-4.78l-.94-.1v-.38h4.71v1.49H216l-.15-1h-2.25v2h1.55l.1-.63h.39v1.73h-.39l-.1-.63h-1.55v2.25h2.4l.16-1.06h.45v1.54zm-22.82 0v-.37l.94-.1v-4.78l-.94-.1v-.38h4.71v1.49h-.42l-.15-1h-2.25v2h1.54l.11-.63h.39v1.73h-.39l-.11-.63h-1.54v2.25h2.33l.17-1.06h.45v1.54zm-3.29 0l-1.79-2.35h-.78v1.82l1 .1v.37h-2.89v-.36l.94-.1v-4.73l-.94-.1v-.38h2.71c1.05 0 2.13.4 2.13 1.45a1.76 1.76 0 01-1.3 1.66l1.74 2.08.69.1v.37zm-2.57-5.19V98h.53a1.25 1.25 0 001.41-1.08 2 2 0 000-.25 1.19 1.19 0 00-1.2-1.15h-.13a6.2 6.2 0 00-.61.07zm-8.85 5.19v-.37l.94-.1v-4.78l-.94-.1v-.38h4.71v1.49h-.42l-.15-1h-2.25v2h1.54l.11-.63h.39v1.73h-.39l-.11-.63h-1.54v2.25h2.33l.17-1.06h.4v1.54zm-6.74 0v-.37l.95-.1v-4.78l-.95-.1v-.38h4.71v1.49h-.42l-.15-1h-2.25v2.07h1.55L171 97h.39v1.73H171l-.1-.63h-1.55v2.17l1.19.1v.37zm-6.73 0v-.37l.94-.1v-4.78l-.94-.1v-.38h4.7v1.49H165l-.14-1h-2.26v2.07h1.55l.1-.63h.39v1.73h-.39l-.1-.63h-1.55v2.17l1.2.1v.37zm-4.91 0v-.37l.94-.1v-4.78l-.94-.1v-.38h2.83v.37l-.94.1v4.72l.94.1v.37zm-7.85 0v-.37l.79-.1v-4.78l-.79-.11v-.37h2.82c1.79 0 3.32 1 3.32 2.77s-1.31 2.9-3.33 2.9zm1.74-5.19v4.66a3.55 3.55 0 00.86.1c1.65 0 2.46-.72 2.46-2.37s-.87-2.45-2.57-2.45a4.74 4.74 0 00-.75 0zm-9.72 5.13v-.37l1-.1-.54-1.25h-2.28l-.53 1.23 1 .12v.37h-2.26v-.37l.72-.13 2.17-5.28h.42l2.27 5.3.71.1v.37zm-1.65-2.19h1.89l-.93-2.23zM126 100.78v-.37l.94-.1v-4.72l-.94-.1v-.38h4.7v1.49h-.42l-.14-1h-2.26v2h1.55l.1-.63h.4v1.73h-.4l-.1-.63h-1.55v2.25h2.34l.17-1.06h.45v1.54zm-3.37 0l-2.26-2.58h-.33v2.1l1 .1v.37h-2.84v-.36l1-.1v-4.72l-1-.1v-.38h2.8v.37l-.94.11v2.25h.08l2.33-2.25-.63-.1v-.38H124v.37l-.86.1-2.15 2 2.46 2.67.71.13v.36zm-8.94 0v-.37l1-.1-.54-1.25h-2.25l-.53 1.24 1 .12v.36h-2.27v-.37l.72-.13 2.24-5.28h.42l2.27 5.3.71.1v.37zm-1.64-2.19H114l-.93-2.23zm-6.49 2.19v-.37l1-.1-.27-4-2.15 4.42h-.21l-2.11-4.32-.23 3.79.94.16v.37h-2.44v-.37l1-.16.31-4.66-.94-.11v-.37h1.78l2.07 4.29 2.09-4.29h1.77v.37l-1 .08.33 4.74.94.1v.37z" fill="#897966"/></g></g></svg>