<svg xmlns="http://www.w3.org/2000/svg" width="236" height="109.601" viewBox="0 0 236 109.601"><defs><clipPath id="a"><path class="a" d="M0-18.682h236v-109.6H0z" transform="translate(0 128.283)"/></clipPath><style>.a,.d{fill:#fff}.d{stroke:#2b2e34;stroke-width:.471px}</style></defs><g clip-path="url(#a)"><path class="a" d="M235.184 109.477l-234.988.124V68.013c0-.455.365-.865.638.41.865 2.915 4.569 8.38 6.741 11.342 7.242 8.335 19.583 17.63 39.26 17.811 21.316.2 33.706-11.3 33.706-11.3h154.69zM46.648 61.794a14.833 14.833 0 0014.755-14.909 14.831 14.831 0 00-14.755-14.909 14.831 14.831 0 00-14.763 14.909 14.833 14.833 0 0014.763 14.909m26.369-19.379v3.306h1.911c.09 0 .207 0 .207.162 0 .49-.977.674-1.721.674h-.4v7.148c0 .768.115 1.422 1.046 1.422a2.639 2.639 0 001.421-.561l-.091 1a2.9 2.9 0 01-2 .907c-1.535 0-2.095-1-2.095-2.419v-7.5h-.977v-.739l.977-.091.092-2.867zm4.819 7.029c0-1.655 0-3.26-.6-3.749.863-.024 1.676-.117 1.956-.117.419 0 .162 1.163.419 1.163.117 0 .883-1.4 2.256-1.4.816 0 1.282.326 1.282.886a.713.713 0 01-.813.769c-.442 0-.91-.071-1.47-.071-1.161 0-1.3.813-1.3 1.839v4.8a5.049 5.049 0 00.419 2.537h-2.571a5.049 5.049 0 00.422-2.537zm8.657-7.96l1.07 1.558-1.674 1.094-1.072-1.511zm.586 3.863v8.237a4.924 4.924 0 00.418 2.514h-2.56a4.915 4.915 0 00.417-2.514v-6.28c-.024-.794-.024-1.259-.513-1.584zm8.771 10.894c-.209-.86-.185-1.441-.372-1.441a.145.145 0 00-.138.071 2.82 2.82 0 01-2.725 1.6 2.578 2.578 0 01-2.887-2.581c0-2.025 2.631-2.864 4.192-3.607 1.326-.63 1.652-.675 1.652-2.185 0-1.164-.442-2.05-1.817-2.05-2.209 0-1.3 2.235-2.816 2.235a.76.76 0 01-.86-.813c0-1.584 2.351-2.121 4.142-2.121 1.653 0 3.075.374 3.075 1.888v5.118c-.003 1.373-.071 2.793.65 3.743zm-2.373-1.07c1.4 0 2.095-1.255 2.095-2.584v-2.351l-1.258.628c-1.721.86-2.631 1.326-2.631 2.654a1.582 1.582 0 001.794 1.653m8.238-9.592v.815c0 .186-.021.373.141.373.209 0 1.234-1.422 3.049-1.422 1.746 0 2.839.86 2.839 3.028v5.215a5.432 5.432 0 00.374 2.514h-2.1v-6.383c0-1.49-.208-3.119-2.069-3.119-1.836.004-2.187 1.656-2.187 3.241v3.747a4.913 4.913 0 00.422 2.514h-2.561a4.94 4.94 0 00.416-2.514v-5.54a3.33 3.33 0 00-.487-2.329zm13.223-.233a6.13 6.13 0 011.372.186 5.922 5.922 0 00.954.188c.279 0 .536-.024.815-.048.255-.026.537-.046.791-.046.1 0 .118.023.118.094 0 .395-.021.536-.3.557l-1.048.1a2.611 2.611 0 01.559 1.792c0 1.813-1 2.725-3.025 3.35-.583.164-2.466.977-2.466 1.793 0 1.607 7.33.956 7.33 4.561 0 2.537-4.468 4.982-6.679 4.982-2.306 0-3.888-1.048-3.888-3.072 0-2.582 3.282-3.653 3.282-4.258 0-.42-2-.185-2-1.745 0-1.306 2.422-1.469 2.422-1.981 0-.115-.141-.141-.233-.185a3.2 3.2 0 01-1.914-2.984c0-2.398 1.977-3.284 3.91-3.284m-.4 16.017c1.745 0 3.538-.886 3.538-2.863a2.68 2.68 0 00-2.346-2.421 11.492 11.492 0 00-1.608-.348c-.252 0-2.932 1.231-2.932 3.115 0 1.746 1.933 2.515 3.352 2.515m1.928-12.755c0-1.351-.578-2.606-1.813-2.606s-1.674 1.07-1.674 2.233c0 1.376.581 2.631 1.954 2.631 1.093 0 1.533-1.07 1.533-2.258m5.102 7.495a4.941 4.941 0 00.416-2.514V42.506c0-.952 0-1.862-.6-2.327l2.326-.372v13.78a4.924 4.924 0 00.418 2.514zm7.05-6.704a11.405 11.405 0 00-.093 1.304c0 2.165.978 4.237 3.4 4.237a3.951 3.951 0 002.815-1.093v.254c0 1.236-1.954 2.374-3.678 2.374-3.048 0-4.495-2.746-4.495-5.564 0-3.022 1.679-5.563 4.868-5.563 2.235 0 3.561 1.467 3.561 2.981 0 1.07-.766 1.07-2.21 1.07zm2.537-.7c1.141 0 1.746 0 1.746-.884a1.736 1.736 0 00-1.769-1.77c-1.465.001-2.094 1.424-2.376 2.656zm19.065-.719h-.117c-.562-1.074-.976-1.793-2.328-1.793-2.072 0-3.212 2.141-3.212 4.7 0 2.328.86 4.282 3.42 4.282a3.606 3.606 0 002.54-1.04v.369c0 1.213-1.631 1.98-3.4 1.98-2.932 0-4.653-2.4-4.653-5.215 0-3.351 2.163-5.912 5.607-5.912a5.115 5.115 0 012.144.326zm5.957 8.492c-3.209 0-4.491-2.628-4.491-5.168 0-3.606 2-5.959 5.492-5.959 3.213 0 4.492 2.632 4.492 5.167 0 3.611-2 5.96-5.494 5.96m.766-.834c2.188 0 2.771-2.166 2.771-4.1 0-2.722-.839-5.353-3.307-5.353-2.185 0-2.769 2.165-2.769 4.1 0 2.722.84 5.353 3.306 5.353m6.822-7.588a3.323 3.323 0 00-.489-2.328l2.35-.141v.816c0 .185 0 .373.141.373s1.4-1.423 2.886-1.423c2.025 0 2.164 1.841 2.49 1.841.279 0 1.234-1.841 2.91-1.841 1.561 0 2.651.86 2.651 3.028v5.215a5.43 5.43 0 00.374 2.514h-2.094v-6.378c0-1.491-.211-3.119-1.77-3.119-1.861.003-2.118 1.581-2.118 3.353v3.63a4.911 4.911 0 00.419 2.514h-2.56a4.911 4.911 0 00.419-2.514v-3.864c0-1.491-.207-3.116-1.768-3.116-1.858 0-2.118 1.578-2.118 3.35v3.63a4.92 4.92 0 00.418 2.514h-2.558a4.911 4.911 0 00.417-2.514zm15.945 0a3.323 3.323 0 00-.489-2.328l2.35-.141v.816c0 .185 0 .373.141.373s1.4-1.423 2.887-1.423c2.024 0 2.162 1.841 2.49 1.841.279 0 1.234-1.841 2.908-1.841 1.561 0 2.655.86 2.655 3.028v5.215a5.5 5.5 0 00.369 2.514h-2.091v-6.378c0-1.491-.212-3.119-1.771-3.119-1.861.003-2.117 1.581-2.117 3.353v3.63a4.92 4.92 0 00.418 2.514h-2.559a4.92 4.92 0 00.418-2.514v-3.864c0-1.491-.207-3.116-1.769-3.116-1.863 0-2.12 1.581-2.12 3.353v3.627a4.894 4.894 0 00.42 2.514h-2.557a4.885 4.885 0 00.417-2.514zm21.558-.744c0-.795-.023-1.259-.513-1.584l2.234-.374v8.429c0 .953 0 1.862.491 2.326l-2.188.137v-.812c0-.185-.024-.37-.117-.37a4.442 4.442 0 01-3.049 1.417 2.793 2.793 0 01-2.84-3.118V47.21c0-.792-.021-1.258-.511-1.584.625-.094 1.558-.28 1.884-.28.3 0 .35.186.35.513v6.239c0 1.49.208 3.12 2.071 3.12 2.118 0 2.188-2.329 2.188-3.913zm6.47-1.725v.815c0 .186-.021.373.141.373.207 0 1.235-1.422 3.047-1.422 1.746 0 2.842.86 2.842 3.028v5.215a5.454 5.454 0 00.373 2.514h-2.096v-6.383c0-1.49-.208-3.119-2.072-3.119-1.837.004-2.188 1.656-2.188 3.241v3.747a4.913 4.913 0 00.422 2.514h-2.564a4.913 4.913 0 00.419-2.514v-5.54a3.33 3.33 0 00-.487-2.329zm10.639-4.095l1.07 1.558-1.675 1.094-1.07-1.511zm.586 3.863v8.237a4.915 4.915 0 00.419 2.514h-2.564a4.924 4.924 0 00.418-2.514v-6.28c-.024-.794-.024-1.259-.513-1.584zm5.347-2.932v3.306h1.912c.091 0 .207 0 .207.162 0 .49-.977.674-1.722.674h-.4v7.148c0 .768.115 1.422 1.047 1.422a2.639 2.639 0 001.422-.561l-.093 1a2.888 2.888 0 01-2 .907c-1.535 0-2.095-1-2.095-2.419v-7.5h-.978v-.739l.978-.091.094-2.867z"/><path class="a" d="M236 45.72a14.722 14.722 0 00-.954 2.05l-3.282 8.4c-.628 1.582-2.819 6.679-6.028 6.679-.654 0-2.027-.162-2.027-1.068 0-.211.068-.42.325-.42.3 0 .816.045 1.211.045 2.538 0 2.957-.419 3.747-1.559a7.019 7.019 0 001.375-3.887 4.994 4.994 0 00-.256-1.716l-1.024-3.472c-.348-1.189-1.211-4.074-2-5.052.466-.047 1.441-.141 1.723-.141.395 0 .513.211.651.677l2 6.82c.117.374.161.7.326.7.139 0 .233-.375.348-.7l1.188-3.7a13.057 13.057 0 00.672-2.82 1.373 1.373 0 00-.256-.836zM93.138 75.976a6.064 6.064 0 00.533 3.149h-3.246a6.073 6.073 0 00.531-3.149v-9.038a6.079 6.079 0 00-.483-3.148h7.508c.607 0 1.115 0 1.115.217v1.873h-.122c-.677-1.1-2.2-1.127-3.341-1.127h-2.495v6.179c1.864 0 3.827 0 5.693-.171-.85 1.37-3.587 1.37-5.086 1.37h-.607zm15.841 3.533c-5.086 0-7.317-3.461-7.317-7.74 0-4.567 2.666-8.366 7.706-8.366 5.085 0 7.315 3.464 7.315 7.741 0 4.568-2.665 8.365-7.7 8.365m.194-15.046c-3.488 0-4.99 3.171-4.99 6.634 0 3.172 1.089 7.354 4.99 7.354 3.489 0 4.99-3.171 4.99-6.632 0-3.172-1.088-7.355-4.99-7.355m23.613-.676a6.174 6.174 0 00-.536 3.175v9.036a5.909 5.909 0 00.536 3.126l-2.885.143.1-1.584c0-.073-.047-.1-.12-.1-.049 0-.145.145-.29.267a7.006 7.006 0 01-4.675 1.657c-2.811 0-4.674-1.129-4.745-4.086v-8.459a6.2 6.2 0 00-.543-3.175h3.245a6.174 6.174 0 00-.536 3.175v7.025c.073 2.571 1.14 4.132 3.877 4.132 2.81 0 3.681-1.756 3.754-4.614.023-.914.1-1.851.1-2.765v-3.778a6.217 6.217 0 00-.53-3.175zm3.148 15.337c.848-1.971.848-4.9.848-7.02v-5.118c0-1.179-.046-2.477-.774-3.2h2.446c.459 0 .678 0 .97.384.507.677 2.056 3.247 2.809 4.3l4.819 6.755c.171.239.365.574.51.574.169 0 .169-.239.169-.459V66.86a6.064 6.064 0 00-.583-3.078h2.519a7.627 7.627 0 00-.725 3.583v9.616c0 .792.023 1.512.049 2.233h-1.721l-8.865-12.518c-.1-.144-.171-.263-.267-.263s-.145.146-.145.359v6.18c0 1.923-.047 4.35.729 6.153zm16.957-12.187a6.044 6.044 0 00-.536-3.149c2.449 0 4.894-.239 7.364-.237 4.046 0 6.807 3.028 6.807 7.33 0 5.359-3.728 8.339-8.332 8.339-2.446 0-4.144-.1-5.839-.1a6.033 6.033 0 00.536-3.145zm2.177 9.494c0 1.732.484 1.828 3.1 1.828 4.313 0 5.837-3.028 5.837-6.972.001-4.158-2.275-6.773-6.612-6.773a13.86 13.86 0 00-2.3.192c0 .361-.026.745-.026 1.129zm24.977 2.693l-2.641-6.73h-5.448c-1.045 2.09-2.135 4.444-2.135 5.816a5.783 5.783 0 00.073.914h-3.027l.534-.675c1.379-1.729 6.371-12.04 6.371-14.011l.023-.651h2.857c1.551 4.785 3.1 10 5.523 14.448l.484.889zM175.3 66.289c-.049-.167-.194-.577-.412-.577s-.361.457-.409.577l-2.109 5.143h4.625zm11.362 12.836a6.025 6.025 0 00.536-3.149V64.99h-3.224a2.616 2.616 0 00-1.719.53l.483-1.732h12.185c-.41 1.035-1.889 1.2-2.882 1.2h-2.665v10.988a6.059 6.059 0 00.537 3.149zm11.363-12.185a6.044 6.044 0 00-.536-3.151h3.247a6.061 6.061 0 00-.534 3.151v9.037a6.047 6.047 0 00.534 3.149h-3.247a6.03 6.03 0 00.536-3.149zm13.223 12.569c-5.086 0-7.313-3.461-7.313-7.74 0-4.567 2.663-8.366 7.7-8.366 5.086 0 7.315 3.464 7.315 7.741 0 4.568-2.665 8.365-7.7 8.365m.2-15.046c-3.488 0-4.99 3.171-4.99 6.634 0 3.172 1.088 7.354 4.99 7.354 3.488 0 4.989-3.171 4.989-6.632 0-3.172-1.092-7.355-4.989-7.355m10.166 14.661c.848-1.971.848-4.9.848-7.02v-5.118c0-1.179-.049-2.477-.775-3.2h2.447c.461 0 .679 0 .97.386.507.675 2.058 3.246 2.807 4.3l4.819 6.755c.173.239.367.574.511.574.168 0 .168-.239.168-.459v-8.481a6.112 6.112 0 00-.578-3.078h2.517a7.637 7.637 0 00-.725 3.583v9.616c0 .792.025 1.512.049 2.233h-1.722l-8.865-12.52c-.1-.144-.168-.263-.267-.263s-.144.146-.144.359v6.18c0 1.923-.05 4.35.725 6.153zM27.071.511a5.01 5.01 0 00-2.193-.513H5.06A5.077 5.077 0 000 5.058v19.895a5.21 5.21 0 00.073.821 52.035 52.035 0 0127-25.263m2.865 31.399h-20.2a38.145 38.145 0 00-.03 30.01h20.23zm-.056 36.908v-4.946h-4.948a4.963 4.963 0 014.948 4.946"/><path class="d" d="M29.882 68.818v-4.946h-4.948a4.963 4.963 0 014.948 4.946z"/><path class="a" d="M24.86 63.872H10.669a40.432 40.432 0 0019.21 18.654V68.891a5.037 5.037 0 00-5.019-5.019"/><path class="d" d="M24.86 63.872H10.669a40.432 40.432 0 0019.21 18.654V68.891a5.037 5.037 0 00-5.019-5.019z"/><path class="a" d="M24.934 29.957h4.948v-4.949a4.963 4.963 0 01-4.948 4.949"/><path class="d" d="M24.934 29.957h4.948v-4.949a4.963 4.963 0 01-4.948 4.949z"/><path class="a" d="M29.883 24.936v-13.56a40.408 40.408 0 00-19.181 18.582h14.159a5.037 5.037 0 005.022-5.022"/><path class="d" d="M29.883 24.936v-13.56a40.408 40.408 0 00-19.181 18.582h14.159a5.037 5.037 0 005.022-5.022z"/><path class="a" d="M31.828 63.816v19.621a42.8 42.8 0 0016.244 3.171 43.043 43.043 0 0013.695-2.229V63.816zm53.735 0H63.657v19.877a40.855 40.855 0 0021.906-19.877"/></g><path d="M204.224 97.988a3 3 0 013.226-3.082 4.432 4.432 0 011.73.314l.092-.314h.392l-.08 1.783h-.394l-.143-.774a2.472 2.472 0 00-1.692-.537c-1.219 0-2.058.944-2.058 2.505a2.331 2.331 0 002.177 2.61 2.753 2.753 0 002.032-.776l.248.355a3.23 3.23 0 01-2.4.917 2.969 2.969 0 01-3.13-3.001zm-2.852 2.844l-4.065-4.418v3.841l.933.158v.368h-2.414v-.369l.931-.158v-4.431l-.25-.261-.681-.079v-.368h1.548l3.749 4.1v-3.574l-.93-.158v-.368h2.412v.368l-.931.158v5.19zm10.368-.052v-.368l.944-.1v-4.725l-.944-.1v-.372h4.707v1.482h-.419l-.144-1.01h-2.254v1.994h1.545l.106-.629h.392v1.729h-.389l-.106-.63h-1.545v2.255h2.333l.169-1.063h.445v1.537zm-22.822 0v-.368l.944-.1v-4.725l-.944-.1v-.372h4.71v1.482h-.422l-.144-1.01h-2.254v1.994h1.546l.105-.629h.394v1.729h-.394l-.105-.63h-1.546v2.255h2.334l.169-1.063h.447v1.537zm-3.293 0l-1.782-2.348-.787.052v1.822l1 .1v.368h-2.888v-.362l.943-.1v-4.725l-.943-.1v-.372h2.716c1.049 0 2.124.393 2.124 1.443a1.758 1.758 0 01-1.3 1.665l1.744 2.083.693.1v.368zm-2.57-5.193v2.412h.537a1.254 1.254 0 001.417-1.323 1.177 1.177 0 00-1.325-1.141 4.9 4.9 0 00-.629.052zm-8.847 5.193v-.368l.944-.1v-4.725l-.944-.1v-.372h4.707v1.482h-.419l-.146-1.01h-2.254v1.994h1.546l.106-.629h.393v1.729h-.393l-.106-.63h-1.546v2.255h2.335l.17-1.063h.444v1.537zm-6.736 0v-.368l.944-.1v-4.725l-.944-.1v-.372h4.705v1.482h-.418l-.145-1.01h-2.254v2.072h1.546l.106-.63h.393v1.731h-.393l-.106-.63h-1.546v2.176l1.194.1v.368zm-6.736 0v-.368l.943-.1v-4.725l-.943-.1v-.372h4.707v1.482h-.42l-.144-1.01h-2.256v2.072h1.548l.1-.63h.393v1.731h-.393l-.1-.63h-1.548v2.176l1.193.1v.368zm-4.907 0v-.368l.945-.1v-4.725l-.945-.1v-.372h2.831v.368l-.943.1v4.723l.943.1v.368zm-7.845 0v-.368l.786-.1v-4.724l-.786-.105v-.368h2.818c1.783 0 3.316.957 3.316 2.767 0 1.783-1.311 2.9-3.33 2.9zm1.731-5.192v4.667a4.356 4.356 0 00.864.1c1.653 0 2.466-.721 2.466-2.371s-.88-2.449-2.57-2.449a5.044 5.044 0 00-.76.053zm-9.76 5.192v-.368l.982-.1-.537-1.246h-2.282l-.524 1.228.983.118v.368h-2.253v-.368l.72-.131 2.24-5.275h.419l2.271 5.3.707.1v.368zm-1.641-2.191h1.89l-.931-2.229h-.026zm-12.276 2.191v-.368l.944-.1v-4.725l-.944-.1v-.372h4.707v1.482h-.42l-.141-1.01h-2.259v1.994h1.548l.1-.629h.393v1.729h-.393l-.1-.63h-1.548v2.255h2.334l.171-1.063h.447v1.537zm-3.373 0l-2.257-2.574h-.324v2.1l.944.1v.368h-2.835v-.362l.944-.1v-4.725l-.944-.1v-.372h2.832v.368l-.941.104v2.256h.078l2.332-2.256-.63-.1v-.372h2.177v.368l-.866.1-2.15 2.033 2.465 2.661.707.131v.368zm-8.933 0v-.368l.984-.1-.538-1.246h-2.282l-.524 1.233.983.118v.368H110.1v-.373l.72-.131 2.243-5.275h.42l2.268 5.3.707.1v.368zm-1.639-2.191h1.891l-.931-2.229h-.029zm-6.49 2.191v-.368l.943-.1-.262-3.952-2.15 4.42h-.21l-2.11-4.314-.236 3.788.944.158v.368h-2.438v-.368l.943-.158.314-4.667-.943-.104v-.368h1.786l2.068 4.291 2.085-4.291h1.771v.368l-.945.079.328 4.744.944.1v.368z" fill="#897966"/></svg>