<svg xmlns="http://www.w3.org/2000/svg" xmlns:xlink="http://www.w3.org/1999/xlink" viewBox="0 0 236 109.6"><defs><style>.cls-1{fill:none;}.cls-2{clip-path:url(#clip-path);}.cls-3{fill:#fff;}.cls-4{fill:#897966;}</style><clipPath id="clip-path" transform="translate(0 0)"><rect class="cls-1" width="236" height="109.6"/></clipPath></defs><title>logo-footer</title><g id="Layer_2" data-name="Layer 2"><g id="Layer_1-2" data-name="Layer 1"><g class="cls-2"><path class="cls-3" d="M235.18,109.48.2,109.6V68c0-.45.36-.86.63.41C1.7,71.34,5.4,76.8,7.57,79.76c7.25,8.34,19.59,17.63,39.26,17.81,21.32.2,33.71-11.3,33.71-11.3H235.23Z" transform="translate(0 0)"/><path class="cls-3" d="M46.65,61.79a14.91,14.91,0,0,0,0-29.81h0a14.85,14.85,0,0,0-14.77,14.9h0A14.82,14.82,0,0,0,46.64,61.79h0" transform="translate(0 0)"/><path class="cls-3" d="M73,42.41v3.31h1.91c.09,0,.21,0,.21.16,0,.49-1,.68-1.73.68H73V53.7c0,.77.12,1.43,1,1.43a2.65,2.65,0,0,0,1.42-.57l-.09,1a2.88,2.88,0,0,1-2,.91c-1.53,0-2.09-1-2.09-2.42v-7.5h-1v-.74l1-.09.09-2.86Z" transform="translate(0 0)"/><path class="cls-3" d="M77.84,49.44c0-1.65,0-3.26-.6-3.75.86,0,1.67-.11,2-.11s.16,1.16.42,1.16.88-1.4,2.26-1.4c.81,0,1.28.33,1.28.89a.72.72,0,0,1-.65.77h-.16c-.45,0-.91-.07-1.47-.07-1.17,0-1.3.82-1.3,1.84v4.8A5,5,0,0,0,80,56.1H77.41a5,5,0,0,0,.43-2.54Z" transform="translate(0 0)"/><path class="cls-3" d="M86.49,41.48,87.56,43l-1.67,1.09-1.07-1.51Zm.59,3.87v8.23a5,5,0,0,0,.42,2.52H84.94a5,5,0,0,0,.41-2.52V47.3c0-.79,0-1.26-.51-1.58Z" transform="translate(0 0)"/><path class="cls-3" d="M95.85,56.24c-.21-.86-.19-1.44-.37-1.44a.13.13,0,0,0-.14.07,2.84,2.84,0,0,1-2.73,1.6,2.57,2.57,0,0,1-2.86-2.25,1.83,1.83,0,0,1,0-.33c0-2,2.63-2.87,4.19-3.61,1.33-.63,1.65-.67,1.65-2.18,0-1.17-.44-2.05-1.82-2.05-2.2,0-1.3,2.23-2.81,2.23a.76.76,0,0,1-.86-.65.86.86,0,0,1,0-.16c0-1.59,2.35-2.12,4.14-2.12s3.08.37,3.08,1.89v5.11c0,1.38-.08,2.8.65,3.75Zm-2.37-1.07c1.4,0,2.09-1.26,2.09-2.58V50.23l-1.26.63c-1.72.86-2.63,1.33-2.63,2.66a1.58,1.58,0,0,0,1.5,1.66,1.51,1.51,0,0,0,.3,0" transform="translate(0 0)"/><path class="cls-3" d="M101.72,45.58v.81c0,.19,0,.38.14.38s1.23-1.43,3-1.43,2.83.86,2.83,3v5.22a5.54,5.54,0,0,0,.38,2.51H106V49.72c0-1.49-.21-3.12-2.07-3.12s-2.19,1.65-2.19,3.24v3.75a4.93,4.93,0,0,0,.42,2.51H99.62a4.93,4.93,0,0,0,.42-2.51V48.05a3.3,3.3,0,0,0-.49-2.33Z" transform="translate(0 0)"/><path class="cls-3" d="M114.94,45.34a6.37,6.37,0,0,1,1.37.19,6.15,6.15,0,0,0,1,.19c.28,0,.54,0,.82,0a7,7,0,0,1,.79-.05c.1,0,.12,0,.12.1,0,.39,0,.53-.3.56l-1,.1a2.61,2.61,0,0,1,.56,1.79c0,1.81-1,2.72-3,3.35-.58.16-2.46,1-2.46,1.79,0,1.61,7.33,1,7.33,4.56,0,2.54-4.47,5-6.68,5s-3.89-1-3.89-3.07c0-2.58,3.28-3.65,3.28-4.26,0-.42-2-.18-2-1.74,0-1.31,2.43-1.47,2.43-2,0-.12-.15-.14-.24-.19a3.2,3.2,0,0,1-1.91-3c0-2.4,2-3.29,3.91-3.29m-.4,16c1.74,0,3.54-.88,3.54-2.86a2.68,2.68,0,0,0-2.35-2.42,11,11,0,0,0-1.61-.35c-.25,0-2.93,1.23-2.93,3.11s1.93,2.52,3.35,2.52m1.93-12.76c0-1.35-.58-2.6-1.81-2.6S113,47.07,113,48.23c0,1.38.58,2.63,2,2.63,1.09,0,1.53-1.07,1.53-2.26" transform="translate(0 0)"/><path class="cls-3" d="M121.57,56.1a4.93,4.93,0,0,0,.42-2.51V42.5c0-1,0-1.86-.6-2.32l2.32-.37V53.59a4.93,4.93,0,0,0,.42,2.51Z" transform="translate(0 0)"/><path class="cls-3" d="M128.62,49.4c-.05.43-.08.86-.09,1.3,0,2.16,1,4.24,3.4,4.24a3.91,3.91,0,0,0,2.81-1.1v.26c0,1.23-2,2.37-3.67,2.37-3,0-4.5-2.74-4.5-5.56,0-3,1.68-5.57,4.87-5.57,2.23,0,3.56,1.47,3.56,3,0,1.07-.77,1.07-2.21,1.07Zm2.54-.7c1.14,0,1.74,0,1.74-.89A1.73,1.73,0,0,0,131.2,46h-.06c-1.47,0-2.1,1.43-2.38,2.66Z" transform="translate(0 0)"/><path class="cls-3" d="M150.22,48h-.11c-.56-1.08-1-1.8-2.33-1.8-2.07,0-3.21,2.14-3.21,4.7,0,2.33.86,4.29,3.42,4.29a3.66,3.66,0,0,0,2.54-1v.36c0,1.22-1.63,2-3.4,2-2.93,0-4.66-2.4-4.66-5.21,0-3.35,2.17-5.91,5.61-5.91a5.1,5.1,0,0,1,2.15.32Z" transform="translate(0 0)"/><path class="cls-3" d="M156.18,56.47c-3.21,0-4.49-2.63-4.49-5.17,0-3.61,2-6,5.49-6,3.22,0,4.49,2.63,4.49,5.17,0,3.61-2,6-5.49,6m.77-.84c2.18,0,2.77-2.16,2.77-4.1,0-2.72-.84-5.35-3.31-5.35-2.18,0-2.77,2.17-2.77,4.1,0,2.72.84,5.35,3.31,5.35" transform="translate(0 0)"/><path class="cls-3" d="M163.77,48.05a3.35,3.35,0,0,0-.49-2.33l2.35-.14v.81c0,.19,0,.38.14.38s1.4-1.43,2.89-1.43c2,0,2.16,1.84,2.49,1.84s1.23-1.84,2.91-1.84,2.65.86,2.65,3v5.22a5.4,5.4,0,0,0,.37,2.51H175V49.72c0-1.49-.21-3.12-1.77-3.12-1.86,0-2.12,1.58-2.12,3.36v3.63a4.93,4.93,0,0,0,.42,2.51H169a4.93,4.93,0,0,0,.42-2.51V49.72c0-1.49-.21-3.11-1.77-3.11-1.86,0-2.12,1.57-2.12,3.35v3.63a4.93,4.93,0,0,0,.42,2.51h-2.56a4.93,4.93,0,0,0,.42-2.51Z" transform="translate(0 0)"/><path class="cls-3" d="M179.71,48.05a3.35,3.35,0,0,0-.48-2.33l2.35-.14v.81c0,.19,0,.38.14.38s1.4-1.43,2.88-1.43c2,0,2.17,1.84,2.49,1.84s1.24-1.84,2.91-1.84,2.66.86,2.66,3v5.22A5.4,5.4,0,0,0,193,56.1h-2.1V49.72c0-1.49-.21-3.12-1.77-3.12-1.86,0-2.11,1.58-2.11,3.36v3.63a4.92,4.92,0,0,0,.41,2.51h-2.55a4.92,4.92,0,0,0,.41-2.51V49.72c0-1.49-.2-3.11-1.77-3.11-1.86,0-2.12,1.58-2.12,3.35v3.63a4.93,4.93,0,0,0,.42,2.51H179.3a4.82,4.82,0,0,0,.41-2.51Z" transform="translate(0 0)"/><path class="cls-3" d="M201.27,47.3c0-.79,0-1.26-.51-1.58l2.23-.38v8.43c0,1,0,1.87.49,2.33l-2.18.14v-.82c0-.18,0-.37-.12-.37a4.4,4.4,0,0,1-3.05,1.42,2.79,2.79,0,0,1-2.86-2.72,2.61,2.61,0,0,1,0-.4V47.21c0-.79,0-1.26-.51-1.59.62-.09,1.56-.28,1.88-.28s.35.19.35.52V52.1c0,1.49.21,3.12,2.07,3.12,2.12,0,2.19-2.33,2.19-3.92Z" transform="translate(0 0)"/><path class="cls-3" d="M207.74,45.58v.81c0,.19,0,.38.14.38s1.24-1.43,3.05-1.43,2.84.86,2.84,3v5.22a5.53,5.53,0,0,0,.37,2.51h-2.09V49.72c0-1.49-.21-3.12-2.07-3.12s-2.19,1.65-2.19,3.24v3.75a4.93,4.93,0,0,0,.42,2.51h-2.56a4.93,4.93,0,0,0,.42-2.51V48.05a3.35,3.35,0,0,0-.49-2.33Z" transform="translate(0 0)"/><path class="cls-3" d="M218.38,41.48,219.45,43l-1.67,1.09-1.07-1.51Zm.59,3.87v8.23a4.86,4.86,0,0,0,.42,2.52h-2.57a5,5,0,0,0,.42-2.52V47.3c0-.79,0-1.26-.51-1.58Z" transform="translate(0 0)"/><path class="cls-3" d="M224.31,42.41v3.31h1.92c.09,0,.2,0,.2.16,0,.49-1,.68-1.72.68h-.4V53.7c0,.77.12,1.43,1.05,1.43a2.65,2.65,0,0,0,1.42-.57l-.09,1a2.88,2.88,0,0,1-2,.91c-1.54,0-2.1-1-2.1-2.42v-7.5h-1v-.74l1-.09.1-2.86Z" transform="translate(0 0)"/><path class="cls-3" d="M236,45.72a14.11,14.11,0,0,0-.95,2.05l-3.29,8.4c-.62,1.58-2.81,6.68-6,6.68-.66,0-2-.16-2-1.07,0-.21.07-.42.32-.42s.82,0,1.22,0c2.53,0,2.95-.41,3.74-1.55A7,7,0,0,0,230.37,56a5.06,5.06,0,0,0-.26-1.72l-1-3.47c-.35-1.19-1.21-4.07-2-5.05.46,0,1.44-.14,1.72-.14s.51.21.65.67l2,6.82c.12.38.16.7.33.7s.23-.37.35-.7l1.18-3.7a12.89,12.89,0,0,0,.68-2.82,1.46,1.46,0,0,0-.26-.83Z" transform="translate(0 0)"/><path class="cls-3" d="M93.14,76a6.09,6.09,0,0,0,.53,3.15H90.43A6.19,6.19,0,0,0,91,76v-9a6.08,6.08,0,0,0-.49-3.15H98c.61,0,1.12,0,1.12.22v1.87H99c-.67-1.1-2.2-1.13-3.34-1.13H93.14v6.18c1.86,0,3.83,0,5.69-.17-.85,1.37-3.59,1.37-5.08,1.37h-.61Z" transform="translate(0 0)"/><path class="cls-3" d="M109,79.51c-5.09,0-7.32-3.46-7.32-7.74,0-4.57,2.67-8.37,7.71-8.37s7.31,3.47,7.31,7.74c0,4.57-2.66,8.37-7.7,8.37m.2-15.05c-3.49,0-5,3.17-5,6.64,0,3.17,1.09,7.35,5,7.35,3.49,0,5-3.17,5-6.63,0-3.17-1.09-7.36-5-7.36" transform="translate(0 0)"/><path class="cls-3" d="M132.79,63.79a6.17,6.17,0,0,0-.54,3.17v9a5.88,5.88,0,0,0,.54,3.12l-2.88.15.1-1.59c0-.07,0-.1-.12-.1s-.15.15-.29.27a7.08,7.08,0,0,1-4.68,1.66c-2.81,0-4.67-1.13-4.74-4.09V67a6.17,6.17,0,0,0-.55-3.17h3.25a6.17,6.17,0,0,0-.54,3.17v7c.07,2.57,1.14,4.13,3.88,4.13s3.68-1.76,3.75-4.62c0-.91.1-1.85.1-2.76V67a6.18,6.18,0,0,0-.53-3.17Z" transform="translate(0 0)"/><path class="cls-3" d="M135.94,79.12c.85-2,.85-4.9.85-7V67c0-1.18,0-2.48-.78-3.2h2.45c.46,0,.68,0,1,.38.51.68,2,3.25,2.81,4.3l4.82,6.75c.17.24.36.58.51.58s.17-.24.17-.46V66.86a6.18,6.18,0,0,0-.59-3.08h2.52a7.52,7.52,0,0,0-.72,3.58V77c0,.79,0,1.51.05,2.23h-1.73l-8.86-12.52c-.1-.14-.17-.26-.27-.26s-.14.15-.14.36V73c0,1.92-.05,4.35.73,6.15Z" transform="translate(0 0)"/><path class="cls-3" d="M152.89,66.94a6,6,0,0,0-.53-3.15c2.45,0,4.89-.24,7.36-.24,4.05,0,6.81,3,6.81,7.33,0,5.36-3.73,8.34-8.33,8.34-2.45,0-4.15-.1-5.84-.1a6,6,0,0,0,.53-3.15Zm2.18,9.49c0,1.73.49,1.83,3.1,1.83,4.31,0,5.84-3,5.84-7,0-4.16-2.28-6.78-6.61-6.78a13.65,13.65,0,0,0-2.3.2c0,.36,0,.74,0,1.12Z" transform="translate(0 0)"/><path class="cls-3" d="M180.05,79.12l-2.64-6.73H172c-1,2.09-2.13,4.45-2.13,5.82a5.49,5.49,0,0,0,.07.91h-3l.54-.67c1.37-1.73,6.37-12,6.37-14l0-.65h2.86c1.55,4.78,3.1,10,5.52,14.44l.48.89ZM175.3,66.29c-.05-.17-.19-.58-.41-.58s-.36.46-.41.58l-2.11,5.14H177Z" transform="translate(0 0)"/><path class="cls-3" d="M186.66,79.12A6,6,0,0,0,187.2,76V65H184a2.58,2.58,0,0,0-1.71.53l.48-1.73h12.18c-.41,1-1.89,1.2-2.88,1.2h-2.66V76a6.09,6.09,0,0,0,.53,3.15Z" transform="translate(0 0)"/><path class="cls-3" d="M198,66.94a6,6,0,0,0-.53-3.15h3.25a6,6,0,0,0-.54,3.15v9a6,6,0,0,0,.54,3.14h-3.25A6,6,0,0,0,198,76Z" transform="translate(0 0)"/><path class="cls-3" d="M211.25,79.51c-5.09,0-7.32-3.46-7.32-7.74,0-4.57,2.67-8.37,7.7-8.37S219,66.87,219,71.14c0,4.57-2.67,8.37-7.7,8.37m.2-15.05c-3.49,0-5,3.17-5,6.64,0,3.17,1.09,7.35,5,7.35,3.49,0,5-3.17,5-6.63,0-3.17-1.09-7.36-5-7.36" transform="translate(0 0)"/><path class="cls-3" d="M221.62,79.12c.84-2,.84-4.9.84-7V67c0-1.18-.05-2.48-.77-3.2h2.45c.46,0,.67,0,1,.38.5.68,2,3.25,2.8,4.3l4.82,6.76c.17.24.37.57.51.57s.17-.24.17-.46V66.86a6.07,6.07,0,0,0-.58-3.08h2.52a7.66,7.66,0,0,0-.73,3.59V77c0,.79,0,1.51,0,2.23H233l-8.86-12.52c-.1-.14-.17-.26-.27-.26s-.14.15-.14.36V73c0,1.92-.05,4.35.72,6.15Z" transform="translate(0 0)"/><path class="cls-3" d="M27.07.51A4.89,4.89,0,0,0,24.88,0H5.06A5.08,5.08,0,0,0,0,5.06V25a5.55,5.55,0,0,0,.07.82A52.05,52.05,0,0,1,27.07.51" transform="translate(0 0)"/><path class="cls-3" d="M29.94,31.91H9.74a38.15,38.15,0,0,0,0,30H29.94Z" transform="translate(0 0)"/><path class="cls-3" d="M29.88,68.82V63.87H24.93a5,5,0,0,1,4.95,4.95" transform="translate(0 0)"/><path class="cls-3" d="M24.86,63.87H10.67A40.39,40.39,0,0,0,29.88,82.52V68.89a5,5,0,0,0-5-5" transform="translate(0 0)"/><path class="cls-3" d="M24.93,30h4.95V25A5,5,0,0,1,24.93,30" transform="translate(0 0)"/><path class="cls-3" d="M29.88,24.93V11.37A40.47,40.47,0,0,0,10.7,30H24.86a5,5,0,0,0,5-5" transform="translate(0 0)"/><path class="cls-3" d="M31.83,63.81V83.44a43.19,43.19,0,0,0,29.94.94V63.81Z" transform="translate(0 0)"/><path class="cls-3" d="M85.56,63.81H63.66V83.69a40.8,40.8,0,0,0,21.9-19.88" transform="translate(0 0)"/></g><path class="cls-4" d="M204.22,98a3,3,0,0,1,2.91-3.09c.11,0,.21,0,.32,0a4.46,4.46,0,0,1,1.73.32l.09-.32h.39l-.08,1.79h-.39l-.14-.78a2.46,2.46,0,0,0-1.69-.53c-1.22,0-2.06.94-2.06,2.5a2.33,2.33,0,0,0,2,2.6h.14a2.8,2.8,0,0,0,2-.77l.24.35a3.18,3.18,0,0,1-2.4.92,3,3,0,0,1-3.12-2.81A1.21,1.21,0,0,1,204.22,98Zm-2.85,2.84-4.06-4.42v3.84l.93.16v.37h-2.41v-.37l.93-.16V95.82l-.25-.26-.68-.08v-.37h1.54l3.75,4.1V95.64l-.93-.16v-.37h2.42v.37l-.94.16v5.19Zm10.37,0v-.37l.94-.1V95.59l-.94-.1v-.38h4.71V96.6H216l-.15-1h-2.25v2h1.55l.1-.63h.39v1.73h-.39l-.1-.63h-1.55v2.25H216l.16-1.06h.45v1.54Zm-22.82,0v-.37l.94-.1V95.59l-.94-.1v-.38h4.71V96.6h-.42l-.15-1h-2.25v2h1.54l.11-.63h.39v1.73h-.39l-.11-.63h-1.54v2.25h2.33l.17-1.06h.45v1.54Zm-3.29,0-1.79-2.35-.78,0v1.82l1,.1v.37h-2.89v-.36l.94-.1V95.59l-.94-.1v-.38h2.71c1.05,0,2.13.4,2.13,1.45a1.76,1.76,0,0,1-1.3,1.66l1.74,2.08.69.1v.37Zm-2.57-5.19V98h.53A1.25,1.25,0,0,0,185,96.92a2,2,0,0,0,0-.25,1.19,1.19,0,0,0-1.2-1.15h-.13A6.2,6.2,0,0,0,183.06,95.59Zm-8.85,5.19v-.37l.94-.1V95.59l-.94-.1v-.38h4.71V96.6h-.42l-.15-1H176.1v2h1.54l.11-.63h.39v1.73h-.39l-.11-.63H176.1v2.25h2.33l.17-1.06H179v1.54Zm-6.74,0v-.37l.95-.1V95.59l-.95-.1v-.38h4.71V96.6h-.42l-.15-1h-2.25v2.07h1.55L171,97h.39v1.73H171l-.1-.63h-1.55v2.17l1.19.1v.37Zm-6.73,0v-.37l.94-.1V95.59l-.94-.1v-.38h4.7V96.6H165l-.14-1h-2.26v2.07h1.55l.1-.63h.39v1.73h-.39l-.1-.63h-1.55v2.17l1.2.1v.37Zm-4.91,0v-.37l.94-.1V95.59l-.94-.1v-.38h2.83v.37l-.94.1v4.72l.94.1v.37Zm-7.85,0v-.37l.79-.1V95.59l-.79-.11v-.37h2.82c1.79,0,3.32,1,3.32,2.77s-1.31,2.9-3.33,2.9Zm1.74-5.19v4.66a3.55,3.55,0,0,0,.86.1c1.65,0,2.46-.72,2.46-2.37s-.87-2.45-2.57-2.45A4.74,4.74,0,0,0,149.72,95.59ZM140,100.78v-.37l1-.1-.54-1.25h-2.28l-.53,1.23,1,.12v.37h-2.26v-.37l.72-.13L139.28,95h.42l2.27,5.3.71.1v.37Zm-1.65-2.19h1.89l-.93-2.23h0ZM126,100.78v-.37l.94-.1V95.59l-.94-.1v-.38h4.7V96.6h-.42l-.14-1h-2.26v2h1.55l.1-.63h.4v1.73h-.4l-.1-.63h-1.55v2.25h2.34l.17-1.06h.45v1.54Zm-3.37,0-2.26-2.58h-.33v2.1l1,.1v.37h-2.84v-.36l1-.1V95.59l-1-.1v-.38H121v.37l-.94.11v2.25h.08l2.33-2.25-.63-.1v-.38H124v.37l-.86.1-2.15,2,2.46,2.67.71.13v.36Zm-8.94,0v-.37l1-.1-.54-1.25H111.9l-.53,1.24,1,.12v.36H110.1v-.37l.72-.13L113.06,95h.42l2.27,5.3.71.1v.37Zm-1.64-2.19H114l-.93-2.23h0Zm-6.49,2.19v-.37l1-.1-.27-4-2.15,4.42h-.21l-2.11-4.32-.23,3.79.94.16v.37h-2.44v-.37l1-.16.31-4.66-.94-.11v-.37h1.78l2.07,4.29,2.09-4.29h1.77v.37l-1,.08.33,4.74.94.1v.37Z" transform="translate(0 0)"/></g></g></svg>